<mxfile host="app.diagrams.net" agent="Mozilla/5.0 (Windows NT 10.0; Win64; x64) AppleWebKit/537.36 (KHTML, like Gecko) Chrome/137.0.0.0 Safari/537.36 Edg/137.0.0.0" version="27.0.9">
  <diagram name="Page-1" id="2cc2dc42-3aac-f2a9-1cec-7a8b7cbee084">
    <mxGraphModel dx="1379" dy="760" grid="1" gridSize="10" guides="1" tooltips="1" connect="1" arrows="1" fold="1" page="1" pageScale="1" pageWidth="1100" pageHeight="850" background="none" math="0" shadow="0">
      <root>
        <mxCell id="0" />
        <mxCell id="1" parent="0" />
        <mxCell id="sceWcwLllYWsd-2YkSTM-57" value="" style="rounded=0;whiteSpace=wrap;html=1;fillColor=light-dark(#FFFFFF,#000000);" vertex="1" parent="1">
          <mxGeometry x="320" y="830" width="1080" height="730" as="geometry" />
        </mxCell>
        <mxCell id="sceWcwLllYWsd-2YkSTM-1" value="" style="strokeWidth=1;shadow=0;dashed=0;align=center;html=1;shape=mxgraph.mockup.forms.rrect;rSize=0;strokeColor=light-dark(#999999,#1A1A1A);fillColor=#ffffff;labelBorderColor=light-dark(default, #121212);" vertex="1" parent="1">
          <mxGeometry x="400" y="100" width="400" height="480" as="geometry" />
        </mxCell>
        <mxCell id="sceWcwLllYWsd-2YkSTM-2" value="Вход" style="strokeWidth=1;shadow=0;dashed=0;align=center;html=1;shape=mxgraph.mockup.forms.anchor;fontSize=12;fontColor=#666666;align=left;resizeWidth=1;spacingLeft=0;" vertex="1" parent="sceWcwLllYWsd-2YkSTM-1">
          <mxGeometry width="200" height="20" relative="1" as="geometry">
            <mxPoint x="177" y="86" as="offset" />
          </mxGeometry>
        </mxCell>
        <mxCell id="sceWcwLllYWsd-2YkSTM-4" value="Логин" style="strokeWidth=1;shadow=0;dashed=0;align=center;html=1;shape=mxgraph.mockup.forms.anchor;fontSize=12;fontColor=#666666;align=left;resizeWidth=1;spacingLeft=0;" vertex="1" parent="sceWcwLllYWsd-2YkSTM-1">
          <mxGeometry width="200" height="20" relative="1" as="geometry">
            <mxPoint x="50" y="126" as="offset" />
          </mxGeometry>
        </mxCell>
        <mxCell id="sceWcwLllYWsd-2YkSTM-5" value="" style="strokeWidth=1;shadow=0;dashed=0;align=center;html=1;shape=mxgraph.mockup.forms.rrect;rSize=0;strokeColor=#999999;fontColor=#666666;align=left;spacingLeft=5;resizeWidth=1;" vertex="1" parent="sceWcwLllYWsd-2YkSTM-1">
          <mxGeometry width="300" height="25" relative="1" as="geometry">
            <mxPoint x="50" y="156" as="offset" />
          </mxGeometry>
        </mxCell>
        <mxCell id="sceWcwLllYWsd-2YkSTM-6" value="Пароль" style="strokeWidth=1;shadow=0;dashed=0;align=center;html=1;shape=mxgraph.mockup.forms.anchor;fontSize=12;fontColor=#666666;align=left;resizeWidth=1;spacingLeft=0;" vertex="1" parent="sceWcwLllYWsd-2YkSTM-1">
          <mxGeometry width="200" height="20" relative="1" as="geometry">
            <mxPoint x="50" y="196" as="offset" />
          </mxGeometry>
        </mxCell>
        <mxCell id="sceWcwLllYWsd-2YkSTM-7" value="" style="strokeWidth=1;shadow=0;dashed=0;align=center;html=1;shape=mxgraph.mockup.forms.rrect;rSize=0;strokeColor=#999999;fontColor=#666666;align=left;spacingLeft=5;resizeWidth=1;" vertex="1" parent="sceWcwLllYWsd-2YkSTM-1">
          <mxGeometry width="300" height="25" relative="1" as="geometry">
            <mxPoint x="50" y="228" as="offset" />
          </mxGeometry>
        </mxCell>
        <mxCell id="sceWcwLllYWsd-2YkSTM-8" value="Вход" style="strokeWidth=1;shadow=0;dashed=0;align=center;html=1;shape=mxgraph.mockup.forms.rrect;rSize=5;strokeColor=none;fontColor=#ffffff;fillColor=light-dark(#66BBFF,#CCCCCC);fontSize=16;fontStyle=1;" vertex="1" parent="sceWcwLllYWsd-2YkSTM-1">
          <mxGeometry y="1" width="80" height="30" relative="1" as="geometry">
            <mxPoint x="297" y="-50" as="offset" />
          </mxGeometry>
        </mxCell>
        <mxCell id="sceWcwLllYWsd-2YkSTM-11" value="" style="strokeWidth=1;shadow=0;dashed=0;align=center;html=1;shape=mxgraph.mockup.forms.anchor;fontSize=12;fontColor=#666666;align=left;spacingLeft=0;resizeWidth=1;" vertex="1" parent="sceWcwLllYWsd-2YkSTM-1">
          <mxGeometry y="1" width="300" height="20" relative="1" as="geometry">
            <mxPoint x="20" y="-80" as="offset" />
          </mxGeometry>
        </mxCell>
        <mxCell id="sceWcwLllYWsd-2YkSTM-12" value="&lt;font style=&quot;font-size: 15px;&quot;&gt;Регистрация&lt;/font&gt;" style="strokeWidth=1;shadow=0;dashed=0;align=center;html=1;shape=mxgraph.mockup.forms.rrect;rSize=5;strokeColor=light-dark(#001DBC,#1A1A1A);fontColor=light-dark(#FFFFFF,#CCCCCC);fillColor=light-dark(#0050EF,#1A1A1A);fontSize=16;fontStyle=1;labelBorderColor=light-dark(#000000,#1A1A1A);" vertex="1" parent="sceWcwLllYWsd-2YkSTM-1">
          <mxGeometry y="1" width="80" height="30" relative="1" as="geometry">
            <mxPoint x="30" y="-50" as="offset" />
          </mxGeometry>
        </mxCell>
        <mxCell id="sceWcwLllYWsd-2YkSTM-24" value="&lt;font style=&quot;font-size: 10px;&quot;&gt;Русский&lt;/font&gt;" style="strokeWidth=1;shadow=0;dashed=0;align=center;html=1;shape=mxgraph.mockup.forms.comboBox;strokeColor=#999999;fillColor=none;align=left;fillColor2=#aaddff;mainText=;fontColor=#666666;fontSize=17;spacingLeft=3;" vertex="1" parent="sceWcwLllYWsd-2YkSTM-1">
          <mxGeometry x="251.42857142857142" y="22.325581395348838" width="125.71428571428571" height="22.325581395348838" as="geometry" />
        </mxCell>
        <mxCell id="sceWcwLllYWsd-2YkSTM-39" value="" style="strokeWidth=1;shadow=0;dashed=0;align=center;html=1;shape=mxgraph.mockup.forms.rrect;rSize=0;strokeColor=light-dark(#999999,#1A1A1A);fillColor=#ffffff;labelBorderColor=light-dark(default, #121212);" vertex="1" parent="1">
          <mxGeometry x="830" y="100" width="400" height="480" as="geometry" />
        </mxCell>
        <mxCell id="sceWcwLllYWsd-2YkSTM-40" value="Регистрация" style="strokeWidth=1;shadow=0;dashed=0;align=center;html=1;shape=mxgraph.mockup.forms.anchor;fontSize=12;fontColor=#666666;align=left;resizeWidth=1;spacingLeft=0;" vertex="1" parent="sceWcwLllYWsd-2YkSTM-39">
          <mxGeometry width="200" height="20" relative="1" as="geometry">
            <mxPoint x="160" y="86" as="offset" />
          </mxGeometry>
        </mxCell>
        <mxCell id="sceWcwLllYWsd-2YkSTM-41" value="Логин" style="strokeWidth=1;shadow=0;dashed=0;align=center;html=1;shape=mxgraph.mockup.forms.anchor;fontSize=12;fontColor=#666666;align=left;resizeWidth=1;spacingLeft=0;" vertex="1" parent="sceWcwLllYWsd-2YkSTM-39">
          <mxGeometry width="200" height="20" relative="1" as="geometry">
            <mxPoint x="50" y="126" as="offset" />
          </mxGeometry>
        </mxCell>
        <mxCell id="sceWcwLllYWsd-2YkSTM-42" value="" style="strokeWidth=1;shadow=0;dashed=0;align=center;html=1;shape=mxgraph.mockup.forms.rrect;rSize=0;strokeColor=#999999;fontColor=#666666;align=left;spacingLeft=5;resizeWidth=1;" vertex="1" parent="sceWcwLllYWsd-2YkSTM-39">
          <mxGeometry width="300" height="25" relative="1" as="geometry">
            <mxPoint x="50" y="156" as="offset" />
          </mxGeometry>
        </mxCell>
        <mxCell id="sceWcwLllYWsd-2YkSTM-43" value="Пароль" style="strokeWidth=1;shadow=0;dashed=0;align=center;html=1;shape=mxgraph.mockup.forms.anchor;fontSize=12;fontColor=#666666;align=left;resizeWidth=1;spacingLeft=0;" vertex="1" parent="sceWcwLllYWsd-2YkSTM-39">
          <mxGeometry width="200" height="20" relative="1" as="geometry">
            <mxPoint x="50" y="196" as="offset" />
          </mxGeometry>
        </mxCell>
        <mxCell id="sceWcwLllYWsd-2YkSTM-44" value="" style="strokeWidth=1;shadow=0;dashed=0;align=center;html=1;shape=mxgraph.mockup.forms.rrect;rSize=0;strokeColor=#999999;fontColor=#666666;align=left;spacingLeft=5;resizeWidth=1;" vertex="1" parent="sceWcwLllYWsd-2YkSTM-39">
          <mxGeometry width="300" height="25" relative="1" as="geometry">
            <mxPoint x="50" y="228" as="offset" />
          </mxGeometry>
        </mxCell>
        <mxCell id="sceWcwLllYWsd-2YkSTM-45" value="Зарегистрироваться" style="strokeWidth=1;shadow=0;dashed=0;align=center;html=1;shape=mxgraph.mockup.forms.rrect;rSize=5;strokeColor=none;fontColor=#ffffff;fillColor=light-dark(#66BBFF,#CCCCCC);fontSize=16;fontStyle=1;" vertex="1" parent="sceWcwLllYWsd-2YkSTM-39">
          <mxGeometry y="1" width="190" height="29" relative="1" as="geometry">
            <mxPoint x="105" y="-50" as="offset" />
          </mxGeometry>
        </mxCell>
        <mxCell id="sceWcwLllYWsd-2YkSTM-46" value="" style="strokeWidth=1;shadow=0;dashed=0;align=center;html=1;shape=mxgraph.mockup.forms.anchor;fontSize=12;fontColor=#666666;align=left;spacingLeft=0;resizeWidth=1;" vertex="1" parent="sceWcwLllYWsd-2YkSTM-39">
          <mxGeometry y="1" width="300" height="20" relative="1" as="geometry">
            <mxPoint x="20" y="-80" as="offset" />
          </mxGeometry>
        </mxCell>
        <mxCell id="sceWcwLllYWsd-2YkSTM-48" value="&lt;font style=&quot;font-size: 10px;&quot;&gt;Русский&lt;/font&gt;" style="strokeWidth=1;shadow=0;dashed=0;align=center;html=1;shape=mxgraph.mockup.forms.comboBox;strokeColor=#999999;fillColor=none;align=left;fillColor2=#aaddff;mainText=;fontColor=#666666;fontSize=17;spacingLeft=3;" vertex="1" parent="sceWcwLllYWsd-2YkSTM-39">
          <mxGeometry x="251.42857142857142" y="22.325581395348838" width="125.71428571428571" height="22.325581395348838" as="geometry" />
        </mxCell>
        <mxCell id="sceWcwLllYWsd-2YkSTM-49" value="Повторите пароль" style="strokeWidth=1;shadow=0;dashed=0;align=center;html=1;shape=mxgraph.mockup.forms.anchor;fontSize=12;fontColor=#666666;align=left;resizeWidth=1;spacingLeft=0;" vertex="1" parent="sceWcwLllYWsd-2YkSTM-39">
          <mxGeometry x="51.42999999999995" y="270" width="200" height="20" as="geometry" />
        </mxCell>
        <mxCell id="sceWcwLllYWsd-2YkSTM-50" value="" style="strokeWidth=1;shadow=0;dashed=0;align=center;html=1;shape=mxgraph.mockup.forms.rrect;rSize=0;strokeColor=#999999;fontColor=#666666;align=left;spacingLeft=5;resizeWidth=1;" vertex="1" parent="sceWcwLllYWsd-2YkSTM-39">
          <mxGeometry x="50" y="303" width="300" height="25" as="geometry" />
        </mxCell>
        <mxCell id="sceWcwLllYWsd-2YkSTM-51" value="" style="strokeWidth=1;shadow=0;dashed=0;align=center;html=1;shape=mxgraph.mockup.containers.marginRect2;rectMarginTop=32;strokeColor=#666666;gradientColor=none;whiteSpace=wrap;fillColor=light-dark(#FFFFFF,#666666);" vertex="1" parent="1">
          <mxGeometry x="350" y="990" width="870" height="540" as="geometry" />
        </mxCell>
        <mxCell id="sceWcwLllYWsd-2YkSTM-52" value="Tab 1" style="strokeColor=inherit;fillColor=inherit;gradientColor=inherit;strokeWidth=1;shadow=0;dashed=0;align=center;html=1;shape=mxgraph.mockup.containers.rrect;rSize=0;fontSize=17;fontColor=#666666;gradientColor=none;" vertex="1" parent="sceWcwLllYWsd-2YkSTM-51">
          <mxGeometry width="60" height="25" relative="1" as="geometry">
            <mxPoint x="130" as="offset" />
          </mxGeometry>
        </mxCell>
        <mxCell id="sceWcwLllYWsd-2YkSTM-54" value="Tab 3" style="strokeColor=inherit;fillColor=inherit;gradientColor=inherit;strokeWidth=1;shadow=0;dashed=0;align=center;html=1;shape=mxgraph.mockup.containers.rrect;rSize=0;fontSize=17;fontColor=#666666;gradientColor=none;" vertex="1" parent="sceWcwLllYWsd-2YkSTM-51">
          <mxGeometry width="60" height="25" relative="1" as="geometry">
            <mxPoint x="190" as="offset" />
          </mxGeometry>
        </mxCell>
        <mxCell id="sceWcwLllYWsd-2YkSTM-55" value="" style="strokeWidth=1;shadow=0;dashed=0;align=center;html=1;shape=mxgraph.mockup.containers.topButton;rSize=5;strokeColor=light-dark(#008CFF,#CCCCCC);fillColor=light-dark(#008CFF,#CCCCCC);gradientColor=none;resizeWidth=1;movable=0;deletable=1;" vertex="1" parent="sceWcwLllYWsd-2YkSTM-51">
          <mxGeometry width="870.0000000000001" height="7" relative="1" as="geometry">
            <mxPoint y="25" as="offset" />
          </mxGeometry>
        </mxCell>
        <mxCell id="sceWcwLllYWsd-2YkSTM-77" value="MusicBands" style="strokeWidth=1;shadow=0;dashed=0;align=center;html=1;shape=mxgraph.mockup.containers.rrect;rSize=0;fontSize=17;fontColor=#ffffff;strokeColor=light-dark(#008CFF,#E6E6E6);fillColor=light-dark(#008CFF,#CCCCCC);" vertex="1" parent="sceWcwLllYWsd-2YkSTM-51">
          <mxGeometry x="20" width="110" height="25" as="geometry" />
        </mxCell>
        <mxCell id="sceWcwLllYWsd-2YkSTM-58" value="" style="shape=image;verticalLabelPosition=bottom;labelBackgroundColor=default;verticalAlign=top;aspect=fixed;imageAspect=0;image=data:image/png,iVBORw0KGgoAAAANSUhEUgAABLAAAAKjCAYAAAANs/bAAAAAAXNSR0IArs4c6QAAIABJREFUeF7s3QVUlGnfBvCL7rJFxVg7UMTursXOVSzsWLvWWHXX7sJV1+7uWNd81bWxA7EwwAKlO75vhoaJZ4YZmGGuOcdz3hfu+N+/+55huPaZB73IH2Hx0NpHNpeul5Vw2bxWpZaqSTWzFulbmI02Up9D2ViTRChNqEcXa1DnmtONrbLXc1XXrKrxMjOOsn3l9Mtgrsg8irQVPakVaS+0rbz1CR1HkfoUGTPpxUyZPkL7xgOCnjvpa0j9/6UNIK3uzPRNWpdozvTjJ9Uhz0v0/aS2itQuaitp3vQ/dNKOGZ8OOOG7eumql1SHtNrSfT1eJCFrEzMxdmKtkt9/CKxPyhjx4m2Sd/gUqT312ZD1plfenKn7ym+bcJrS77mQN92Sx5Z+wjLue5pZ5B1/PT3hL6NCnhai8dT4SDgfqnqot1ZVVakV46h537XCgEVmWkCPAVYmDLP09Uylr8SZWLQiXTWpZtYifeey0YYBlgJPqGzcp+Qqs7oGdc7HAEv44VN2H+QFPOkrUGQeRdqK5lGkvdC28tYndBxF6lNkzCRfZfoI7csAS/LzSJI5A6y0Vgywkp75DLCE/zQS2pIBllCpLG7HACuLwXPmdOIAKyY2Dh/8AxESGSV3lZYmxiiSxwaG+vpy26q/QWbelKmgOgZYchCzeX/SVMdaGGBl5jmvCedHF2tQ55oZYAl/Rii7D/ICHgZYKQJCjYW2S22rTB8GWLJ/ZvIKLMk+ilzxxACLAZbwn0KKtmSApahYFrVngJVF0Dl7GnGA5fHGBwXzW8I+b660v/LHx0Mv3UHz/fYdn76EwLlEIQ2QycybMhWUzwCLAZZSxyibz22GmrOxHl6BpcAJysZ9Sq4yq2tQ53wMsIQfPmX3gQGW6o2V2Qtl+jDAYoCVJJDZUEqRoEo0p7D5+BFCfoRQ1usrAyzhP32ytCUDrCzlzqmTiQOsvf/dR+dGlWFiYpK8ztjYWMT4e8MgV1EYGhomfz0yMhIHLz3AL/WqaoBJZt6UqaB8BlgMsJQ6Rtl8bhlgKbFrmrBnuliDOtfMAEv4E0HZfWCApXpjZfZCmT4MsBhgMcCSfAYUefMvv63o2cmPEAp/pRTakgGWUKksbscAK4vBc+Z04gBr8/mbcG1VHcbGxuJVisKryIBPiL2/C4ZOPWFiVwj6iR8ZjIqKwo4ztzGgee00Ig8fPcRHXx/x18zMzNCkYeMsEMvMmzIVlCf/55IKJhH6JlKFU6lsqGzenzTrYC2y34yrbNMVG4hXYCngpQlnOKtrUOd8DLCEHz5l94EBluqNldkLZfoIfe/Be2BJ3mNJ5rwHVlorRa7MytiWV2DxCixZr68MsIT/9MnSlgyw1MIdGhqKCRMmwOvly4Tx4+ORJ08ezJ07FyVLllTLnLIG7dffDZ06dUS7tm3TNDt+4gSOHj2KzZs2ZaomcYC19uRl9HOpnRxgRQX5IfKfqYgvXAuGUcEwqTUQBqYW4olEAdaWE9cxom3agOrXcaPQqUMnlC1dBgYGBsiXN1+mChPWOTNvyoTNILMVAyw5iNm8PwywBB7ybNwnBlgC90j800iBtupqmtU1qHM+BljCT4my+8AAS/XGyuyFMn0YYEnfu4RrZhIeQv7cWtJIWR1gSasvXc38K4Tptlrem3t53089nPy2vAJL+KukIi0ZYCmilQ1tGWSpDD0wMBC7du9GWFiYOLgSPYo4OKB48eKYMmUKLl64oLK5hA4UERGBocNHoNcvv6B582bibufOnceuPXuwbq07TE1NhQ4lsZ04wFpy8B8M7lBfHGDFxcUh8vt7xF5aAD3z3NBvMl0cSCX9EwVYG45ewYQurdMMOGr8aAx2G4SKFSomf93Hxwebd2yFkZERfh06QjzG4hVLxd9v07IVnJ2ccfb8v7h99474a1WrOOHnVm1w4vRJtG3jIv7a9Zs3UKliRVhZWuHFyxfYf+ggLMzNMWzQUPGVXpGREdiweSMCAgMwZuQocbukh4+vD7bv3onfJkwWf+n9h/f498J59HPtg5iYmORaunbsjLJlyuLUP6fF84seV65dhbNTVbzxfgvRxyarVXWG9ztv7Nq3R2w0Y8o0+X+9N1Nbk75zZt6AqrQQBQbTpJpZi/SNy0YbrQiwstEnzaZpQh1ZXYM652OAJfzFXNl9kNFP4nNfkXkUaStaqSLthbQV0EZPQJvkTRDaVmi71LurTJ+k/vL6KnsFVurxFQmB0u+lon2T5hX1k7c2ac8QBljS3wALu39VgiyvwEo6zVn+EUJJRz9pO6Q9LUSBgyJPGUnbm7q/0AAjTR8FfmopUqvcYdPukEqHljt3Dm0gdP9z6PJVuaxBgwejeLFicHBwSB726LFj6NChA6ZOnYr3796pcjrBY3379g0TJ09Bp44dxH0OHzmKxQsXIG/evILHkNZQHGD9ufMIRnZtKg6avgcE4p6nN8ob+cLA/wViK7viv8dv0LR6WeSysUZ0dDTW7L+AGb07phlTUoB14sxJcaB09fo1DHEbhCfPnqJMqdIoZF8IDVo0xtljpzF99gyMHjEKDkUc0GdQP/y1wh1jJ4/HhjXrxOMvWbkUvbr3xKcvn9FnYD/cuXITz1944reZ03D68AkMHjkEI4eOQC47O3To0QV3r94UB2WihygYa9u1g3ieKo6VMXPObJy7dAEXTp3FjNkz4dqzF6pUqoyGLZvgzNGTGP/bJPy1Yo24758L54prPn/pAoKDgtG/Tz+069YRh3YfwHPP5xg9cRyunruU8NFK+f+BJdMbpdhPDRVMp5IhNOklnrVI39JstGGApeAzLRv3SlxpVs+vzvkYYAk/fMruAwMs1RsrsxfK9EmqXF7fzAZYsoSkzS3kN1p5dcsKsFL/YJI0DgOszIZPCbvOACvpp6raA6ykYyw+9lLcVR1gSdpiRQOs9E8/RX7fEl9ZqJpHwrRpJ1fV2KqpUAtH0eIAq1Tp0lLBmzRujPXr12fphnTt1g2zZs5EhQoVkuddvHgx9A0MsGrlSrzLpgBLVEx4eDhc2rUX13Xy+DHxxUeqeIgDrKl/78XoHs3EAda7T344f/c5CtglXMlkbmqMbwGhKJI/F2pX+kkcYK3cew7zBv2SZn5JAdZK91Vo1KAhjp8+KQ6DRB8rXL12NS5d/R/8/P1w8uBxzJ73B555PhcvqL1LO7j26IVho0eIvy96vH7zBv8cO4Vtu3bApXUbVCxfUXyPrlqN6mDdqrVo0roZmjZuKm574dIFPL77EA6Fi4j/vyjAEoVd796/w8Qx47Fg6WI8fPwQe7bthEun9rCxsRG38/3ki9NHTmDMxHEICQ0Vf+3dh/c4c+SEOMBaunI5rKysxFdhLZm3SPz9Jm2aY+uGzclzqT/E0saXSk2qmbVIf8HIRptMX4WhipdBeWNko0+G0rK7lqyeX53zMcCSd/JTvq/sPjDAUr2xGvZCZpHy5tOmACv9Dxxpa5MXYKUGU+QKMHV+hFBUk9Crn9T1EUJFAilp9SqwDvH2ZZwz7a4qWpOsupL2XZEURbm28p51CZVIHltSNJv6YtB4Wb+wyMx1FbwCSxJXhuxZjo+Qp6i0169UfYV5Sn8hlBRgiVpndlzhPx9yeEstDrM0YWc0OcA6888/OHX6jJjp5zat0bpVK5WQiQOsMau3YFLvNuIrlyKjonD5nhd+BIfByNAQhfLawMhAH1VKO4gDLlGAtWjHKaz41S1NAZICrO69f8Hi+Yuwbdd2cYC1dsNfKFmiJFx/6YUhI4di0byF+GPen8lXYPUfMgDLFy3FpGlTMlyBJS3AGjpqOG5e/i/5qqvURYkCrB8BP3D12jX07d1HfOXU5u1bxQHWrLl/YOGf89OsYdiYkVKvwKpSpQoOHD6YHGA1c2mJnZu3o0C+/LJ+jqhkkxIG0caXSU2qmbVIP4zZaJPhvUs21iIVSJNqyu5asnp+dc7HAEv4Dyhl94EBluqNld0LZd9HyJtPUwOsJPkMvzGn2hIhvx3LW3/2BVgZd1QTAyxZAYUi4ZKEtlICrLQuiswhNKBSLpSS/1qg6BU+agiwZBWp6EcI5QVYyd+X4SnkKSqpZgn95D2TZS5d/E3JdWZmXPlzaudvf/LPeroWDLAUJkvdQVqAZWRsjDevX2PVqlWZGl/ZzqIbtm/eshWbN/4tHsJt4CC49e+X4cbuyowvDrCGLl6H6QPa46WPH56++QTHEvlhYWoMPT09xMbF47/H3nAqUxjlitmLb+I+Z9NRrJs4LM186QOsFy+94DZ0IK6eu4y5i+eLA6zf/5wlvneU6N5UorDq+qVraQKsnv1dxR8hnDhtstyPELqvc8cG9/Vo2b41Zk+bibq162DRsiWYNG5Ccl1JAZan1wscP3USWzdswq/jRosDLNHVVl06dkLzJs3x74VzaNygEUZNHCs1wBrQzw1uwwbhr5XuGT9CKP11TZk9EdBHXS+XAqZWqIkm1clapG9dNtowwFLoGZX9b2Wy+qyocz4GWMIPn7L7oM4AK+Ov77LXo8gahLQV0Eahe2Clrl7W2ALmlQmhaH957VURYInmkPTLobS5ZYVS6Ref1FZe6CBtTGV/g5Z0PpOuwJJ3diUFGSlfS381SEqFDLCSdl+2iei06cn4z8Lyzoq876c+g5lrK+vZl3QO0rfJ1BVYcn8oKLKexMFSd5G0IFnhhXwAyRVL6Sfv1Uza8qVdgSXvmSyXU0qD9MrK1q3s/NnWj0GWUvQ9e/WCi4sLnKpUEfePj4/HsuXL0bJlS3Ts0AGGhoZKjZuZTpJu2C7pxu7KziEOsAYtWIPZw7qJr7B6+eGb+Oor0eJFD1GIldvGAiUL5YWBgT5Ek//+1378PWVkmjnPnD0D56rOyX990H39WvGVVjbWNrhy7Yr4hu2+nz9h74F9KPnTT7D9/683adQEl6/+L/km7g3q1UfDeg2k3sTd474HTp/9B7Y2NuIbxpuYmCA8PAx//b0eoWGhyTeGTypMFJSFR0TAxNgEh44dxpgRo7D34D506dBZ3H7V2oT7XSXdPF7oTdxF804YPS6tuRKv6cpuWvb/Eiu0ck17ydWUejSljoxv9YTurMraMcBSkDK7z05Wz6/O+RhgCT98yu6DlH5Sf14qOo8i7YW0FdJGgdfNbA+wFFmPtNMgZIzENjLfB8kaR/Q9Ra5kSr0H8t58CQ271BFgpf/1VrkAK2GUnBZgydo3gUGceMvkXRUj7SolBljCX/9Tt5T3fJMwqroCrKSpFMm+lfw8i6wAS4GfCILJFVyS4HE1viEDLKW26OXLlzh8+LD4FktJD1tbW7i5uWX6r/0pVRCALVu2wsXl5ww3bBfd2P3EiZNwc+uv7NDifuIAa9PxcyhayBalihcR/1cJ6W9j4vHy7Qe88wnAgHbNMzWx6joLeXOlutnkjqTEa7vcMTM00LA1yzgxiq9NnT00xU1T6lDHj10F948BloJg2X12snp+dc7HAEv44cvMPijirOg8irQX0lZIGwVeN7M1wFJkLbJOgiLjyLoaS9kAS1SbIjWkX4u0vrKucZD3G7f47bPwp4+4ZVJIJ+TaCskBTtJK0v8ynbJCgcFP+trFN7vObKAkrb/QmlJzCuyjQwFWkkjGmDVjECdxJ1J1lL3X8o61oude3njiKyWkNxLy1Fci7REybMYTKX/tio4rbeHSZlLV+AJ2JXuaMMDKHnctnFUcYIVFRuL952+IjI6WuwQTIyM4FMgLcxMTuW2zpoGGPZ3lv76pgEXD1qwVAZYmmWlSLZn95SCTx5kBloKA2X12snp+dc6nSLCiyDapumZVjZeZcVTYV+bPSEXnEdpe1e0Evm5qZYAl1EqCgdJ7mxTuSHueKVKT0AArfQiVfg55IZaib/YYYKXsjDw7GQFWhqMgeSzZoZ68jxDKCyjl1S8vjBMeW6QNLdNGuUlBpqyTmzxTmkYp9Sv+zFJk7Qr83JQWXChSoLynrIxy5E2TPjSWtTJ5YwlRkaWsivGF1JDtbRhmZfsWaHIB4gBLkwuUX5uGla+m1/a0Dhq2ZgZY8o9pmhaatn/ZVI+8/0yooKr6mmeTj8QFZWct2TG3OufUpQArs46Z6a+Is6LzCG2v6nY5NcAS6pS4fqXe70iaQxMCLEl7mn6BqWtXdPHqC7BSKpdz5VJyGpKuncwrsKStM/3XhbaTFw5J+37i+BKPaMa51RtgCVlD0g9wRc6J9HUkfSfjCUz4jrxnUNqLGNPOo8izXvErD5V8Z5YUXihSnIYEWAJ/OsiEkXdqFGFRcgeyvxsDrOzfAw2ugAGWqjdH3quOSubTlpcuTaqTtUg/etlgI/V5kg21yH1OalJN2VlLdsytzjkljK2S129V16yK8TI7Rmb6M8CS+xKToYEsb6F7IbRd0uRy2ouuJksOQBRfUeb/I5yi60k9o6S+0p7s6dtK+61Y0RcL1QRYKbNKCjsEBlhJHxcUNU9errR7QqXcWCStTDYEWFKPQM4OsGSfQIHnMI2dNgRYiSGhok97SUmfwJcrWVMlDCvQOpMfehY6k6I0Ahk0rxmDLM3bEw2oiAGWqjdB+OtbJmbWlpctTaqTtTDAUvYpx7OTIJcdDuqckwGW8GdEZvZBEWdF5xHaXtXtBD4fxO8HhM4tL3BR5PuKziugxmwPsAQGbVIPdeo1ynqjJivASl2Dom/2kgKspDHS95dXn5DASFIIlapfqrBKMpPk/hkzgYRQS3agJW2dQn49l2IbL81csQArKYyQferl7a+876cWFtpWWLu0J0lAnwwL1YIAS8HASPjPMvktJZ0LRQOszL5aCdjVbHtXJl9QxS0YYKkYNGcMp/f9+3cB71xyxmK5CgpQgAIUoAAFKEABClCAAhSgAAUoQAHtE2CApX17xoopQAEKUIACFKAABShAAQpQgAIUoIBOCTDA0qnt5mIpQAEKUIACFKAABShAAQpQgAIUoID2CTDA0r49Y8UUoAAFKEABClCAAhSgAAUoQAEKUECnBBhg6dR2c7EUoAAFKEABClCAAhSgAAUoQAEKUED7BBhgad+esWIKUIACFKAABShAAQpQgAIUoAAFKKBTAgywdGq7uVgKUIACFKAABShAAQpQgAIUoAAFKKB9AjIDrB+BwfgeGKx9q2LF2Sbwk4N9ts3NiSlAAQpQgAIUoAAFKEABClCAAhTImQIyA6zr954izpKBRM7cesmr+vjuDRrXrKLUkh8+fY4WtSsq1ZedKEABClCAAhSgAAUoQAEKUIACFKCANAG5AZZZvp8QGxaALwFhVNQBgbCQYLRtUlOpld6+9wgNqpZWqi87UYACFKAABShAAQpQgAIUoAAFKEABBlg8A4IERAFW5xa1BbVN3+jG3YeoW6WUUn3ZiQIUoAAFKEABClCAAhSgAAUoQAEKMMDiGRAkIAqwerapJ6ht+kZXb99HLceSSvVlJwpQgAIUoAAFKEABClCAAhSgAAUowACLZ0CQgCjA6tu+gaC26Rv978Y9VK/4k1J92YkCFKAABShAAQpQgAIUoAAFKEABCjDA4hkQJCAKsAZ3biSobfpGF/7zQNXyJZTqy04UoAAFKEABClCAAhSgAAUoQAEKUCDTAdbjm3uwf8dpxCSOZGJXGLXbDUTl0gWhlxW+Ye9x5sxFWJsZItaqDurVLwH9rJhXx+YQBVj9lLwC6zKvwNKx08LlUoACFKAABShAAQpQgAIUoAAFskZA8F8hTAiwPqPn3CGwjYnE5c0L8EG/FLr2cIG+oSlMTYwQERYEGFnC1FgPEaEhiI2Lh6GpJUyMDADEpfuaPqLDghGrbwoTE32Eh4ZC39gcelHhgJEZTEwMEREajHg9E5iZGyA8KBzG1lYwiI1EaGgkTKysYKiXJdFZ1uyEhswiCrB6/ZxyD6yBbn3w0stLYnX6+vpYtHQFqlevIf7+1Vv3UZP3wNKQnWQZFKAABShAAQpQgAIUoAAFKECBnCOgVIBlFxuF6zsW4WV0ETQu8gmX/MqgT7dmOLJ2Bgq0mQ3793vw7/XHCI+Kg2XBhug8ojMCzm9K97WOeLdlGl7naYfWZfywZdd5FGkxBFZXtyG8em+0qJMHB1YtBOw7oGtve+yddgj15k6D8dXN2P/PKzSf/DsqWJvnnJ3QkJWIAqwuLeukqWb+nzNx6cK5DBXOX7wCzonhleibN+48QB3+FUIN2UmWQQEKUIACFKAABShAAQpQgAIUyDkCCgZYSR8h1IOheQE4tuiN+mV/YNua82g63A1XN+5Ds2GdcXH5AuSpNQyN69vgvxNHYFu+OZ4dXpPma3bVeiD24nw8NSgPu2/3YNtyEupUtMWlBbMQXrUzCn0/jRvPA2FTMiXAqj3ZFbe2b0DQp3jUZ4ClllMoCrDaNa2VYezpk8biwb07yV/v2ccNon+pH7fuPUQDp9JqqYuDUoACFKAABShAAQpQgAIUoAAFKKC7AgoGWB/QcbIrbKEHPUNTmJmbQA9xuLhxMvxLNET8N3N0aFYEW92Xw7Hz76hVoYBYNtr/Jbak+xoQiQdbpuHyq2DAwBTNBkxHxaIm4gDrk3VeBAboo1TeGHwzrZl8BVYep++IK9gMYaevohwDLLWcWlGA1apB9Qxjx8XF4c/pE/Hw/l3x93YdPgMzs7RXwHk8eIxG1cqopS4OSgEKUIACFKAABShAAQpQgAIUoIDuCigYYCXcAytXOq9XF//GqZuvUKHZADRzLoBLa2fB27AcyvyUC8/u3kT5TiMReW5l2q91HQ/za0vwOk8rOBndx/mXRdDz1za4s2AWHkaaoeGAiYi/9BdeoHpigLUSQfmc0XNQY5yfu4kBlprOrCjAalLXWeroB3ZtRdtO3WFqZpahzYOHT9C0Rlk1VcZhKUABClCAAhSgAAUoQAEKUIACFNBVAcEB1tO7R3Di4Dd0nCK6AivtI+L9VazbeCjxKqo8APxxevNf8PGPQKmfh6NReXsJX8uNp/sW4l2uFmjVsBLObFsIo8o9YHlnPz4VqYvO7Rrj8cG/8BpV0LZLfhxdsBEFuy9CneLvcXLBTpQeORalLTOGKLq6kapatyjAalirqlLDPXz8BM1rllOqLztRgAIUoAAFKEABClCAAhSgAAUoQAFpAoIDrC8BYVIV/Z+cxO6jV9Bt1ALkt9anthYLiAKsOtWrKLWCx0+folWt8kr1ZScKUIACFKAABShAAQpQgAIUoAAFKKC2ACvU8zgu3PFH8eqdUKmsDaW1XEAUYNWoWlmpVTx99hRt6lRQqi87UYACFKAABShAAQpQgAIUoAAFKEABtQVYpM1ZAqIAy6lyJaUW5en5DC51KyrVl50oQAEKUIACFKAABShAAQpQgAIUoAADLJ4BQQKiAKtSJeWuovLy9ES7+gywBEGzEQUoQAEKUIACFKAABShAAQpQgAKCBQTdAysmPAh+gdLvgSV4NjbUeIGQoECUK6/cfaxeeXmiQwPlrt7SeBgWSAEKUIACFKAABShAAQpQgAIUoEC2CcgNsF588M+24jhx1guEhYbA0tJKqYlDQ0Mw/JfWSvVlJwpQgAIUoAAFKEABClCAAhSgAAUoIE1AZoBFNgpQgAIUoAAFKEABClCAAhSgAAUoQAEKZLcAA6zs3gHOTwEKUIACFKAABShAAQpQgAIUoAAFKCBTgAEWDwgFKEABClCAAhSgAAUoQAEKUIACFKCARgswwNLo7WFxFKAABShAAQpQgAIUoAAFKEABClCAAgyweAYoQAEKUIACFKAABShAAQpQgAIUoAAFNFqAAZZGbw+LowAFKEABClCAAhSgAAUoQAEKUIACFGCAxTNAAQpQgAIUoAAFKEABClCAAhSgAAUooNECDLA0entYHAUoQAEKUIACFKAABShAAQpQgAIUoIBeQEBAPBkoQAEKUIACFKAABShAAQpQgAIUoAAFKKCJAvHx8WCApYk7w5ooQAEKUIACFKAABShAAQpQgAIUoAAFxAIMsHgQKEABClCAAhSgAAUoQAEKUIACFKAABTRagAGWRm8Pi6MABShAAQpQgAIUoAAFKEABClCAAhRggMUzQAEKUIACFKAABShAAQpQgAIUoAAFKKDRAgywNHp7WBwFKEABClCAAhSgAAUoQAEKUIACFKAAAyyeAQpQgAIUoAAFKEABClCAAhSgAAUoQAGNFmCApdHbw+IoQAEKUIACFKAABShAAQpQgAIUoAAFGGDxDFCAAhSgAAUoQAEKUIACFKAABShAAQpotAADLI3eHhZHAQpQgAIUoAAFKEABClCAAhSgAAUowACLZ0DjBeLjohEYEITY+HSl6pvAzs4S+hq/AhZIAQpQgAIUoAAFKEABClCAAhSgQGYEGGBlRo99s0QgPOAxhvcZg/eh6aazb4l9OyYhT5ZUwUkoQAEKUIACFKAABShAAQpQgAIUyC6BHBVgRYf+wIMnnrDIVwLli+aG99OH+BprBqdK5WBkoIcQv/d48cYHUTBAbvsSKFE4DwwBRPl7w8PrE2BeCNUrO4i/BoTg2Y3HCARQpEwVFM5lhqgQf7x66YXACMDY2ByFKlRGAVMgzbzF84sGxH0PL0TkLonapfMC8bHwfv4YnwLD0+yzTeGyKF/EDhGfn+P+2zAUd3IWj5f6ER30Hvef+sC6WCWULWiZXeckW+dNCrCqT9iH4Q0S4qrHmwdizKXSyQFWTHgw3ng9gX8YYJanCCr9VAgG+npS7PVRuGxF5DUIwaNnb1C0QnXkt0rY9eRHTDi8nj4Qj2eZrxgqlCgI8XBxsfB5/Rgf/MIB89yoWLoErMzEpwiv7nvgW0TiCHp6sHEoj/L21uIvhH/3wYMX78X/O1+x0ihRMDdCvrzFkzef00xboERFFM9viRB/H7z0+oAImKNMxQrIlVRfbASe33+EgOjYVP2MUdK5Mkx/fMDTd/4o7+gEa1ODtOsRn8nXyF3BCQ7WRmm/F/EZHvd9UKCUAz40gvqkAAAgAElEQVS/eQWD3MVQyV4PT569RZRZQVQpUwxGycPF4JvXU7zyD4OBsRnKVa4EK0MDJJxTfxQsmge+7z/CqkgZlLYOwcPnPjDOneKXMHEUPjx7io+BETA2t0GFyuWR7thn63nj5BSgAAUoQAEKUIACFKAABSigeQI5KsD68eoG+o+ajlKtx2JWLwsM+2UeAuwdsX3tIoQ9voSRc1cgODQccdCDsZkFuoxeiAHNysLvylp0n30IMDDDvK0nUdMewKujaDVkNaIB9Jm9FX1r5sL8aaPwvwfeEGUH+voGyFWkIVaunQaTjynzLv7VBfC7gt7dZ8O3wWRcmNkCiA3H2knDcehBQoCR9KjiOgdL+9eG77HJ6L3qDUbtOID2orlTPQIeb0afMbvgOMwdc7qU1bwTlAUVCQmw9i8fiy1nHiEqFjAwMUfLSdswvlEuKfYmcJ2zCi0snmPoxBUYsvQwXCrapFnJ7f3LMXPjSfF4hnalsWLzcpSzNsX3y0vRd9FZhEWKJjKGY+v+WD62GwA/LOrdHWd9U4YxMq+DNSf+REkAy0e3xcknYeJvmuQti6UbliL2yt8Yvfxomnk7jF2JoY3tMW1UXzzwDkMsDOBQrzu2zB6Q0C7cB5Ndh+JuQMJYCY+8mLx/I+xvbMH49ZexeN1OOBYyS7sz4jO5BI1XbIdbJdu03/M9hq691yDC0hwRoSHQs82LSgaRePw9CHHGdpi4eA1ali8g7uN7ez+GzdyIkKhY6OkbwNqxP7Yt/QWx4nO6F3HmxogIC4dhIQdUCPmGR0Hh0LdN8RON8erUfIxZfQnh0bHQNzBCkYZjsXZaS4ZYWfBc4hQUoAAFKEABClCAAhSgAAW0VSCHBljD0SHmFBY/d8LGDb+KP2K2emIXnPK0xtRlK1G9wGcsGj0Od6IqY8POOTBOCrAAdBizEr+2LYcrayZh9pEH4n0VBVg9qxnj9JF/YFqyEZpXL4pdcwZh+01/LHDfhhLRT5KDM4kBVlQIpo8dCB/TBli7aDiinp9Ep9HLwQBL2NNGboDlexRdem+E49QNmNrUFlc2TcOC3YFYdmQzKlokhId3UF1sb+Z7DU37zUsTYDk2647S+UwAKytUb9AJ5fMAD6+cwLOQwjB/vw+HH5jjt6VTUDbWC24dx8KwwwSs+LUpAm6vwajfrsF1x0F0sE8IsG7nboW2Tvnw9f5VPNCrjpXLhyBPsCcO7LkD69qOeHtkGw78z1ccOLXIbQmkOxtmBsD7f2ZjyOL7qNOlIxxiX+DAES8MFM+REmDFNRoC8VnzPIimIw4mB1hj1/yDFi6dkE90xZadHRo3ageHhIvApD/EAdYqFP11B2YUOYdOk/ai0pAlmF31EzoNWSa26l9bFMMBXrfO4fbDHyhcOQ+OrVqFR5+dsPXCTFglBq1NZu5D/9gN6DTnOhpO3YDRtqLxzqSsNy4ad86dxuvv+ihU1BDblrnDT78VtuwfCTthx4GtKEABClCAAhSgAAUoQAEKUEAHBXJkgBUcCcDQHKMWr0N7x0IAPDCo6SR8rzYKOxe2h+jalISrnl5jxNaDaPB2LbovuYpmxULxMk9HbJrcBdPGDIB3SAkE+t9Bt6lb0bdeYYSHBOL7l8e4uH8Pjp1/gR8mVpizagvKwlMcYInnTf1IvAIrNjwAk4b3QUShPlg+pwvCn0gKsO6m6mkOh1o/Y/6MATB9uYNXYCXeA0vqRwg91qDppAeY/+9G1DAAXt3YglHTd2LkqqNoU9ZQboClZ5ELpoZAaFAgHKr2x4q5v8BEL+GjoTPH9cezH/nhvm4VCoXeEYdfPf9YiQF1SyWfq7xjd2Oei4E4wDr/wwa25oaIjwmDcWEXbFkxFMaxbzBmyGS89IuBqV4kAkKsZQZY4o9H7vWFnW3KDepbT9+P/o7yA6zRK47D2sYWRvpxCAoIRJ2e0/F7/0YCAqydcBVdAWic6kot2yfJYV9SgHX/4hZMnLcPllbmiIsMQWhk3VQB1iVM2LcDDaJEgVjieEEpAZs4sIuPwbndS7Bo2xVYWZkhMjQIRtbtGWDp4A8fLpkCFKAABShAAQpQgAIUoIAiAjkywMrn1ByFvS/gdfWR2DamvYwA6wUG/X0UzT6KAqw7WPBbDcyd54lZK1pg/shlqN5nCq7tWICOU7eim+MXTB0yC14RDmjbpjkCvM/g3P2vaQKsfE7t0d+lOhD0FMsW7cH3xAArMugVRrkNh3mdSVg8rhlCJQZYL9B23GTUzAV8974N9y3HUa37NIyr4c0AS16AFXAevTovRZ7hq7G4cz6cWfIr1pyxgfvJVShtGIo54wbjtXFdqVdgiT9CWM5YHHRdiSiEjcvn4PSG6XhdvB/G1/TFgO6zUXLyfsys749RLsPxtekIbJj6M76e+h1jl33A6EO70Mw24Qosr8YrsNGtEhI++nkIg/4+hbovZ6HroneYsmop7O4sxeQDH7Bg5zpUtzOXeAXW56tLMGDBXUxYtAGVQw5j2YkQ9JszUvxRRAS+Rb9+I5G3yTCJV2Alf4Qw13fxRw2/V+2Cv6f1VVmA9dfUnjjzvArc/+6NE78PxKGANti/ewQMxOuVH2DFRQRiysh++GHeHovnNsOykYPwxLovdqzuAQtFXrnYlgIUoAAFKEABClCAAhSgAAV0SiBHBliie2BNrfEGPadexUD3LehcNgp/DuyLG98cMO+vpaiQ6zvWjx+GU59KYvXhpbAVfYRwyR2s2L4W52Z2w91vVgiMq4gFcxpjxqjp4gDLJWwzui28gla/7cCEeuZwnzkCRx6HpgmwRPNK+gihOJCYdQk9luxBbydrBEoMsFLugRXkfQt9R8xAwQb9Ma9NOAMseQEWgCNrp2PPmRvJN3HvMWkVXJ3jsXlgJ+x6a4q67Sbg99GNYfgh40cIw2ISn/Om1qjnMgjThrTBpR3zsebgeYSJb+LuiN/Xz4OztRnenl2B2ZvPJ9/EvVmXAfitb0sJ98DSg3XhGpizeh4qfD2F/pPW4UNwJEpWLIEvj76gx4Zt6P6TtcQAKyY8CCumDsGlR1/FN3Gv1t4NC0d1TDWHObqOmouh7R0zfIQwzT21zHOjvdtEjOpYPfG+bLLugSXsCqyzm/7Amt3/Q5x1XhSzN4GXZ0JQmO+VsAALMeHYtHAqDl98BP3chVDALBJfQsvj7z0zkT/dveV16pWYi6UABShAAQpQgAIUoAAFKEABmQI5NsCaP6AmJgx1Q0ih9lgzZyB8/ncQg+eug5mlDUwNYxAQGILWwxdhfCfnhJu4JwZY/kcW48+d19Bk5EIMrxQh/migKMDqVPIhBvRajiALG1gbxyMoMAjRRmk/QigpwJpf/jkWbDsF0R8gtLKzhbG+6FNUEfgeGAojMyv0mLEZLT4vRO9V92BhZwdTfSA2OgKBQaFwGbUM/Up46HyAFR8XjcCAIBhZ2sFCBAggOiwAQZGGsLNL+JhdXGw0QoODEm7ibmwGG0tz6OnFISzgB8Jj9WFuZQMzUd/YKPgHhMDMyhomejFi5/ikp4i+EaxsrMV7JBovKDgIsaKbuJuYw9rSDHqidvHxCAsJRHjCRLC2soCRgbgChPz4gci4lOebkZklrM1NxF8IDwpAWEwcLK0tEBkYAj1LO1iZiA5DPIKCAhCnZwwba4uEOQDEhIcgOCwScTCAlbU1jI1Sz5HqazHh8A+MgKWdLfSjwhAUmvRnEJFQn7UVErpG4cePEJhY28Jc/IVUj9gI/AgIh5mtHUz1UrXTj0m2MjdO+CuNcdFRCAoKRryRCSxM9RESHA5L29wwjAtDQFAkLO3sYByfarz4lPpMRH/GUVxKOAKDw6BnbAZTg1iERcTA2tYOhunK4ms3BShAAQpQgAIUoAAFKEABClAgSSBHBVjh3z/i2JkLyF2yNppXLy6+WfSzYEN0bdcK5sYG8H/7EJduPkMogKK1mqFR8bxih7B3d3Dgui9adWwDs6/PcOR/z1CrhQscjALF45Wr3xGVC1vg2c1/cOelH2BXFE3K2eHi9Seo3LQ1ypiHpcxbs7RoQBw+cBnBRevhp3d7MWe/J1w6NYPovtpJD9Ev8f8cP4CGE/ehd74HOHzLJ9WpNIZd0Vpo2ag44r/cx5F/HiF/9Z/RRHR3cT4oQAEKUIACFKAABShAAQpQgAIUoICOCeSoAEsT9+7atrlYeDwI63YuRCHR3eMTH1Eh/hg7sBsqDN+H4Q0YTGni3rEmClCAAhSgAAUoQAEKUIACFKAABTRDgAGWmvfh+8eXePU5Bo5O5WBqkDJZXEwUnj70gFUxZxTLbazmKjg8BShAAQpQgAIUoAAFKEABClCAAhTQXgEGWNq7d6ycAhSgAAUoQAEKUIACFKAABShAAQrohAADLJ3YZi6SAhSgAAUoQAEKUIACFKAABShAAQporwADLO3dO1ZOAQpQgAIUoAAFKEABClCAAhSgAAV0QoABlk5sMxdJAQpQgAIUoAAFKEABClCAAhSgAAW0V4ABlvbuHSunAAUoQAEKUIACFKAABShAAQpQgAI6IcAASye2mYukAAUoQAEKUIACFKAABShAAQpQgALaK8AAS3v3jpVTgAIUoAAFKEABClCAAhSgAAUoQAGdEGCApRPbrFmLjIuL06yCWA0FKEABClCAAhSgAAUoQAEKUIACGi+gFxAQEC+tyrCwMIj+8UEBoQJ58uSR2ZQBllBJtqMABShAAQpQgAIUoAAFKEABClAgSYABFs+CSgUYYKmUk4NRgAIUoAAFKEABClCAAhSgAAUoAIABFo+BSgUYYKmUk4NRgAIUoAAFKEABClCAAhSgAAUowACLZ0DVAgywVC3K8ShAAQpQgAIUoAAFKEABClCAAhTgFVg8AyoVYIClUk4ORgEKUIACFKAABShAAQpQgAIUoACvwOIZULUAAyxVi3I8ClCAAhSgAAUoQAEKUIACFKAABXgFFs+ASgUYYKmUk4NRgAIUoICGCxy+8xGvvwRreJWaV16d0nlRt7Tsv1wsq2ofHx/NW5QGVWRqaorcuXNrUEUshQIUoAAFKJB5AQZYmTfkCKkEGGDxOFCAAhSggC4JLD75HB7eP3RpySpZa5caRSD6p+zDy8tL2a460c/CwgKFChXSibVykRSgAAUooDsCOhNghfj9iz7tZuFz4t6WbTkAm2cOkLrTxxb0xMLj3uLv56o/BQcXtoOp7pwLpVfKAEtpOnakAAUoQAEtFGCApdymMcBSzk1oLwZYQqXYjgIUoAAFtElAZwKs4K8n4X7CDlMG1AVwE9PH38acpaMk7FUsbqxcgWeNe2OAYz5t2kuNqJUBlkZsA4ugAAUoQIEsEmCApRw0Ayzl3IT2YoAlVIrtKEABClBAmwR0KMA6g20X82FkD+c0AVZkyCvMdO2JK1/10XnaZoxvVQzzft8C+9yPseHgI9hWbIndK6fD1iwe/22djt82XEF0dATKDduHjS7v0LbROHy3tYRebBRa/nkZM6rcxKjxHli0dTKM3vyDBn0PYn5PM0zddRuB/sEwz22LgnVHoe6Xa3BeugbNclhGxgBLm57+rJUCFKAABTIrwABLOUEGWMq5Ce3FAEuoFNtRgAIUoIA2CehMgBXwbCcOv3OCW+sKKQHWwoGYNXQGnGfNQtvCRvhzzGx0WzQVS3v+jNJ9d2Nc28L4fmsPuq+Ow1H3hnj28jucqzoi/vM1dOt0GO4H22DebwlhVbznMTQc5ImzR50xMzHAurJ7Btat+YrVl9ejCD5gSKOpGHp2B5yswrCw3yQGWNr0TGGtFKAABShAAQkCDLCUOxYMsJRzE9qLAZZQKbajAAUoQAFtEtCZAMv/xmqciW4F1walUgKs+f0xePo2zFk0EqILoQ78MRVxvafi5uTFGLh/NkRRFwLuo3fLdZh3eQn8/z2Bucf+B7v4QHg+s8Gu/V0xuss82FUpibjgCJT65XdMqO2NceM98Nv0EnjjY4MNvx3CPIkBVh/cMsiFPMZAriINMHmGK+y06eRIqZVXYOWATeQSKEABClBAsAADLMFUaRoywFLOTWgvBlhCpdiOAhSgAAW0SUBnAqx//qgHw65H0ayc6E82J94DSxRg9Z6AXu7r0TAPsGbidDgtmIFXQ2fCYf4CNBY1/XAZtbpfx8nNP2HsHiO4T+8A689XUL3LHhze3xULpydcgWUacBe9ft6Cxfs7YsG4E7B36YeJ7QG3VqLwS/YVWHtm/gajofPRpaA2HR3JtTLA0v495AooQAEKUEC4AAMs4VapWzLAUs5NaC8GWEKl2I4CFKAABbRJQCcCrLe39mPsgLlw7D0AecxE2/MRF8/6YOL6HSjovRurjnmiRBFTfNYrjXm/dkPom2tYuOoY7EoUgY+3Nxq5zYJLPm+MmjgXRZ3qIjLIBw9OemHB7hGYNvBvVOtQF0ZBb+ER3wXrhoWjd6e1+P30HjjGPUu8ektSgDUQn8rXQgkLwNs7AuOWTUJhbTo5UmplgJUDNpFLoAAFKEABwQIMsARTpWnIAEs5N6G9GGAJlWI7ClCAAhTQJgGdCLAurlqCb50moHuqhOjiqvG4U2MpJtfSpu3S/FoZYGn+HrFCClCAAhRQnQADLOUsGWAp5ya0FwMsoVJsRwEKUIAC2iTAAIsBlkrPKwMslXJyMApQgAIU0HABBljKbRADLOXchPZigCVUiu0oQAEKUECbBHQiwNKmDdH2WhlgafsOsn4KUIACFFBEILMBVh77fFjftzosDdPN+uoxWu55L7WUvPnyY2DzsmhQ3BL6ekBsVDimbrqKB37RipSfbW2zO8Dyu7IGLpN2plt/LWy9uQJlM6mycWY/7LmdF9sPL0Yh8a0rsv7BACvrzTkjBShAAQqoX4ABlvqNdWoGBlg6td1cLAUoQAGdF8hsgKWvrw9bc2Po5cmH3b0r4NSxu9j1NhiIiYZ/eKxkX0MjTOtdHw4hrzHr3y+IigPi4+MQGBqF2Hjt2BKNCLD+uIJF65ehvI1pIpoRbPPYIH2WqKgoAyxFxdieAhSgAAUoIEyAAZYwJ7YSKMAASyAUm1GAAhSgQI4QyGyAlYyQtyDODq2MQ/tuYINXoPjLtnnzYXy3KqiRywgxUVG4dPUR3K9/Qby5FVYNqIgnvlFoWTY/YmMjcOX2E6y9+BVhJhZYMqIeKlmkjmEi4L7iClDPGYMqWmD8uguIti+JFV3K4O7Ve/jz2jf86loPdY1DMGjrXeQpXQrrOpbAXzuv4ei7UDiULosZbYvBwdwAYUHB2HH6Po6+DEZcJnZQIwKsOdexYf8mONqmXCb16tpGDJywEWUrV8aDhw9hW7gqhv7xBzqUz4Og9zcwb+pcXH7lBxNLO7QaPBvjutWASVw0bh9ejUUb9+OjYUmUNA3A+28mKOMQhccvg1Cy0TAsG1cRk9oNhO3AJVjRrzK2je+Kv24VgPvNrXCGH+Z1d4FXiw1Y1eA7ho+dgug6U7BvagelhXkFltJ07EgBClCAAhoswABLgzdHG0tjgKWNu8aaKUABClBAWQF1BlgtmjjjlzJ6mL/zEVp1r4+fCwZi6J938cUiN9xH1oLRly8YutMDjo0cMbN6fvy5/Qqu+RmIAyy9554Yf+Yd4PATzvYtljbA+vsWevVriFpWwLX/yQmwPsXj9/41YPjmLVbd9cfc/vUQ4/MS4/a9RqSyaAA0PcBqMW4rJv4ch9F9B+NH/i7YvGoMrm6ciY2XgQXu43Fyuht236uIAzdnIbf/Xbh1H4lc7VdiZWczDO8xFE9gjmlrd6LCu7Nwm/MXek2Zjmvz54gDrHFVfDBwwmoERZTMEGC19/8b625Uwv49g5F8YZgSzgywlEBjFwpQgAIU0HgBBlgav0XaVSADLO3aL1ZLAQpQgAKZE1BngFXCoRD6N3ZAUWtL5Lc1BvAlTYD15NxlLL0XCljnxZ7R1XDvxC0sfh4pJ8CywvE3P1ArvyFyW9nB48YDOVdgRaB+9VJoVzEPitpZwsbCAK+8PHN4gPUPlp86CKfcUTg4YRg2fbbA3o0rEPDmCla678fHb+/x/r0fgFbiAMvq0SZ0G3wMkw4fRzN7YN20XtjvYY1th/6CffgLtOs5GB1b/oJrB7bCduAYFPz3OPK2KoENGz6mCbAuxjvC2iAUXeatRc/iNpk6mAywMsXHzhSgAAUooKECDLA0dGO0tSwGWNq6c6ybAhSgAAWUEVBngOXWvRHaFw3H7J3PUaFxTbgW8cOABffx1dQES4Y0RfSLh5h81gc2JYthd/ey2LL7P+z1jceaEfUQ+ey5xCuwRlTLDcREYOm+u+jXuTae33ooM8A6EWCEnYNrw+/jayy44IfJv9QAPnpiwiFvRCkDlthH06/AGr3qNNo762Hd6BG4EFUS293/wI5ZvbD/dlGsXDcYD/4eBfe7dXD0/BSYvzyEnv0Xo+38Uxhc3RCzh3THRR99rNx+GMV+3EKPEVPR9ZfBuLblL3gCKFanC7Z0N0Xj0XczBljhb5Crcn8sm94D1qYGSgszwFKajh0pQAEKUECDBRhgafDmaGNpDLC0cddYMwUoQAEKKCugzgCrT9eG6FnGDAGhMbCwMIFx/GcMnuuBd3r6cHGphRGVrBEQHg1jEyPoRX7CsJVe+GVAPbTMb4yb1+5j9mXfDB8hHFEtF25dvItZjyKxc2jaAKtNYTMEhEfBwNAQNqaGCH3thc4nv2LXkDqwMohFSGQ8bCyM8cbrOcbtf5OjA6x4M2tYmesjICAQ1Uesw7KelfH3732w5fwH5LIzQ2jAd0To/YxD12bAPjIA44b0wd13EbAx00PA90DEQA+WtnYwiolAQIg93HdPxKqeQ+CJwvjjwG60+LoBtUakDbBE98CaVuwaek8/gGHLNqNv7eLKHkswwFKajh0pQAEKUECDBWQGWBpcN0vTUoG4uMzc8lVLF82yKUABClAgxwqoLMCysISrcwE8f/oRHv4RYi8zW0u0cCwIg6BgeHyIQZ0Kdrjh8RLeoaLvGsGxSmFUsjZEVFg4zt39iAAYoUHNYnAwica1Rx/gHRAL2NjBtbId7tx8BxQtiGr5jHH+vje+xBijc7XC8PP5jP+9D0NNRweUsjFK3idTu7zomOs7ft7iCdsi+dC8uA2CP/vjq7ElShjH4PgDX/FfP1T2kd1XYIW9u43dVz6gbdd2yG+asu6km7iPWroB35/fReEyjdCqfgnxMiO/vseZ4/8ipnAZ1CpvgfP/3kOTbgPhYA2E+T3D6aPXEZCnJIJubsWpB7aYMrE+3vlGo2qrTqhqHYCjO44jpkw9dKlfFvC9jY2nfdFmYAfYIwxXD+6Gf4m26FDVDJc37serwlUxsFVVZXkZYCktx44UoAAFKKDJAgywNHl3cmBtDLBy4KZySRSgAAV0WEBlAZaGGVoXKYUVdeLhtu+VWirL7gBL2qKSAqw5B26iXhHllr5xZj/suZ0X2w8vRqGUP3Co3GBK9uIVWErCsRsFKEABCmi0AAMsjd6enFccA6yct6dcEQUoQAFdFsipAZa691RTA6zQ7+/x8Nl7lHWuh1xKhk/vXzyAT4AxnKqVRyZuY5WpLWCAlSk+dqYABShAAQ0VkBlgxcbGQvSPDwoIFTA2Fv2VJOkPBlhCJdmOAhSgAAW0QYABlnK7pKkBlnKr0bxeDLA0b09YEQUoQAEKZF6AN3HPvCFHSCXAm7jzOFCAAhSggC4JMMBSbrcZYCnnJrQXAyyhUmxHAQpQgALaJMAAS5t2SwtqZYClBZvEEilAAQpQQGUCDLCUo2SApZyb0F4MsIRKsR0FKEABCmiTAAMsbdotLaiVAZYWbBJLpAAFKEABlQkwwFKOkgGWcm5CezHAEirFdhSgAAUooE0CDLC0abe0oFYGWFqwSSyRAhSgAAVUJsAASzlKBljKuQntxQBLqBTbUYACFKCANgkwwNKm3dKCWhlgacEmsUQKUIACFFCZAAMs5SgZYCnnJrQXAyyhUmxHAQpQgALaJMAAS5t2SwtqZYClBZvEEilAAQpQQGUCDLCUo2SApZyb0F4MsIRKsR0FKEABCmiTAAMsbdotLaiVAZYWbBJLpAAFKEABlQkwwFKOkgGWcm5CezHAEirFdhSgAAUooE0CuhVgxYTj6/dg8f4Ymlogl7WFNu2VVtTKAEsrtolFUoACFKCAigTWnn+Jxx8CVTSa7gzzcxV7uDjZK73gN2/eKN1XFzqam5ujQIECurBUrpECFKAABXRIQGcCrJjwACyeOBcFO7WGA4C3dy7iuWVLzB1RHyY6tOHqXioDLHULc3wKUIACFKAABShAAQpQgAIUoIDuCehIgBWNS/N7IKLDerQulydxl0NxdHJ3WPTfhhpWPxBgWRRFbYwQHfgO70JskRffkr8W+fk53sbao2whS/g+ug5Pv2gYOzihXklzeN78D75hiUPqGcKxQnF88olE+SolYRDhh2sePihbIA6P3v9IPl3GuUuhQFwAbMtXQp4clp4xwNK9FxGumAIUoAAFKEABClCAAhSgAAUooG4B3Qiwgh5jYOsV+P3cJjiYp5B+v+OOjW9ro2ncOdwpPRhDq9rhx7112OBVHc1wPvFrBvi7V0O8bbsRI8t/QPedoTg0oRwWd56GIcdPIV+cHyI+HsOCvfqYMrYdbKLvYfyUB1i0dTLenFiA3gve4vCJBbAI88akLgvRZ88qONoZYNOYmXBeugbN8ql7i7N2fAZYWevN2ShAAQpQgAIUoAAFKEABClCAArogoBsBVsB99G65DvMur0cRs5RtDf56Eu4n7NCtrCemPHDC/hFVMwRYDSNv4NWX93gWUR31Qk/Du+Eo9Cppk/ZsfNyHqZv1Me/3rsDX8xg53gOLtvbC5f3HsGfFo4R58QFDGk3F0LM74GQVhoX9BuJT+VooYQGUqdkWLWsWzxHnjQFWjthGLoICFKAABShAAQpQgAIUoAAFKKBRAroRYLj+9LcAACAASURBVCEI2wa7oMofF1G5gGHiBsTh3b7JOFNwMIY2yAP3dj2xyy8Q8dFRaDJ+PTqJrsD6qTfsP91F/cK+4quyavgfRUCniehY0Fp2gDXuNlwq+aNwT1cs7JIYnGUIsCYlX4E1f9AINFjnjroGGnU2lCqGAZZSbOxEAQpQgAIUoAAFKEABClCAAhSggAwBHQmwAL9nFzF1+Q1M/3ua+Cbuj06sxx/HvmPt6knIZ5aSHKV8hPA4ZuyJx5LtM1Dw9SZxgNXZ/hHGPyiFY6OccGLJdBTt8QccC1sB6a7A6tRqBTpu34LehT+mXPklI8BaPmIUqixdhcam2n9WGWBp/x5yBRSgAAUoQAEKUIACFKAABShAAU0T0JkASwz//hIGz9kj/p9Fa7bFtAFtM+xHyOszOOtbCpVxHf8Zt0PfmrZI+lrn+kVw1X0adjwMgm3L8VjUuUxCf7+r2HFeD7171AMCH2Ll2qsYPHEkzCLfYNnMM+gzdwTywA/u07aj9exxKGEWiUMr5uOsp6+4e4UmfTBa1DcHPBhg5YBN5BIoQAEKUIACFKAABShAAQpQgAIaJqBbAZaG4efEcuQFWJaWltDT08uJS+eaKEABClCAAhSgAAUoQAEKUIACFFCDQFhYGBhgqQFWl4eUF2BZWVlBX19fl4m4dgpQgAIUoAAFKEABClCAAhSgAAUUEAgJCWGApYAXmwoQYIAlAIlNKEABClCAAhSgAAUoQAEKUIACFBAswABLMBUbChVggCVUiu0oQAEKUIACFKAABShAAQpQgAIUECLAAEuIEtsoJMAASyEuNqYABShAAQpQgAIUoAAFKEABClBAjgADLB4RlQswwFI5KQekAAUoQAEKUIACFKAABShAAQrotAADLJ3efvUsngGWelw5KgUoQAEKUIACFKAABShAAQpQQFcFGGDp6s6rcd0MsNSIy6EpQAEKUIACFKAABShAAQpQgAI6KCA3wIqNjYXoHx8UECpgbGwss6mVlRX09fWFDpej2+04fDZHr0+bFudY7idULldSm0pmrRQQC1x64ovLT310WqNRhUJoXNFeqsHMfXd0wmd29+o6sU4ukgIUoAAFKEAB3RSQG2DpJgtXrU4BBlgpurNXbUfTZi1gZKCnTnKdGDsoIhYhX9+jmpOjUuv1evEcTes6S+3r+fqdUuOyEwUyI/CTgz0MDAxkhv47/ueFnVdeZmYare/r2qAUejcsLXUdLf88pfVrFLKAszN+FtKMbShAAQpQgAIUoIBWCjDA0spt0+6iGWClDbD6dGkDWzMD7d5UDaj+/scIhHx7j5rOlZWq5smTpzIDrC0HTqNz60ZKjc1OFFBWIC4mCjY2NtDTkx5yM8ACGGAlnDAGWMo+09iPAhSgAAUoQAFtEGCApQ27lMNqZIDFAEsdR1oUYIX7f0CdalWUGv7ew8cyAyzRxz17d2qp1NjsRAFlBRb8tRNThrnK7M4AiwFW0gFhgKXsM439KEABClCAAhTQBgG5AVZYWBhE//iggFAB3sRdqBQg+gghr8AS7iWrpSjAivrxEfVrOCk14E2PhwywlJJjJ3UKMMASpssrsBKcGGAJOy9sRQEKUIACFKCAdgowwNLOfdPoqhlgCd8eBljCreS1FAVYsYE+aFSrqrymEr9/5dZ9BlhKybGTOgUYYAnTZYDFAEvYSWErClCAAhSgAAW0WYABljbvnobWrsoAy/+dJ7w+G8G55k+Q/bcNNRRDTlkpAVYcvD0eIjp/CRTPF4tH914jKrGvkbkNSpYuBxtT7VxjVlUtCrDig3zRpI70G7HLquXidQ8GWFm1WZxHsEDWBVh2WDLJGZEfAhATZ4ifHCzwx7oL8ArOWKqBsTFa1CuPWnkNE74Z/h0rjr/BD8GrUn1DdQRY+kZGmOBaFXcO3cWloIS/xmxmmwsL2uTHrN3Ps3W90gR5BZbqzxZHpAAFKEABClBAcwQYYGnOXuSYSlQRYP24fRnzdy/B3Xs/EByhj1wVS6FNs8kY2b0MDHLQ/c5TAqwgrO0xAAFtxmPUz6EY3GMxviWeCH0DI+QtXA9L1kxFAYZYUp8nogArJsAHDWop9xHC/24/YICVY16Fcs5CVBpgmdthfu8SWL3FA75JCXkylR2m9C2MVTseIyzOErMm1sRuKQFWyZJF4RjwGYf9IjUGWh0BlmhxJiVKYZFTNCYe8hb/R4VWHZvB+tFN7H8dojFrT10IAyyN3BYWRQEKUIACFKCAigQYYKkIksOkCGQuwIrD2/PuGPD7MVRt0xHGH67gf8/N0K1jSdw6cRoWnRZi9chKuLbhMGxbtke1fMDO/cdQsGITNK1SEGePH8S7b6HJxZiYV0Q315K4sOEcSrt2QWlzk8TvheLy3l3wCkr4v4YmJihubY1vsIVJ0Ft8MbBBm3adUdg6ZV3eHhfwr8frVFtdAt0GN4N1dCSuHTkIz4BolHCqh3rVS0IvzAsHd3qh+WAX5JNxOKQHWDsxdM92NMgDfL17CCOmb0ffRX/BxdGeR02KgCjAivz+EfVqJNzE/cP79xg6qL/Ue/gNHTEK3Xv8kjza7XuPGGDxdGmcgEoDLIvcWDukNOa738CHDNmTHSb3KYTVO5+kCbC+GOTCxJ+LwvNDBCoWNsKaE8+Qv2JFNHYwQOSnIIQYWgKB77DFIwh1mlRBXZNAfIk0RJ0i+pi51xsTR9TEl0cf8CnWAJVyx2DZiU+YOMIJu9Zfw5MYSywe4oxt+x6iTOm8qFDaHkY+vnjyIxiP4/Ki9rcXWOedIWmTuEfqCrAAI3RzqYJPt+7jsXEBrGyXH1M2eeBTlCnGj6kF/Sc++GGRB3l8vbDgTmBGg22v4TqmAcxevIV3uD5qVsqHY/vuoZWr6g1EMAywNO4pzIIoQAEKUIACFFChAAMsFWJyqASBzAVYkdgxZhAuGLbBhiU98N+GafjziB0OnJkA/2vr4TbmEtacX4g9zXqh2PJNaGl4G/3GrkR9t8WY268axg7qgZtvwmFjaYKIkEDoW3bCgTOtMa3aJLic2QuXvFaJ2+SHpf174tDTH9AztULeArnhbGGO48+8kMvOBtGhQTCoMARH1vaFpX5Cl0sbpmHSxivIldsScZGhCAiqjYO35+DW+NpY5WEFK3MjBH7/gV/+3IX+1d5hmOsFTD+zAGUyGWABgdg8qDu+uizElPaVecxkBFhhfu9RO91fIezwc3OEp/pDFLZ2udC1R0906ZYSXomGfPDoCQMsni6NE1BJgGVsjt/710BZcyPYWBgiJDQKr1+/wqzj75I/qgybQpjdyhTz9r1GJFKuwMpVoypy33qMUyHRyOXkhK5hb/CwSHm0+nYPsx5GAoZGmNmvEo7teAi/6Dj4GxvB3MQIbp0ccf/UI7RydcaJXbfxPMYIEzqVwpbtLzBAHGD9B4OateBaNg4nd93C+UCgXeuqML9zD3v9gMrVHdE49C12fIhGfFwsAkKjESdjd9QXYAG5CuTFukaWOBRih4jr93DsOwA9U0waXQYHVjzEj2LlMCDvVyx9GIDCMekMDt9H5f4N4LHrX1z2N8Svrs54/s+TxABLtQYMsDTu6cuCKEABClCAAhRQsQADLBWDcrhMBljxkdg8ZgCuWnTEhnmdcS1VgPXj+mb0H/0vVp9LDLBmjsbTvdsQ/sYfBfrPSw6wwh3Hw318ExxbNBxrLpVIDLAGI6hmVeQ3NoSxaWmMGu+GQhZf8Wt7V1h3mYW5g+ti99hBOBJRDdvXjIT38aVwW/kv1u8+AUf7hKu2RAFWUpjmd/UvDBjrjV3H26FP56kYs2QLOtYqiENT22NrRGucWDlW0FEQcgVWUoDl23o+pndS7uNxgorR8kaiK7CCv75H9aqOaVbi8+EDhrn1FH+tVJlyWLBsDYyMM95R7fmzZwywtPwM5MTyVRJgJcHIugLLvhgWVovFtOMfEJM6wHJyRJTHM9wLjYFtYlBzybAg7J+8wMngaEA/MZQ5dg+WDSuicnwEznoFwKVRCVw+8gCtXKvj3rln8I41QlsnW6w/6I2RI5xw/swbFIgLhFXNinh+THKA1cHEH2e/RqNopZ8QduMRTvimXF2bfq8zG2D9VLUS+pQyQVRIMFb864XQ6PiUKfQN0KVbAzSJ+IjhR18mfN3CGptdC2PK+meISgqw7gShQ7t0Bns9pAZYqjZggJUTXwG4JgpQgAIUoAAFUgswwOJ5ULlA5q7AisPDfXMwYvUtdBwyFqae+7HvhiWmjK2KE+5r8Lnab9g5pwr+qNYD70tZwKpcZxS9dgBhXWYkB1hRNX7D6hH1cFRigAV4P78B21YLsGVIGQkBlhPWrxmFL8dXw23lKaUCrF2x7XF4yQhBrkICrPDvd/HbL3+g3vw16FLVQdC4uthIFGAFfPaGc+W0AZbIIjg4CKuXzsfUWfOl0rx66ckASxcPjoavWaUBlqkVhrUqhIOnPPEtOvXC9VC3WQ3U+fEUiz1E93ZKuQLLvGJldIh4g1n3Q1GpaQ1UePsU1+NywdU+FCuu+yHayhZzOhXGX4c/YF6vopj49yN8NbfFor6VcGp/ykfl7kcYYnzvqrhz7Cna9a+OLzdeYPGtbwlXJEkMsColf4TQvmJldDX8gJUPRJc+SX5kNsCSeQz0DdCodU3YPLuPY2/DxU0LFimEkYVDMO1GYHKwt9QzBrvTG+y4IyXAUr0BAywNfzKzPApQgAIUoAAFMi2g4QFWLK66j8HkXR7JC+215jpGVM30ujmAGgUyF2ABiIvE6zPHMWf3Ujx+EZNQacGCaNV8CiYNrg1r0w+YXK0zLhRshkMHx+NAh+740XEMSt9zx/oHP1Bz1BYs71kBh9MEWP3xIrcdTPWB0CB/lO25BBvcfsoQYC2//gI2draICw2GQYXBGT5CmOEKLAkfIew1Zw/6Or/N5EcIlyHCzhbG+kBsVCgi9ctgzdZFcEj6PKMa909bhxYFWP6+b1HFsZJSS3j/xosBllJy7KROAZUGWFIKtbQohDWjHGETFYVw8R/b04eVpREeX7mNGf8Fo0/POmie2wBRb59j8AlfREMPFRvUwIwqFoiOi4f7wf9w/VMUWrRvgkHFgdDIMLwON4TXlXuo3r4uisbHivt8ffYUEy8HYf6Ievh373n8+1lPRoDlhJkNcyMiJh6xcWH4Y+NNvAxLdVVUurWoK8DKV64sVrQqgnCvRxh6+gvEF2ZZF8C6wZVRALEIi4mHvqEhzPXDsXj9VZg1Tmuw84I3FroWxNQFt/EKqT9CqHoDBljqfCZybApQgAIUoAAFNEFA4wOs8wv7wcN5KSY3ywcEPIfbL24Yu+UKKhUw0gQ/1iBBINMBVqoxRTdOF9/E3bUOzJK/HoDzG/YjompLuFTLh+s79yO8XE1Yv72C+9+t0bxXDxS3AJ7/dwq339ol3sT9KHwT+xsaF0L7Ti2Q2ywcp/cehkn5RmjqbC/+COHZcGd0rG2Jr6KbuLt2RmEptYS9u4tjZwPQaXAzWEV/w+Uj/+J1pm7iHoU7B48jolRt1CwVjRMH/0PSh2XMchVE3YbNYZ90+y6eOokCogDrm89bOFasoJSQ77tXDLCUkmMndQpkRYBlZVUEfcqGwf2Of/JSrKwcML5mBGad/6rO5alsbHUFWBILTHO/MFHel/QxyoSPQmbngzdxz059zk0BClCAAhSggLoFtCvAiv2GZf17oOmCU4i5shJ3Sg/G0Kp2yUYeexeKv5b75ETMO/0MZvpAdLg++mw6gaHlwrC8Xwcc/WAAxwHLsdatFi6vnoAxO27A0iilXYGTixHnNg/dCwMp4yV9LQ5nFo9EedeRWDl8IG58DENojBEs85fB8aXNsOyQBeb93lXinkWGvMJM15648jUe3abvxJiWRbCw3yQ4L12FWg/+RKM1gdg+qxT27/DE6Vu3EV2wA07vngDTp39jg1d1TO5RFeEX/8Dw/2PvLuCquv8/jr8UxW5nd9eMqXMzZsz93OwZmy0zsXUKqICJKCp2d8eMberCnE7dLOye3ToTlBT8/y9loTIEbr3v48HjsV3P/cbzc+49hzffc+6uYoyre4t67RcRkiwxhPjxTbPupD42lzknAnjkHUTqtCn5ZuAs+tQtEdf7T5Ttx2aAFX8TCAwLsKjF7PEteP0OSXEzkueXENrETQdW1KohwLp99QIlYhhg3bl6XgGWFe0v5jLV+AiwUqbIRpOCfiw4/CCSxbAqq/NHAXjuvGsWVPEaYJmwiAIsEy6OhiYBCUhAAhKQwHsLmEWA5b7XhgIZbcHvLof+rc7m33twPjysijrAej2ESvnreAKb9aFdgeSsdHMim/0IgpYNYv/Hnjh9ElVY9fpzX95bxrBZe8nffghdP0rHg4MzwsOlsnBtJQPnJYw6wArxZ0b3XiTvNpY2xZ9y+uRDihTOHBpgFepjx/xhPzB5+WhSn5pMr8VpmDq+JT5/jGbOiXL0qHg+tI/eNVMyY9EirjwujUvde1H3e2cL3ft6MXqBE8mNmIeYZ4AVwvUTR7hDJkoVz074Fw++9xvsXQ0owHqXUPT/3RBg3bxynmLFikX/RS9sef/GxXcGWI1qVSZFihQxal8vkkBMBOIjwIrJuEztNQqwwiqiAMvU9kyNRwISkIAEJCCB2BQwiwAr8hJC7jC9UWtSOM6k+KX5uP54hRxpEvP0wQf0nj6AoC1Tw1dgvR5gBW6bR6N+fUMvCYtYWVVol1sUAdZAFp4LJltSeHTjJlWGLSLzhjE8beNCiNchigTtilz59WqA1aDVEjIXykrg3STUH+JEw5I5woKQQB86tfCg12o3Ii9uCvbFw64NO5PlpnNbe76sVJDHLwZi7MGl7z76trQNDau+yHWNQhl9cF+RBAcFWLH5HjBqWwqwYo/fEGBdv3SOwkVjFmD53L701gDr4cOHJEqUiB837Y69QaslCbxDIFnSJDSpXe2tWy3ecZYlf4Z/O56ViirAUoBlpbu+pi0BCUhAAhKwKgEzC7DgzjoXVqRsRaU7P0cGSf/umcj8K1X4PGTzmwOs5YPI+f1kvs4Kf0x15WEjB9KsGhrtFViPqpalQu4vCNwz/Y0BVsQKrJAbv9Gt/wk85/cLWwkV7It72/58OmES1TOG71+hAZYjZTxc+LvZN5SZtoEqgQtx+7sEnt2qw83VjF6Rio5VLzLrb39yFmhI8+J7cZ6XUAGWBb1FFWDFXjENAdbVi/9QsHDRGDXqd/fKWwOsZ8+ekSBBghi1rRdJIC4FFGCBAiwFWHH5HlPbEpCABCQgAQmYhoBZBFizbxajUj7DZTv+3HuUiM49e3Dzt5FMPpKEj7Im496xQ1R2GEP6g3PfGGA1TLKPQTO2UqJgOi48SsUIx5bM7vk9WV3nv+F+Vy9eQvg9G551YMbgSpx84dLFV1dgteq1jY+rFufJhZMk+KQrDs1KEnYlXwgXdi1j0s+nyZczKbcSFMK9a93we2BNoWbgbrpO2oFTszS4Dj1Ors8LcOefW7T/3plCDxbT3jOYGUt7kyn8MkWtwDKNN09sjMJtyiIa1vkyNppSG8C+I6cpUKhwjCyCHlx7a4AVo0b1IgnEg4ACLAVYEbuZLiGMhzecupCABCQgAQlIwGgCJh5gGc3FKB2/FIgZZQSx06l53gMrdub+X1sx3N9GD9MQqFyuJJXLlzSNwWgUEpCABCQgAQlIQAISkIAEJPCSgAIsE9ohFGCZUDE0FAlIQAISkIAEJCABCUhAAhKQgARMRkABlsmUwnIGohVYllNLzUQCEpCABCQgAQlIQAISkIAEJGAKAgqwTKEKFjYGBVgWVlBNRwISkIAEJCABCUhAAhKQgAQkYGQBBVhGLoAldq8AyxKrqjlJQAISkIAEJCABCUhAAhKQgASMJ6AAy3j2FtuzAiyLLa0mJgEJSEACEpCABCQgAQlIQAISMIqAAiyjsFt2pwqwLLu+mp0EJCABCUhAAhKQgAQkIAEJSCC+BRRgxbe4FfSnAMsKiqwpSkACEpCABCQgAQlIQAISkIAE4lHgnQHWs2fPMPzoIYHoCiRMmPCtmy76cTNP/Pyj25y2k4AEJCABCUhAAhKQgAQkIAEJSMCKBVIkS0qrBp+T4OHDh0qorHhHiO+pT1uyjt7tmsR3t+ovmgJHT5+nZJH80dxam8WnQGBQEN6PfcmYLk18dqu+oilw8epNsmVKT5IkSaL5Cm0WnwIBAQHcuHOfvDmzxme36us/COw+cIxK5T78D6/QpvEpcOjEWcoULxSfXaqv/yigc7j/CBaPm+scLh6xY9iVt89jAp8G6zw7hn5x/TLDefa6Lbvp0rK+Aqy4xlb7LwtEBFj+/lqFZYr7xoY/9lH/808ICQkxxeFZ9Zge+/rxxD+IzOlTW7WDqU7+r4MnqFzuQ2xsbAgKCjLVYVr1uA6evMBHxfJZtYEpT37Gsg2hf+DS+YFpVunHTbuxa1qbR48emeYANSp0Dme6O4HO4Uy3NhEjU41Mu0aG8+xjZy/RvXVDBVimXSrLG50CLNOuqU5+TLc+OrCabm0MI1OAZdr1MYxOAZZp10gBlmnXRwGWadfHMDqdw5lujXQOZ7q1UYBl+rWJOM+OVoAVHByM4UcPCURXwNbW9q2bKsCKrqRxttPJj3Hco9OrTn6io2S8bRRgGc8+uj0rwIqulHG2U4BlHPfo9qoAK7pSxttO53DGs39XzzqHe5eQ8f9dNTJ+Dd42gmivwPL19cXwo4cEoivwrm8hVIAVXUnjbKeTH+O4R6dXHVijo2S8bRRgGc8+uj0rwIqulHG2U4BlHPfo9qoAK7pSxttO53DGs39XzzqHe5eQ8f9dNTJ+DRRgmXYNLHZ0VhFgPfVhy9rdlGxQneubVnLswfNylqrWkFK5zPceRaZw8hPoe579Z5NQqXSOMFjvK6zcdJv6TcqTzGLfOe+emKUdWK8d3sz5VJWomj85EMypPzbyOF81yuc2/L/5PSwpwAryv82vPx2lUrMvyGgoRcAd1q/5gzJf1idHevN9FxozwLp96FdufvAJpXOkj9y5z+9cTnChuhTKnMr8dvg4GHFcBFhXjuxk+5GLkaPNXalJ+GdOHEzAwps0lwDr7L7NHLj4iC/rNyF9sqec3rKWhCUbUChTEnwv72f1jitUalKP/MnffsWAOZbTFM7h3u7mx/7V6zjlGxC5Wcac5alVvSg2Ubzwztlj3M/6IRmv/cG/H1SnaEbD4egsK3/fE7a1bRpqNaxN5qSJTb5csXoOZzgmr/ydF379IG+palQplcvkHV4eYADHN+8kd/Wa3Dz6B3lKVcfWBm4fWs/GiF+u0n3It/XKEB9fjxOrNXrPShh+F1q/ejdPXmgnSfKiVv27kFZgvedOpZe/WcAqAiy/6/RvM5pWc4ZxcFAHSjsuomR2wy91txnUazx2Y0eRz/SPpVEW0RROfh7f28S09alxtPskbIxXd9PI4QhzV3QlnRW/+UzpwBobZfC/dYIOI3YxflxHUvtcp/+inYzv3SI2mjZKG5YUYBHsz/zBvfGp6kqPL7Jzafs8XHdkZ87gWiQ1im7sdGrMAMvf+yRu888wpNfXJDJEtvcO0aPLJBxmzyevvlg0tMBxEWDtXjSK4x/2p3MZOLdnAWu96+H4vwyxs0NZWSvmEmAZynL/j3HMeFCVgY2K8XP/Nti0mkOdguDi4E79IR5UeJ4jW1QVTeEc7u2gD5jWrD2lxqylUk7g9Bq6L4VxwxsTZZzocxqHjkO4WrwRK1y/AYKYNmshXTt1MLu6xeo53KPj9OqwBMdFowj99cOMH96nVtB76E8UbeOGQ+0C3Du0HqejuZnTtmS8zypWa/Seo9fvQq8DKsB6z51KL1eAFXWABdd2L2Pk5Y+Z2qKAWe4mpnDy87YP7Uf71rJg/SEMd+YrULcPbSuk58zW+SzZfoEsJWvQrXElfl0wg78v/hvqH/pc0+rgfYLxY1ZwH0iVvwKObf7Hrwt+IHeTVhRPDfs3rCbkk/rcW/f8uT9WLSL5522okN6btePHcOg+lKzRgqbVixqltqZ0YI0dgCAu/TCSDUn+R+FT80nTchwf50wRO00boRWLCrCAwHu76O+0hcFTXFg8dQR1Owwmj5kHLcYMsAgJZO3Yodyp3AX7ijnYudiNP9J2wLnqPZavvsw3drWx9b/M7EnbafR9W3wOv/5Zd+/SPqYvWE/AByUZ3q0xJ35dwIq/n68uSp3vC4o/u/Luz7XqzZ5/1t35Fde1d+j0TS6O3slHnY/zwLlfWXD6A+zqlo/Xd1LcBFgzuFvTngbZXg6wnlzazIS5f2L4PuTMn7WnXtrjzFm39/l8M3/GgHaFmDdyDreBpB/kpbe9HSlsE0Zu83I9moY+/9pz3idYEkV9ufFiLZu+dIwytPNp2+HULgCXXj3mFb35ensdyvHbuvB96P4p3Obso8v3bbm7M+zYaHgkSVEg9LkM77HoyJwCrKAnt+jntAiHKT3wCg+wPkv6B1P2ZGBgqyqhJvs3LGDd3vOh//1pMwdqZz3F6r8S0sSw30fUrX4G1m04w5Hz/0D6Mjj0aYQpr7E3hXO4mAZYN/dvCH8P5qPz8O/IcX/v83pc+4tJmx5iX9+GNT/e4+SVU8/rVjw1p/5YxbJtR8O7Tspn7XvzRR7TOp+I1XO4qAIs38vMHvc7fql9+NfHlva97Ul5ZTfzL+YMDYYC711i3M5HfJ7oUOR+D2FWaY+veu25SL83fIZFdYyKqH3U9UjA5ikj+fM2ZC/yFR1aVuSQ4dy7YpPQQPnM1uVcyV+fkN3ryVIsAavXHn/hc/c+K10ncjxy58pMhwHdyfrsEjMmzOVf/zQ0cuxOmVTv9ye2WK3Rex493/i70Kyq/LJgD5e8rxNgm4s+jnYY8viojkc3z2xl9pLtGL4XO/IYwD0WjpvOuScB2CRJgV2XDhxctIC8HbrzdMcGQio2IuWeBey8+GNFiAAAIABJREFUlYnEd25Ss2dHctv6s3TOUkq3aB/6O5OxHgqwjCVvBf1a9wqssNVCTcZeY+HEbzGtQ2f0dj5TOPkxfGiPnHGDep8XCRv03ZOMXuLP3EVf8vu8v/m6Q0tCLm+j48BDTJzxJb//GHbivmLUaIo79WCv0whK9Hfjs4wwb+gISg1yxGfxbGxrdKViDpg3eBCFHAdwdPDz7TZMGUVwg15cnxj23MdPdzO4/0Iquk0heNnzXzoXTxhF8e/685ERfpE3pQNr9Pam6G0127UVf+ftz7x2JaL3AhPdytICLAPzkR8n8MuJq9jkb4JT809NVD76wzJqgGUYpvcJRnr8Qg+nVkwev5jOg51I772XIUP+wnF0H5I/Cf+r+pxO/Ln8lc+6BY2Y5TKLrm7DubnnRy7mbBoacBC5IngiJVL6Me2Fz783fq4Nnxj6WVe4R2d2u7rTcNx0ct9cxJJLpbH/Ihurxg/heKovceteN/q4sbBlXARY2+fNIKChPbXSvxBg1Qhi2ejFVO/pQAa/03TqtILBq4aQN8HLfkc3LeNavhahzlunu/KkviP1s4df7vn4DEOHLaf3MBce7l+Ow/asLHXKz5gBr9Qo7Z+4jDqOs0dXkj0Or++075gz5pXXdrFlaPh2ia9s55sBJ6M+5k0qz4Qxr7Q3rjbTJ4Y9d3zDRMYtucnYcbWZPG4fg8b0e75fvedqDXMKsOApfy2dxuZHGUlz7AdsqrXH9/AuGvZ0pXDWlOB/nJXr/+XbptXxPrSEwattGNU1OeN/tKG/Yb+/G163Xtnp6rgH5+UjCPhpHCvufsKQ9pWxSRALO3wcNGEK53AxCrD65WXo1P2MGNgZ7xM/4PFLIga3sGHcTzY4dfmCTfNH8PPpLHh+A83GX8Vz+UgKcI1pDtOpPXgw19eO5UjxgXQtC0fXT+Vwnla0+dAIJ2pvmXysnsNFFWA9Ok7nZi7UGT2dSin+oeesy8zoXZzePX/BfakrfgfXsMWmBln2zCS4Uf/QUD/CKv2O6a89F+kX8V548TMsqmPUsr5kDL8OdPci99fqkf/YAn5NW4cRtQuwfclIgiv3wG/DlNB+v0pyFM9Bk8liPxab9Y7sftIAzxG18Tm2jsEbUjBxQCEmN3Kg0dwVFEgafhXMFAfWuw6n7lBPCtvepJfzjziPdyTHe6xIi9Uavef7+40B1pQSOHRcROcFU8h08kcGbU7JzF6F8BjxyjHFtSaX96zlSIaaNM50JXLFHv/8xp7gyjQuk4pza13YkbE13+b3Z8iKe3ySZB8Jv2rHyQ076NmpIu6hVxtNJNudXxg4cB0tps8M/d3KWA8FWMaSt4J+FWDtpumk2ywc0whzvJOPKZz8GD60J/4A9t+UDXvH3NhPxxEXmLvMnjQ+V+jWdxAPvJ8Q+Kwgkw0n5Alu4d5zADfzVGWc07fMdurJlis+GP5QnvfTbxjWqxE2z55xaJUbY9aewP9JIr6bNpvrE59v9/w5Q4DlwLk1B0nrvxfqduHvkR25+Dhh6GU/gb6PKdppLiPqZo73d7MpHVhjb/JHmeW+npOnQ+g/y5Us7/fHs9gbVgxassQAK/juaVp0XMWoH5zJm/j5ypMY8JjES4weYAFeP05k5Z9/UqzBWOyq5QXuMPp7NzoM9yT90zNhJ5kL3Mn69JXPOpdP8FgVxFi3pi9favNagPXuzzWbRoawviebHqXFc6gLebOlwedYWIBVu5gvKfyvMO+P5GG/yMfjIy4CrA1TZpK1e2cMR5PISwhrpiM42I9xQxzxOncH74fpGP3DrNcCwJCQEB7tnESX6XsI8n9GneGzaBfxS/HpNfTbkgGP7tWweXiU7h1XMtC1/P+/V16p0d0/+a7NGHxTpyBBSFDYcWtgecbvfuW142vh3Clsu2dBSfnabSrfFk4Grx7zxtXGpfMr7UUGWJU58PtlVi/YjeOCXqwdOZm2LsNJHXAqVi43MqsAK9ifhe4DuJCvIYUPTsKmUV9OjppM8SEj+aZsHggOJuT2QVp874lhdWSqXDWZ1Cs7HbvO52mKpC89N+HHhAzoWQ9CTuLR6we6eQ4h5XusZIvLt5QpnMPFJMByqnCQLrNOkTL0vmRPCUmZl9kDPmX6b7b0sMvMlSNXWfrjLZy/gbEni+NqVzW0myM/T+FYgdbk9ZqqACs01FqI48IxZE92n8nNO1PWcwW2v/UlpMZQ7u2cTplGfTiwcPx/DrBe+wyL6hj1QkAeVYDls7Qb2y49xXCHlaeBvnzQYCR1fNYT3KgvNvv+JtOzY5wu0ArWT6Wgw0A+NWzoex2Htp7YzevDL21fDrAafF+LwUOmkzZdChISwpMHD+kybg21i8f8npKmdJ79tgBr7KijuHh0J1mCK4xsMoBvHBsx/cArx5TFI7i3dSH/ftKYGokuRR4DsiUJIcHxxTRz/42QoEDK2w3BoW5xvP+cQcuxv5E4bSYGDptAuSw+4bfLcWLvkhP4XthBqQFhiwOM9VCAZSx5K+jX2gOs4xumsDi4ER6GP22Y4cMUTn7e/KH9Ie7D/qKZcy/KJjhO226rcX/hgLlhyhAe1HDCZ97zlVVLRgwlezdHTk4cR/pP/0eTmuX5afxQbL9xjFxtZfgwfnGlQvoGtSlSsAzXVk8kqE5X9k2dRJthLhQ1ciJpSgfWWNm1/e4zyXU4ZXoOJf0Bdw6lbU+rGgVjpWljNGKJARYPztGs/VrGrHXEcLsSc3+YQoDlc9mL78buYtrYXmQKvyvt/WuH+X3bUZ4G3GHrpru4j6vDhDGvfNa5VWP8gjuMGNGGJC9midFcgfXi51rEatMCndqyadRc2o4aSq7bK1lyKj15kqfif6Uf4vlT+EqUeCx6XARYUyaOp22vPhh+pYkMsD65SfceK2nq3J2qWf2x/86T7nMnvb6Cbe54bqT6kOaNanJ27RiOFe2E3QsBVvc1zxg3oAm2dw/wXffNeIwsw+g5r9QoqtULA8sz8tdXXjuxEpM8w1ZRJbyxC/u+O/GYVJkx7q/sBy+stopc0WV4zvNvSpTKR406RRnRLezeOJxYy8AfLvF5wZCw/cqKVmCd+n0os498iJvTV2wOv4Tw83Qn6TbyZxyGjKJo4M8Mmn6NFo7dKPLgd3pNusCoXtmZ+PPrK7BG/xDI4L5NwdeLUYP30GtUN5JFdcfxeHyvvKkrUziHi0mANbTGWWZcr4Jzq8rPX37jZ0Ytv0fBD9Lxvy8y4GF4f7gUZeGqEOw7fh66ndcPE7j8cTsy/zlFAdaj4/RsP4W+82eQO9kdRrZwp96cCeR5uIVVB+7hc+wuHV26sXX6qP8cYL22ijSqY9Q7AqyADRMo3X0w5V/Ilwzn3o8r1SJ30kykOPdT6Mq57HuWk7CZPdUN2/lcxv67OfRb2om1zV8OsJr2r8+IWaeZM7Ub6Q1/YY6FhymdZ78twBrltodBYx1JEXyOQa1mY+/8Me6/vHJMWTaAQ4vdKNrUkVzBZyMDrHt/zmTrlQ9o2aYRib2msPDeZ7Qv6cvg5T6US+mFba2WHFm2hV6O/2Nsm9GUblef0p9WZJvb89+tYoE6Rk0YOcB6xuMH9/ENMtzFJuyRIGFyMmRMifn/fTdG9fhPL3oWEoRfECS1CeFJcGJSGc5kn4Xw4P49goKfhbaVLFU6UiUzzl3ErS3A8nJtR/7OkygaunTkFhNGrqX7WFfif33Of9qN3rixKZz8vPFD2y0PA2eexsWhLXt/8GT5jiAmuFZn3JoHOPT8kg0zJ5LTbgDnxw0jT+d+odfU/zhzPh87dGFD/8GUth9AhcAt9Om/noaTZ3NrSlSXEHbnfPrGjBpYm42GywobOZBlsxtrH5anb6sKbJg1iezthlLLCAU2pQPr++9tIRzfNofFt6rg0aIowf7euPYYS5MJLnyUwkT/tP2OSSvAev+9Iq5bMGqA9SwE70cPObZ5CddL2PFN0ShuJBFxWcigz3Bb9Mpn3cIBrB05gtqdHLi17weWPK7GdMNNbqMVYL3yufbC5dKf3VhI/z9S4VjjIZ2dLzFy3TAKGH5xXGvuAZbhL/J/Mm7CGbr2bBK6a13y+oFfH3+BU/kH2DmtwHnMQLz3zMVj1hmGrZxLyVQvX0K4cuwggr/qRS3b/fR3WECFITPoUDpt+G56n8mur9Yjx+vP1Xn4+iWEixxZ6/7Ka+s8ZIDbAboPbEvS2/vpPvE2M/p/QP9Xj3me9Zg+6fVLCJ07zcZu6Qyq2VwM/UXl+1n2LHWbgP2wMc9X9llJgBV4+wA9Ok+g54w5FM/yLPIm7nVLpGTv/MEsOluMMd8GMuyPZDi0rMyKiSM4GlCMCb1yRhlgdez8O+0XD8Vv2XhO5G8fej8hU32Ywjncm23uc3zPaRZNWU+76SMpYggoIm/iXhn3PhNo6tKPLOd+Z/DvTxnbLi3tumyh/4bJlHwhCF42fDD5evSk5P29DJ24H7exA9m/eBQXKrjSsaR1X0LYqakz5ZyGUCnZeUYfyMjCntUI9n+Ec4/vSF5vNIPqFwj7g+37XkIY5TFqDNlD/9AbzNbZ7q/V4+Pbq3HblAwPp1qcXjuVO5V7k2qrG0sPF2fGnLZcDr/08+vE++k+8gSDx7Xi5rbZrHvaALevE+HRcjgt5i0in23EF2m5ccy9C4nqD6BG1gC+H7qaAVPcw/arGD5M6Tz7bQHW961mUX/qSDId/jH8XOCVY49PVcY2CmLaoD9pYTim+J5mUN+19Jk7ioe/jmVf7mZ8m/0Wg/t6kqvNAD6+vZlnTXrwZNnksN97fnNlzwcNuLHYnQ+auNCvSYmXbk8QQ973fplxA6xgXzzsupG4UWtKh1+enNg2FxUqF4j6Gyjee7qW1UBwwL9MHuzOkScJ6eowjPK5UnDut7Hs9i1KznRhF/7mKFKWQtmMc+23VQRYwf6cOnyOHKWK8ODEAW74Pd/H8hYvR+ZUsfSnACPsuqZw8vM08F8u3U5EgZzh3znod58DJ70pVTYPt07u4bo3pMmclcT37pK1VFkeXz7ExbsBJM+Qg5IFsnLp1HFueYcVJfS5gjl4fPMMxy8bvnA4GVkzJ+dZunxw4x9SFSgSelPb2xfP8SxLXvwvHidJrlIYbpER+lzWAmRJGsi5Qwe5G2DoNy9F8xohvQJM6cD6/rtmIOeOniJT0RKkTmz4U3YIN8+c4EGSbBTNkwETvb3IW6dtkQFW0BO8jtykWLkCvMdtJd5/d4mlFowZYD0LDuLU8cM8IQWlSxQlcVQ30Xnqw/Ej1yhQuij/nnn9s87G7zbHTl0kOFkGPikZvlox8nhUglQ2wVw6FY3PtdDPuufb/XPqFFmyp+DGo1QUNnzu+t/i3M0EFIjnz7rYXYFl+LazgWTo1JbckatnH/Pr6EnUmriOQn57OH8fkqXOQEq/R6QrVo70SV/287t/jSNnrxluf0v2vBkJSJiZAh88D9j9vV+vx2vPBd7j9DkfChbNg03w8/ry5JXXBt7j0MF/CAjf17MU/ST0SxOuvnrMK5qHq5dfaa9YJs6fu0vh4oVJFBLWR5YsCbn+KAklXuk36XusHDKXSwjvX/uHC7cTh54zJCaYW6cOkyBHqbBzM4PzkWvkL12C26f2c883ARnz5oQ7PuTJn4ZLt8P3+4i6pTnCmGXeVKtSEFJn55Nipr0W1RTO4d72cX373CFu2eanVK7wAP/xTY5dh+KFs/Lk9kVOXDR8ZUISCn5Uhgwhtzh19SlFC+YIrVvE++jZ49scOBH25RVZCn5EngwhnPI6S7ayJTH85uN9+xLeybKTI7Vx/pD/pvnH6jncC8eKyPe04Q8g7RbSoH9zktsk5qOSxbFNlBCCDcG8J+WHuFD+pXPb51aJ710OP9+Nwu8Nn2FRHaNShJL7v6EeCbhyJOx3pmSps4R+Nt29dAq/9EVDP+terJv3lSOcvOGHTbLUocdL/7uXOHMtQdh7+oVjXvJn3hw/fBK/YBuyFStNrveseazW6D3PW974u1DuKwwdvo8vW3xGomTpIs8FXjr2FM8RWvNMTWqSI3wcTy79wYkUdehSIydHTpzhaUhichbLhd8jf4Lv+5CvRFHuXzkfth88vcmRS4+w8fchW/Hyrx0b33NqMX65CQRYjpT1nELNTOFzeBbMucMneZosmBs37ocGMAUyJeXguRuUK2K4RwScvXCevBkS8rfXRZ6Gvyx9jiIUzxwQxXNBXH6clgLZ02C4BOLwv8kpnjmIyzcfc+XGbUiVlyrl85KYZ9w9d5ijVx5AlmLUKJaFoEcXX2qv5Kc1SBN4Oay9D2zYtdeLTPlLkzfF/cjtUuUtS/kXvgf70fXTHDxzg7D1UAnIVvgjimRPyY2jf3H6bhC2ucpQuUD4L+eh2/hxctvf3IosaSrKVilPSh5x4G8vnjxNSrFKH5Ml4RMO7blMkYolSRb8mF17z/JhudR4NFjPl+4VeOrtT8RYngbcYt/uk6HfsGN4GKyyhJwnUY4KZExpi/+No9y0LUjejLH7a4lVBFgxfuuZ/gtN/eTH9AXjboSmdGCNu1mab8sWGWCZbzmiHLkxAywLo4yT6cR+gDWcz2aOo0Tk3/MMoVZ7So1ZSyXTziHixPd9GzWXAOt95/nS6420GjGmc9A5XEzl4v51cX4OF9WN3Z/6cOhvL/Z5J6dznY/jfpJm3kOc1yg2fF68LP1Nf5AICeTXBZso2a7uCwHWNrZHfNNwbIzDCG2YXoAVuirrWw6maIjnsHIMdV/FLA9HOrYdi8OKYRTmJmPH/kD7GrZM9CpI1wYl4ebPjPs5LU5170bx3D1mnS2PU7PirOvzJT+m68a4ureo1/YwI7cO4rRzWxLYLaFl8Qe0Gb6JqU5N+HlQexK2XkCjZOuft3dwKhOv/I9+5Y6Fttc4uxczr1RmUKNkTK3XgapTl5PN9yjNu+3mh78GR+4kXitG8scHjWnzYVoeHlvEmn+r07bYVb5d8oQ1/SqwwKEzFV1XvxBiXcb5o2+ps3xd6LcrODbxpNfmaRwc0IgP2kylVNLrtJ97lbVuJelWawbu22dic2YNdVosZd7KnrT6tj/tPCbSukJaZjXvRumJa6maaTvD5z6lX/vKkVbdi+1j/Qcd6VI1Fz/2rEnyXjuolf89/hwXxc6rAMsI7+hY7FInP7GIGctNmcWBNZbnbE7NKcAy/WopwDLtGsVugGW4hPAxtmlS8/z7B8Ju9Js4dXpsY/fUx7RhY2l0VhlgBfvz2B9SGm7sbgYPncOZbpHi/BwuJIhHj/xImTb182/JDAni4QMfkqZOQ9LQ1e56vE0gzmsUG/whgXg/DiKV4YtBYqM9M2rDRAOsDhQetoyGeWHDaCeu13Wn5OY+bCvuQo/k85h7pRZ2hfaGB1Nl4dpKBs5LiEPdiLDq9efafBzIifMn2fZ3ahzq3mHcodIMb18JvDfi7HGdXp9eYn06O9pXygcnZ+K0ITv9a16m14yrlCuRDe/j+8jZcjj1U/0a+lyuApnp1qM7WRME4504ATvWLOPi1WtsWHgcjz9XUib81gheKzzYX6gT9h+l48HBGaFjLu+9gYSN+lItY0rubh/NIp+v+L7eh+G7zWVcyjWn1ca/KJL8Kp2rDeS7Sd/SodNiWrevRDL82D13Ma1nzWFlz/m4bx/O4WUrWDt9Pz3nfsd3nZawfvs8choWU4XPw8UuBI8VKXHrWSPSalDPgvSbc4nx3xWhSc+dLFzakYi7OcTW/hudAKtO9QpcvXkntrpUO7EokC5NKp74+hMYFBSLraqp2BIomj9XaFOnzl+JrSbVTiwKVPyoeGhtHjzyicVW1VRsCeTMmknHntjCjKN2DO8hw0mqHqYnYDg/MByDVB/Tq03EiHQOZ7q1MYxM53CmXZ+IGukc23TrdOzsJbq3bkiChw8fhl3pFsXD19cXw0+sPkJXW71yCWHoc99TZswM/pcFtkxw5Phno+mdawcDnI+QL2gNhYft4MM7YWGQU7NoBFinS1LC34san2di+EJD0HWXGafLMaBFeQjezaABR+he7TYbM7SjdYXccHkZAxcnwaH2v5F93PyxJ56X6+P82bnQ59IdHk6RHov4LMu/9CjZnGzucxjwRVraV3em+8bFbw+w/H8jeZ0+fPJBCu7vn8qci5/i+M1H4bSvB1gtxzTEYcETts1tQ4qIiPXhIVrXmk7TjsVIV6sxS5oMxH51P6Z++wujdg8ko2G78HkM6JT4tQDL3bku4zqMIV/7Apzwr4lz5DWcsVfh6ARY9i3i96u5Y292akkCEpCABCQgAQlIQAISkIAEJCCB+BRY8vNWvmvypSkFWI25WsyRCQM+xKXPeJzGjyAdASxybMCk2y3ZubA1/uGrmd4dYN2mjdMZBiwfS0X/n8JXat3iW6c7zNnswmVPO7wKuNKu+AU6LX3IisFN2en2LX996E6nnH8+D8mOTMZhS0EGVr8U+ly3Cr407LOJWe7Vadp7K7+uH4HPrmk06r6NhX+vfmuA1SDDPhxPfci6nmVY068piVrNpUHprG8MsOx/cmNZJzu+GLuK/2Xzx3HQCuwdPsfp8x5UHD+TPlVTh67Ust84i5sjO/OkmTtNiyVlate2JG4xjeYfHnk9wBrUhHNrXGm7+F/mL5hIobSxvyRaAVZ8vo3VlwQkIAEJSEACEpCABCQgAQlIwLIFNu48QN0anxohwAoJYM2E+RRob0+piBtrhq/KSly1IKf3naBedzfqlQy7w7vXimFsy94VhyoZeXz+NzbeKEjjKgXg7k4Wb0nA1+V9onjuAStO5qZDvZKR29UtdJxZmx5z/sJZqNCeWe0rhH7z1ZE1E5i68XTkc4/Pr8fVYz1Pwuvf3W0W+Xye93tmjSOHMtuT98wo5u6FbEUqUujGEUo4jid8yJzbuYZ/stXiq/wpXxhzTnZOdWbxEW/S1urL6MaFI/ewC7tWMHldYoaNbkyqgLtMdV7EV0O/J/uz84x09eDGkxTUcxpOvSx3GOsyg2bDRpPD9vl2eRI9ZsJIV07feEKeek4MrJeF9e5OULc/9UrmiDRo3awy3NmCfa+teC4eSYo4+LI8BViW/cGh2UlAAhKQgAQkIAEJSEACEpCABOJTYOaKX4x0CWFUs4zqssLw7TYuGEbppgPJ/J5pS8S9qEJXb1nx4+6Occz2bkr/ejnj5OZvCrCseOfS1CUgAQlIQAISkIAEJCABCUhAArEsYFoBVkgQu37aTLZatcmXInymoc+t5E6mijSsnI+E7wngd/MAXveyUblEtvdsyXxf7ndzL4u2PKZV68+JYI7t2SjAim1RtScBCUhAAhKQgAQkIAEJSEACErBeAdMKsKy3DhY3cwVYFldSTUgCEpCABCQgAQlIQAISkIAEJGA0AQVYRqO37I4VYFl2fTU7CUhAAhKQgAQkIAEJSEACEpBAfAoowIpPbSvqSwGWFRVbU5WABCQgAQlIQAISkIAEJCABCcSxgAKsOAa21uYVYFlr5TVvCUhAAhKQgAQkIAEJSEACEpBA7AsowIp9U7UIKMDSbiABCUhAAhKQgAQkIAEJSEACEpBAbAlEK8Dy8/PD8KOHBKIrkD59+rduOm3JOuxb1I1uc9pOAhKQgAQkIAEJSEACEpCABCQgASsWiFaAZcU+mnocCSjAiiNYNSsBCUhAAhKQgAQkIAEJSEACErBAAQVYFlhUc5iSAixzqJLGKAEJSEACEpCABCQgAQlIQAISMA0BBVimUQerG4UCLKsruSYsAQlIQAISkIAEJCABCUhAAhKIsUC0AqygoCAMP3pIILoCyZMnf+umCrCiK6ntJCABCUhAAhKQgAQkIAEJSEACEohWgOXr64vhRw8JRFdA30IYXSltJwEJSEACEpCABCQgAQlIQAISkMC7BBRgvUtI/x4jAQVYMWLTiyQgAQlIQAISkIAEJCABCUhAAhKIQkABlnaLOBFQgBUnrGpUAhKQgAQkIAEJSEACEpCABCRglQIKsKyy7HE/aQVYcW+sHiQgAQlIQAISkIAEJCABCUhAAtYioADLWiodz/NUgBXP4OpOAhKQgAQkIAEJSEACEpCABCRgwQIKsCy4uMacmgIsY+qrbwlIQAISkIAEJCABCUhAAhKQgGUJKMCyrHqazGwUYJlMKTQQCUhAAhKQgAQkIAEJSEACEpCA2QtYcYAVyLlde7kSGPRCEZNSrNLHZEmSyOwLa+wJKMAydgXUvwQkIAEJSEACEpCABCQgAQlIwHIErDjAuodHxVoUnPIrlXOEFXTX3LEkau9K/UypLKfCRpqJAiwjwatbCUhAAhKQgAQkIAEJSEACEpCABQpYfYBVfvkBauQOq+y2SS48buZE/UyJ2btiFnvvQN5qzahXMhMndvzMnkRlaV/JkHYFcXzDQs6n+pQGVYtyYddPbDh4DQrXometwvjdPIDXvWxULpyCDQu3Ua7V16R5EPZcPi5wI0NZymVNZoG70/MpKcCy6PJqchKQgAQkIAEJSEACEpCABCQggXgVUIAVRYCVefN4hjysy2/dcjG0U3faj13I3xO64bnVhpW/ziAXV7Cv/S3Bn/dlYqdstJxwgp9GtWFdny85/+Vc7D7YzKyz5XFqkInO1QZiv3ExeS7MCH2uJlvYX6gT9h+li9dCx3dnCrDiW1z9SUACEpCABCQgAQlIQAISkIAELFdAAVYUAdalWVOp7dKfAsCeRSM4Xa4bKVaP5sYnRSmf9X9k9/Vi+71/OHMgG73LHuP3DO1o80keODef/qvS41Tr5lsCrHW4/niFHGkSkyJtLYaNbowlXrCoAMtyPzQ0MwlIQAISkIAEJCABCUhAAhKQQHwLKMCKMsCaQLV+rpRM+nKAFfCtI4/+OUaBhzsoWz4P41YmoXfZo/yUqi2dPisQzQDr+Qqs00u683uGLvT+qnh81z3O+1OAFefE6kACEpCABCQgAQlIQAISkIAEJGA1AgqworyV524LAAAgAElEQVSE0BPX+/XZ1OPFSwiHEvLdYB6P7MB2qjFnQEqGzk+Ic6dsNB93jHWj7f7zJYRHZtixo4ATPWsWtbgdTgGWxZVUE5KABCQgAQlIQAISkIAEJCABCRhNwIoDLD92z11MtsadyJs2zP/i3m0ElqhE4RTPoriJ+1aelfmcTJfWczZlDSpnvMjWQwn4PMqbuO9l0aq9BLxY1pAgdv90kw5TvuLMthOEALbJ89G8bV3SJDZa/eOsYwVYcUarhiUgAQlIQAISkIAEJCABCUhAAlYnYMUBVjzXOtgXD7sJ1F08EMu7YPB1SwVY8bx/qTsJSEACEpCABCQgAQlIQAISkIAFCyjAiq/iPgvm3OELZC5T0CJv2v4qowKs+Nqx1I8EJCABCUhAAhKQgAQkIAEJSMDyBRRgWX6NjTJDBVhGYVenEpCABCQgAQlIQAISkIAEJCABixRQgGWRZTX+pBRgGb8GGoEEJCABCUhAAhKQgAQkIAEJSMBSBBRgWUolTWweCrBMrCAajgQkIAEJSEACEpCABCQgAQlIwIwFFGCZcfFMeegKsEy5OhqbBCQgAQlIQAISkIAEJCABCUjAvAQUYJlXvcxmtAqwzKZUGqgEJCABCUhAAhKQgAQkIAEJSMDkBRRgmXyJzHOACrDMs24atQQkIAEJSEACEpCABCQgAQlIwBQFohVgPXv2DMOPHhKIrkDChAnfuum0Jeuwb1E3us1pOwlIQAISkIAEJCABCUhAAhKQgASsWCBaAZYV+2jqcSSgACuOYNWsBCQgAQlIQAISkIAEJCABCUjAAgUUYFlgUc1hSgqwzKFKGqMEJCABCUhAAhKQgAQkIAEJSMA0BBRgmUYdrG4UCrCsruSasAQkIAEJSEACEpCABCQgAQlIIMYC0QqwfH19MfzoIYHoCugm7tGV0nYSkIAEJCABCUhAAhKQgAQkIAEJvEtAAda7hPTvMRJQgBUjNr1IAhKQgAQkIAEJSEACEpCABCQggSgEFGBpt4gTAQVYccKqRiUgAQlIQAISkIAEJCABCUhAAlYpoADLKsse95NWgBX3xupBAhKQgAQkIAEJSEACEpCABCRgLQIKsKyl0vE8TwVY8Qyu7iQgAQlIQAISkIAEJCABCUhAAhYsoADLgotrzKkpwDKmvvqWgAQkIAEJSEACEpCABCQgAQlYloACLMuqp8nMRgGWyZRCA5GABCQgAQlIQAISkIAEJCABCZi9gAIssy+haU5AAZZp1kWjkoAEJCABCUhAAhKQgAQkIAEJmKOABQZY9/CoWIvyyw9QI3dYSY7/NprmPe+w4Z+xhD8VZa28Vniwv1An7D9KZ461NKkxK8AyqXJoMBKQgAQkIAEJSEACEpCABCQgAbMWsPwA68ofOEzbwh+bErDmoJsCrHjaXRVgxRO0upGABCQgAQlIQAISkIAEJCABCViBgEUHWNWyP2FG/wlU6tqYLt8sYfmWxrjUmoH79pnk5Cqdqw3EfuM8Em9xwfPnuyRJ7IdfuiyEXPSm2pBh2JXMwF+rp7F00wkeJs5I9z5OVE7txXdNZuNbLB0JfG1oPsiNBqm9qFVvHKN+Wk2ZrMl5fH0L9WuPYeDm9eT5eyyjVl8igW0Qt5N+zNKxdekX2u9iyqTyxcPOkbKeU6gZuJKB8xLiPqgJd7eNp/X8INZMb82EwYO45JMQAu9yP7gCixY4kdzG9PdMBVimXyONUAISkIAEJCABCUhAAhKQgAQkYC4CFh1gffRwMWtul6Z92cRUrPWGAGteJ3p12cbqPwZxaEIr1uXyYFK167T+eiljplbh+6mPWDizPTbnNlKx82k2rShB747L8Fw5lzSP9tL225WMXVSHAS2mkaCjGwvaFuPkQjtcZj+j67Lp5E7iTa6MWUjy7Akj2jpRcZQTK5q8OcAa7vAFC5dNYd/2xIxzy8OktWnp36cW3NlC975ejFaAZS7vLY1TAhKQgAQkIAEJSEACEpCABCQggVgSsNgA68Pxs/hl9XqGDhtMRt/TkQGW42dOlGhblzQ8YsPC43gs7kznIf+w5cfO/BNxD6x8l2htWKk1pQoDt2VhgVNNbB4eCnvuh6Z4uEQESZdxKdecVkuGMWXELspmSUz1frUZ7HiYvCFeVPYcQ7L1i/nlwlWyfJCW3T8doOPC0az65s0BVpuKd7DNlItxY04yekEX/lixlPP3guDJBfaczMocBVixtOurGQlIQAISkIAEJCABCUhAAhKQgATMRcBiA6x/Cjej6/x+fGSoxL3nAdZrlxCudmR6y7W4ha7A6srBCoNxLHwZu2//ZtL07LR1O8Py+c7YXox6BVa75nuYtKIErobVUT2TMGDFRfI2G0nAJEfKOndnkNtW1i/qRjq/27Rv4UjLSW5vDLD6jfQiR60+9P7kRPhqq36sHd6JYx+54RH5nC4hNJc3l8YpAQlIQAISkIAEJCABCUhAAhKQQOwIWGyAdb2lG5O6fRmm9LYA6w33wKo+egztCiRn59vugWWTNvK+WGGX93XCrY8bDuOHM8twb6tRo7gypiGbHuUjvU1ybG5d4jP3yWzp2JJHxYqQOlEw5w6fIl/dFkxu+wEdnU8weekw0oVfLti+3jUmHfmQ+SM66RLC2Nnf1YoEJCABCUhAAhKQgAQkIAEJSEACZihggQFWzKvgFXEJ4Ufp3txIrN+L6gQuTSbitGwWqWxjPnZTe6Vu4m5qFdF4JCABCUhAAhKQgAQkIAEJSEAC5iugAOuF2inAir0dWQFW7FmqJQlIQAISkIAEJCABCUhAAhKQgLULKMCy9j0gjuavACuOYNWsBCQgAQlIQAISkIAEJCABCUjACgUUYFlh0eNjygqw4kNZfUhAAhKQgAQkIAEJSEACEpCABKxDQAGWddQ53mepACveydWhBCQgAQlIQAISkIAEJCABCUjAYgUUYFlsaY07MQVYxvVX7xKQgAQkIAEJSEACEpCABCQgAUsSUIBlSdU0obkowDKhYmgoEpCABCQgAQlIQAISkIAEJCABMxdQgGXmBTTV4SvAMtXKaFwSkIAEJCABCUhAAhKQgAQkIAHzE4hWgOXn54fhRw8JRFcgffr0b9102pJ12LeoG93mtJ0EJCABCUhAAhKQgAQkIAEJSEACViwQrQDLin009TgSUIAVR7BqVgISkIAEJCABCUhAAhKQgAQkYIECCrAssKjmMCUFWOZQJY1RAhKQgAQkIAEJSEACEpCABCRgGgIKsEyjDlY3CgVYVldyTVgCEpCABCQgAQlIQAISkIAEJBBjgWgFWEFBQRh+9JBAdAWSJ0/+1k0VYEVXUttJQAISkIAEJCABCUhAAhKQgAQkEK0Ay9fXF8OPHhKIroC+hTC6UtpOAhKQgAQkIAEJSEACEpCABCQggXcJKMB6l5D+PUYCCrBixKYXSUACEpCABCQgAQlIQAISkIAEJBCFgAIs7RZxIqAAK05Y1agEJCABCUhAAhKQgAQkIAEJSMAqBRRgWWXZ437SCrDi3lg9SEACEpCABCQgAQlIQAISkIAErEVAAZa1VDqe56kAK57B1Z0EJCABCUhAAhKQgAQkIAEJSMCCBRRgWXBxjTk1BVjG1FffEpCABCQgAQlIQAISkIAEJCAByxJQgGVZ9TSZ2SjAMplSaCASkIAEJCABCUhAAhKQgAQkIAGzFzCxACuEa0cPcvau9wuwNuQtWZa8GVOaHfb103s4c8M3dNyJMxahYsls2JjdLGI2YAVYMXPTqyQgAQlIQAISkIAEJCABCUhAAhJ4XcDEAqxAlnRqgU/raTQuHDbYu5tGsyVbB3rWKGJW9bu7cypDz5XBtU6B0HEntE1FhrTJSGBWs4j5YBVgxdxOr5SABCQgAQlIQAISkIAEJCABCUjgZQGTDLDotZpWxcMGemedCytStqJnjfwc37CQbRd8SZqiLK3bV+LB8V3cyFCWclmT4XfzAF73slG5cAo2LFzOBd9AEtomp1HzJpxat4gTD8InntCWel9W4NTRJ3zRsDKJE76+S5zY8TNbj1wO/4ckVGjahgpZE7B3xSz23oG81ZpRr2SmyBfeObqevVQIfc7/1gmW/pOEgJ+2UOSbrBzfe5mUuUvRrkFVeHKBXzfeeLnfiOdqpGXxom08Dm+1WrOeGLp4cSwf1W1P5YwX2XooAZ9XLf68vRpp+fNI+HN3jrJklzffRj5XhKPr17D94i0oXIuetcKTwTh+JyjAimNgNS8BCUhAAhKQgAQkIAEJSEACErAiAbMJsOolO0DbrRn50+VLjizoxLHCAyh2dRV/5+1At/LpeXBwBrPOlqdRtoOs9f8ap/9l5MgMO3YUcKJnzaJwbSUD5yXEfVBTuLOF7n29GL3AieRRXNO3athAQtq5820O8Frhwf5CnShzajJDHtblt265GNqpO+3HLiRH6iRhu8qZlTQb85iFs9tzbIUbu/L24uTYOvjm7MW88Y3ZP8uZuYnsmFP3Mj1f7TdiLG55cFsYNr6Qowv5ZooNy6YXZpzbUfoPbs/dHePouiQDiwcnZeir84h4rWtDNo7txJSjRVgZ/pxzl5y0GHOYn0fbsa7Pl5z/ci59auWP811cAVacE6sDCUhAAhKQgAQkIAEJSEACEpCA1QiYTYCVc+dgFlxIQeYkiXgacJsn+ezwqOVD5x152ehUJTLA6vd1CRJe2kBnz40EPbpGrq+HM7RZ2dcCrEZ13ElXugA2CXLTd5YzL65LiirACvx1JrVd+mO4IHDPohGcLtcNu2Jpw3cUH2YPHczX/UazeOoE7Hp3xqmFI3bzp1MxleE6yH18XXcFU1fXpvvXr/T7QoDVvO0SMhfKSuDdJ1Tp48F35TMS7H2Wbi5TIPAu94MrsMgtDxHbvficIfxy+b4Ah3cdYdnS24wO3y59ZihlN4reXxWHc/Ppvyo9owY0iPMdXAFWnBOrAwlIQAISkIAEJCABCUhAAhKQgNUImE+AdXAqqZqPpGb2F2/m7sMax0FsfPgkMqz6OtWfeK5+zNAprqQ5PI7pV6viEkWAFbEC69m5X6ljt5cfdg0lU/hqrKgDrClU6+dKyaRRBVhwbP0sjuUqws2t5+nbuxkT242h8sxBlDUs0nohwHIfELbyK7LftVUY5ugVGjhFrMB6tG8GXWcmYt6YrHRqu4EO86dTxf8XvhtwnKkvbBe5kszw3FwfymV4xGeNSzHE0Ef4dt9Xv8ryx7XooQDLat7UmqgEJCABCUhAAhKQgAQkIAEJSMDSBMwmwKqXbD8tZwfw+7wOBG5yZ45fXfo3KBlZj4hLCMvfXcbZKi7Y572OXbXWZHOcg/tbAqynJ3/kf51PsWH3QDKG32E96ksIJ+J6vz6bekRxCSHw5PJearfoRqNBK+lVKx9X14/CeUch5oxtzKax3VibvvdLlxBG9vvjxwzp93KAxallfDMuiMXtb9H9j0LMdvySqd1bsuFxBda8IcCqV2cVg/ev5DOfP8IujwzfbnDvT/nOaR6Tpjvyly4htLT3r+YjAQlIQAISkIAEJCABCUhAAhKwCgETC7CCQ284ToVvQm9gbng8ObON47YlqZA3TeRN3G2T56N527qkSfy8RhE3cS+bJYDFP6zH/2lKKjetxMMrttSokBe8j7908/PFczcQdl/3lNSwa0eJ1M/bOrFjK8/KfB763I3IG8W/+Sbuoa/0u0rnag7Yb1xBmfArC49vXcy2Ew9euon7a/3ahN/Y/Q03cd+4YhJn7iSkeI0qJDh5hUpf5GXX0ddv4r5x7xPq1qoQ5Y3dDTeZX7H9om7ibhVvaU1SAhKQgAQkIAEJSEACEpCABCRgeQImFmCZKXBIANeP/cXok5mZ2LyYmU4idoete2DFrqdak4AEJCABCUhAAhKQgAQkIAEJWLOAAqzYqH7AXfbsPU/RT8uRJnEUX2sYG32YWRsKsMysYBquBCQgAQlIQAISkIAEJCABCUjAhAUUYJlwccx5aAqwzLl6GrsEJCABCUhAAhKQgAQkIAEJSMC0BBRgmVY9LGY0CrAsppSaiAQkIAEJSEACEpCABCQgAQlIwOgCCrCMXgLLHIACLMusq2YlAQlIQAISkIAEJCABCUhAAhIwhoACLGOoW0GfCrCsoMiaogQkIAEJSEACEpCABCQgAQlIIJ4EFGDFE7S1daMAy9oqrvlKQAISkIAEJCABCUhAAhKQgATiTiBaAVZAQACGHz0kEF2B1KlTv3XTaUvWYd+ibnSb03YSkIAEJCABCUhAAhKQgAQkIAEJWLFAtAIsK/bR1ONIQAFWHMGqWQlIQAISkIAEJCABCUhAAhKQgAUKKMCywKKaw5QUYJlDlTRGCUhAAhKQgAQkIAEJSEACEpCAaQgowDKNOljdKBRgWV3JNWEJSEACEpCABCQgAQlIQAISkECMBRRgxZhOL3wfAQVY76On10pAAhKQgAQkIAEJSEACEpCABKxLIFoBlq+vL4YfPSQQXQF9C2F0pbSdBCQgAQlIQAISkIAEJCABCUhAAu8SUID1LiH9e4wEFGDFiE0vkoAEJCABCUhAAhKQgAQkIAEJSCAKAQVY2i3iREABVpywqlEJSEACEpCABCQgAQlIQAISkIBVCijAssqyx/2kFWDFvbF6kIAEJCABCUhAAhKQgAQkIAEJWIuAAixrqXQ8z1MBVjyDqzsJSEACEpCABCQgAQlIQAISkIAFCyjAsuDiGnNqCrCMqa++JSABCUhAAhKQgAQkIAEJSEACliWgAMuy6mkys1GAZTKl0EAkIAEJSEACEpCABCQgAQlIQAJmL6AAy+xLaJoTUIBlmnXRqCQgAQlIQAISkIAEJCABCUhAAuYo8F4Bls+ddTT6YhhPUtiGzT04kECbpmz8y4kMJqhxfN1CDuT+ivwHhnKn8lQaF4bre1fQtM+ksNGmzsfMFbP5MG0yExy9eQ1JAZZ51UujlYAEJCABCUhAAhKQgAQkIAEJmLLAewdYHitS4tazRtgcL2+jXPP9JhtgEfSI/Tu98Emflxql8wJnmDbxJF17fW3KNTLLsSnAMsuyadASkIAEJCABCUhAAhKQgAQkIAGTFIijAKs3J1dPY+mmEwR4J6HyQGfsspykV18vRi9wIrnPIVrXmoH79rEcmTGUdSe8CXp8E7/SA+lb8G9m/3qIo3+fJk+FMuQq05gM+9dT1nMKNTNFZbiH1pVdSVYsLwTe5X5wBRYt6MXvs9z5/dAtAu8m4evRg6mfdCvO8xLiPqgJd7eNp/X8INa4ZGLYlHOcD/iXdPiQo2xnBnSoys6p/XDb6UOBdPDoxk2qDFtE6yyXGOnizv1EKbAtVh/P7g1Z596NheeCyZYUnpGEgePHkzdForBB3tlCozrupCtdAJun3pw+mYal2ydx6Zcwl4eJM9K9jxOVDZ2EP1YN6/Jae+kfHXut33t7VtNp1hayBV2jUItZfF9mN127/c69zIkIfpKSPh7DqJLjKXMHDWXvLV8C754ja8PJjGiTn5+mG1xucC04B7MmDODiImcWH7jGob2XKPJpScrU7kjdRJsZvfoSCWyDuJ30Y5ZO7UKq/7j7KsD6j2DaXAISkIAEJCABCUhAAhKQgAQkIIE3CsRNgDU/H109H7FwZntsn57D6bNudNowlvmdZzBg2TRS+YYHWKuH8jRFUvKkS8uz+wdoWWc+Y7ZPJcezq3SuNhD7jYspk8oXDzvHtwZYLn334ebZMzQ06m4IyXomx3lnfsZ/X5uQAC+c7RbhPKIi7ksSMtzhCxYum8K+7YkZZw/fLEvI2qkO2PKUX8e4ktDOGdvlg9n/sSdOn4DXCg/2F+oEq8aRz9mV/6VMxG+eA0nQ2hmfGSMJaefOtzngB5cOJO05nvqZwqOeiLG8GNjNrEm/aWEuNuc2UrHzaTZt601EhLVq2MDX2rsxfvRr/VZN9gySpybZ6SU0mQjLBiWm68grTJvqwLNL6/je7SJjhzTkfuqMZE+dgpAbv9Gt/wk83fMzbI4vo4a0wO/hA0iZnmSGvO1hRKA4k5wJfPnnkTe5MmYhybMnjGjrRMWJU6ie8b+9ixRg/TcvbS0BCUhAAhKQgAQkIAEJSEACEpDAmwXiJMBaMgzsZ9+kYaV8JAQS2ianUfMm7Jw/nCtBOUjy7F9+WXOPOduHc3DSHH7xT0qJZHfDn5tJTl4NsDpws9gn5EsBt28loIt7D3JEzmkPrwZYPb+6wIAdGahaPEvoVknS56BNpQCGL05Em4p3sM2Ui3FjTjLaMS0efxRkaPglkBFhVaFdbq8FWIHb5tGoX9/QfiO2y7BhMJsTFqBEarh55iotR7lRIlWSsJFFFWBNqcLAbVlY4FQTmxdDo/Bbbq0a1vO19rbNnPJav/YfpcPv5l4WTZ3N+Zx2jKh9ncHzDavLmgIncGkyEadlg/hl1Ey2JfyAEjYX2HMyK3PswdWrPJ4Rl3xGGL40Fj92z13MLxeukuWDtOz+6QAdf1j+htVvb96xFGDpY0cCEpCABCQgAQlIQAISkIAEJCCB2BKIkwBr4/x8fDf8NEvmu5A6YSD/PvAjfYa02CQIH3ZEYDKlCv03ZWCh81cEnfqFT+3WsX57VAHW8xVYywcPILH9SJpkjSB4PcAyrMDqtj4dc4a1wuapH/d8gkn/5BccRnqRo1Yfen9yImyl1oIvmDbsJD2HtsI2JID1nkNI/MYVWK7YthtHu4JRr8Dav2wUh4p3plOp8PVUb1iB1c3zDMvnO2N78e0rsCLaC1nxer9VkkLi1KmwfXoYp2azcBldlT6ez1dguYz1Y0SrS4y4+DlDm5fl8Z7ZNJ36gDUjC4WvwGpJwOMH+NmkIq1hCdaLAZbvaSr22sr6Rd1I53eb9i0caTl7oQKs2HrHqR0JSEACEpCABCQgAQlIQAISkIAE/rNA3ARYf/Xm5MpJzN18GtuABORu3JPv65Ukmc0rAdZ6V2Y6tuFm4gJ8kDMr99bvxXHz7xRM8uoKrDbstUlPRltInKEMbiO7hF92F8DOqV1Z/7g+o50avLDqqRe/TxnKTyfukdQnmLKdB9Ahvxdt+59g8tJhpHshXDrz83Tcfz9EusC7ZPy0J0M7FGdYi958MmMpddI9X23VPAb3wAoLyV6851fs3APrn9/nM3TdXtL5XCNfs0k4fORFt+7h98BKkpMhTn0omeI2PXv3wd82G1lL5OH+7juMXDqSTXMM98C6yd2I7XKkejnAsnnMPMeGbHqUj/Q2ybG5dYnPxq8kyyZnEnw1lPKZbjF/4w3sG3/Mzqlhz1U2LI175aEVWP/5vagXSEACEpCABCQgAQlIQAISkIAEJPAGgfcKsKRqIgLXVjIw9Ab1hksITeOhAMs06qBRSEACEpCABCQgAQlIQAISkIAELEFAAZYlVFEBliVUUXOQgAQkIAEJSEACEpCABCQgAQlI4A0CCrC0a8SJgFZgxQmrGpWABCQgAQlIQAISkIAEJCABCVilgAIsqyx73E9aAVbcG6sHCUhAAhKQgAQkIAEJSEACEpCAtQgowLKWSsfzPBVgxTO4upOABCQgAQlIQAISkIAEJCABCViwgAIsCy6uMaemAMuY+upbAhKQgAQkIAEJSEACEpCABCRgWQIKsCyrniYzGwVYJlMKDUQCEpCABCQgAQlIQAISkIAEJGD2AgqwzL6EpjkBBVimWReNSgISkIAEJCABCUhAAhKQgAQkYI4C0QqwzHFiGrNpC0xbsg77FnVNe5AanQQkIAEJSEACEpCABCQgAQlIQAImIaAAyyTKYH2DUIBlfTXXjCUgAQlIQAISkIAEJCABCUhAAjEVUIAVUzm97r0EFGC9F59eLAEJSEACEpCABCQgAQlIQAISsCoBBVhWVW7TmawCLNOphUYiAQlIQAISkIAEJCABCUhAAhIwdYFoBVi+vr4YfvSQQHQFdBP36EppOwlIQAISkIAEJCABCUhAAhKQgATeJaAA611C+vcYCSjAihGbXiQBCUhAAhKQgAQkIAEJSEACEpBAFAIKsLRbxImAAqw4YVWjEpCABCQgAQlIQAISkIAEJCABqxRQgGWVZY/7SSvAintj9SABCUhAAhKQgAQkIAEJSEACErAWAQVY1lLpeJ6nAqx4Bld3EpCABCQgAQlIQAISkIAEJCABCxZQgGXBxTXm1BRgGVNffUtAAhKQgAQkIAEJSEACEpCABCxLQAGWZdXTZGajAMtkSqGBSEACEpCABCQgAQlIQAISkIAEzF5AAZbZl9A0J6AAyzTrolFJQAISkIAEJCABCUhAAhKQgATMUcAkA6xNk5248Flv7EtlDTMNuItbr040Hb2cwqmTmKOz1Y1ZAZbVlVwTloAEJCABCUhAAhKQgAQkIAEJxJmASQZYwXeOUb3Jzyz704UcwJlVvXA7U5P5zvVIlCDOLNRwLAoowIpFTDUlAQlIQAISkIAEJCABCUhAAhKwcgGTDLAgiOPLHFgX+A1OzYrRp3Mfmo+Zz6eZYNukwazwzkAJmwvsOZmVOQucuL1rIeN+eUTBHHDukBftxs/k/iJnZl7LTaUccOP4AXLaTyTThjGEtHPn2xxPmNOjNfl6jcfnz585/c8BDt7LRqWyJWhfA0YsT4L7oKav7xrBvnjYdeBmsU/IlwJO7NhHjYmLKH9p2f+xdx/gdhSF+8ffm9xUSAECf3pEQoiU0ESUojQFBUQN0gNIV0IvkQChBAKh/aiRDpKIoIACPgiICIIU6UWIiCItICSEdJKbe/N/dmdnZ3bPnuSccE7unj1fnocnyb1bZj4zO7v7ntk9uuKeSfryGj31UctgjT16T7fu+3do1E1dNHb0MP3nd+foqLt76a5zv6Rzfxn87MfSxw9rxInP68JbRurpq0vrNmPSgxp9zZ+1wTqra8rkOTr8zBP11EVnquPgMfrKg2fqig+HaMyJ39U9V16q+T0H6JVX3tcxYy/R8n85WDctPFqj91rWYFAAACAASURBVN5Ir044WfeuMlKn7bjSUuvuBFhLjZodIYAAAggggAACCCCAAAIIIFB4gZwGWMb91DNO0uHfXkW/+2QHnTBs4/BnD192o5Y97hB93Qt+FsyeoWW7S1NmfK5X7hmvf212rNZ94lw9+7VLNPLr0vO3j9Ozgw/XCmGAdZ62fP0y/eJv87Xm7ofryE2X07QXrtF1b26ukXtvJr1/h066epZOOX43Sd21/Er91Wq7QRhgnaLNLrlKQRb023NGqWP/U/XnUy/S8Xeco69Iuurk07XJBedqq67RSlGAdc5J39Kv7rpVzz7UrgvP/ZJGXxPtY8rjGn3+W7r0lpF68srSul130ikacupJ2lTSW0/cqHtbDtJmr16uT3Y4UE/f/jtdeuUoDXjnNo2a0ENjTx/mddgXdMYpj2vM2EN13mFXaY+bR2rdpdidCbCWIja7QgABBBBAAAEEEEAAAQQQQKDgArkOsF6+8yL9dPzzuum3t2rICt3Dprh23CXaYeSJGuQFWG/df6PG3/GCtttvmKY/c48WfP8sDSkTYM3b5+dq/c8bWmfao2GolRVgHXnOP7Xn3ltr+kt/0bPdt9c5I7YzIVa5AOuaX+rcC0comN8UhlrhLK9kgLXHOpO0/CZf1cXnvRIGWCecZ/ah6S9pwt1tuvqWkZpwcWndLj7lSA3ZZU8NiDbXZ63N9N8J5+jlL2+rue98rNGnHaJ+T4/TiX/fXJccs32iu9489hJtetQuuuP2f2vsEbss1a5MgLVUudkZAggggAACCCCAAAIIIIAAAoUWyHWA9dYDN+isqdto4n527tA0XXzhLTrplOMTj97dcP4YbXvSGRraMkXX/fwEzRt+udbPDLDO1csrrqdDfry/Pn34srIBlnnk78ea99ZdGnHu+7ripmPVq0uZAOuA0/XGuT/Tl4+/Uges301jjjtbe152vpvt9P4dOnLk3/TVI0fr0HVfMo8LZj5CeLjGX1Jat7vPP17vbXWyTtluVU17+x+aufxgPXd58AjhOVppwnH648o/0fm7fqpTLntbl5x3mKa89ZIm9xykoav30T/v/z+NfWSqdvnRIdpzy7WWakcmwFqq3OwMAQQQQAABBBBAAAEEEEAAgUIL5DLA+nzyK9rjoKO1YOAO+t01o9UreBzv88kauce+euDdGVpm2Z5SxzxNn9FLJ9zxB2393k3a+5w71UuraNghX9P+u+6scw4co73+cKe+2d1/hPAEvf71K3XGd5bVi9FjhVkzsHb43jjNXbanOuYN0Km/uUPfX7uXwnfHZ83AOnisftD/LZ25/77668ddNOy0m3TiLuu5TvP+HTr0/Hc1/uqT1d3OGksHWCPuU8vMl/XXD0rrdsCg2bp0/131+w97afUhu+kX40fqLxeebmZ5rTxXF524t3Y6+1ea8YdLdMr4BzVv/WH68xXHqn+vVnVMfU57fucYnfPAE1pvxSCBW3r/EWAtPWv2hAACCCCAAAIIIIAAAggggEDRBXIZYGWiz31PR2x7o0Y9c5YGRgvYd1sFIVRD/1enun3+3z9rxBXzdeWl31WvpQxEgLWUwdkdAggggAACCCCAAAIIIIAAAgUWaJwAq8CNUJeqfXivfvizRzX+d5dqlbrsYNEbJcDqBHR2iQACCCCAAAIIIIAAAggggEBBBQiwCtqwnV0tAqzObgH2jwACCCCAAAIIIIAAAggggEBxBAiwitOWuaoJAVaumoPCIIAAAggggAACCCCAAAIIINDQAgRYDd18+S08AVZ+24aSIYAAAggggAACCCCAAAIIINBoAgRYjdZiDVJeAqwGaSiKiQACCCCAAAIIIIAAAggggEADCBBgNUAjNWIRCbAasdUoMwIIIIAAAggggAACCCCAAAL5FCDAyme7NHypCLAavgmpAAIIIIAAAggggAACCCCAAAK5EagowJo3b56C//kPgUoF+vbtu8hFx0+8V0fuu2ulm2M5BBBAAAEEEEAAAQQQQAABBBBoYoGKAqwm9qHqdRIgwKoTLJtFAAEEEEAAAQQQQAABBBBAoIACBFgFbNRGqBIBViO0EmVEAAEEEEAAAQQQQAABBBBAIB8CBFj5aIemKwUBVtM1ORVGAAEEEEAAAQQQQAABBBBAYIkFKgqweAfWEvs27Yq8A6tpm56KI4AAAggggAACCCCAAAIIIFBzgYoCrDlz5ij4n/8QqFSAbyGsVIrlEEAAAQQQQAABBBBAAAEEEEBgcQIEWIsT4vdLJECAtURsrIQAAggggAACCCCAAAIIIIAAAhkCBFh0i7oIEGDVhZWNIoAAAggggAACCCCAAAIIINCUAgRYTdns9a80AVb9jdkDAggggAACCCCAAAIIIIAAAs0iQIDVLC29lOtJgLWUwdkdAggggAACCCCAAAIIIIAAAgUWIMAqcON2ZtUIsDpTn30jgAACCCCAAAIIIIAAAgggUCwBAqxitWduakOAlZumoCAIIIAAAggggAACCCCAAAIINLxAQwZYHz5zl95d6VvaYq0BcQP88+Fr1LbePtpg1X4N3yiVV2C2Xnz0RW3wza312svPaJNNtqh81TovSYBVZ2A2jwACCCCAAAIIIIAAAggggEATCTRkgDX3s5d10lWv6vLT91erpPZPntE+3z9D593/kNZZrolaT9Ir91ygo8fdqwMu+o0O2Wr13FSeACs3TUFBEEAAAQQQQAABBBBAAAEEEGh4gYYMsNQxX7eeNkIffOd0nbrdmvrTVcfp/v93ii7+8ar68JX7dMFV92m+pF59N9IZ5x2lAZqiq08bo5dnzFVrr7464Yzz1HPyQ/FyUqu2Hn6CttTL+teqO+m7ay+rz575pd7ttYFeuutaPfFh1M6tvTTikN305GPT9ZPjhqlHl9L2f+L2y3XrI/+IfrGMdhs5Rrut3aL7xh6v+/4rrTV0H508Yjs9ffsETVtmvu677xkN2ekoHTdsIz3prbvCWkM1+uQRev7OCVq443Bt4yab6YnbJ2jh9nvq44k3a9AhR2qjftJ9N45X/91/lliuM3snAVZn6rNvBBBAAAEEEEAAAQQQQAABBIol0JgBVtAG01/WyJNv12kXHaUxZ12lkf93gYKMZ9Ijv9LzK++i/VZ9W8N3ukZjH71WHa/dpb927KDhW/TXpIkj9MAKP9XOPf6sibP21rnfX0nTXrhG1725uXbUw3p28OE6ZO2puuykYzRrhzE6e+/NpPfv0Kibumjs6B9LHz+sESc+rwtvGaneXUs7w2/PGaWOg8dqr9Wl528fF25vneeu0O0r7K3rh62rP147Uh07nKY5tx2rCe/tql9dv6NuGXmivnncFXrz+nPjdf940UlqO/BMzbvm/Phndm/hPg48Xf89/RRtdslV2nrBXzTi4Mv07RvuCfebh/8IsPLQCpQBAQQQQAABBBBAAAEEEEAAgWIING6AJempiefqpofu0fr73qbjdl4nbJEXfvML/W/b/fXd7m/FAdbqPTrU8tIvtOWIX2lh23xtf+K1Gr7S38oGWOvPeFlf6jlJt/13c43MCLB22fYEfdp/WbVoiK568iZt6vWFrABrytV76J435qqbpAXzZ2vgwbdqzym/VtuBF2jfgdIbD1+h2+ftrQ2eH6Wx97+uXl2kVQbvohuuH6WHzz8s/tn6W5+oqy8cpnsSAdYYvTHh71puxmPqdpgJzvLwHwFWHlqBMiCAAAIIIIAAAggggAACCCBQDIGGDrBm/Odv2vHnf9G9t56ulXuaBvn9VSdo6AHn68sdr8cB1kcPXqx7/7myjjp2f7U+fYHGf/Rt7VkuwFp5Sw1cuIy+3u/v4aysrADLzsDq8t6f9cN9/qSb/3qBVg7SKUlZAdaMO8Zo69Mu1ZZ9Xaf57TnH6NM9rtAR60mv3nelnlxtPy3/h4vj2VYPXX6yPtnldHW/bVz2z6IZWCsdtIfW/8rX9M4NbvZWHromAVYeWoEyIIAAAggggAACCCCAAAIIIFAMgcYMsBZ2aNqnU/XCPdfqva+O0EFD+0taqFnTntIFRz6owy47Sr1mv6Zj9pmgsx66Tp/89gw9ufbB+snAD3XMPqdog5Ov0C49H9O93Q/SmTv7jxDepUMv7Kb7Xjhby0SPFWYFWEce/bhOvewotb1xvw69dLZ+94ejZN8dnxVgbT35Zo24p49+ed7uennCOH3ynTPU93cn6crH1tb1v95dN4++SCddfK3+culofbb7Cdp9FempWy9TjwNHaeYvzo1/9odLTtNqJ/+fZowfGz1COEyvDjhUN/1fNCsrenQxD12TACsPrUAZEEAAAQQQQAABBBBAAAEEECiGQEMGWAvb2/TSc09ppvroG1/dWN26tkjtczTuoNH6fz/5ntaM2mbWvx/QK3320im7DtQzz7+itvYeGrTZ2lq+rV3vv/WO+m/yNa3co1Vt09/RO7P6a0V9qMld19JXVu4R/2zQav2kzydr0rvSkMGrSvOm6Om/vaI54T56aMiWW2nVaPZX8JPJb06S1hwS/mz6B2/ps2UHamA/6e1nH9fbM6VllltTX914kO4eM0pzv7e/Vp/xkQYM3lxDV++jyW++pEnvfxpuuWffAfrapkP18VvuZ3bd//1rkrTGOpoz6Tn1HLSFVu+T3G8euiYBVh5agTIggAACCCCAAAIIIIAAAgggUAyBhgywMuk75umuy+7V5if82Auw/qgHJ6+jYdsMyl1r+TO1cle4GhSIAKsGiGwCAQQQQAABBBBAAAEEEEAAAQRCgeIEWA3WoHNnzpB691WvjG8ybLCqZBaXAKsIrUgdEEAAAQQQQAABBBBAAAEEEMiHAAFWPtqhcKUgwCpck1IhBBBAAAEEEEAAAQQQQAABBDpNgACr0+iLvWMCrGK3L7VDAAEEEEAAAQQQQAABBBBAYGkKEGAtTe0m2hcBVhM1NlVFAAEEEEAAAQQQQAABBBBAoM4CBFh1Bm7WzRNgNWvLU28EEEAAAQQQQAABBBBAAAEEai9AgFV7U7YoiQCLboAAAggggAACCCCAAAIIIIAAArUSIMCqlSTbSQgQYNEhEEAAAQQQQAABBBBAAAEEEECgVgIVBVi12hnbQcAKjJ94r47cd1dAEEAAAQQQQAABBBBAAAEEEEAAgcUKEGAtlogF6iFAgFUPVbaJAAIIIIAAAggggAACCCCAQDEFCLCK2a65rxUBVu6biAIigAACCCCAAAIIIIAAAgggkBsBAqzcNEVzFYQAq7nam9oigAACCCCAAAIIIIAAAggg8EUEKgqw5syZo+B//kOgUgFe4l6pFMshgAACCCCAAAIIIIAAAggggMDiBAiwFifE75dIgABridhYCQEEEEAAAQQQQAABBBBAAAEEMgQIsOgWdREgwKoLKxtFAAEEEEAAAQQQQAABBBBAoCkFCLCastnrX2kCrPobswcEEEAAAQQQQAABBBBAAAEEmkWAAKtZWnop15MAaymDszsEEEAAAQQQQAABBBBAAAEECixAgFXgxu3MqhFgdaY++0YAAQQQQAABBBBAAAEEEECgWAIEWMVqz9zUhgArN01BQRBAAAEEEEAAAQQQQAABBBBoeAECrIZvwnxWgAArn+1CqRBAAAEEEEAAAQQQQAABBBBoRIGCBlhPa/jWZ6jXemuZNmmbpb89vbruf+NCDWzEVmrAMhNgNWCjUWQEEEAAAQQQQAABBBBAAAEEcipQ2ADr9BP/rnMvOcawT52kLXeaqF8/dy4B1lLqiARYSwma3SCAAAIIIIAAAggggAACCCDQBAJNFmCdrvcmjtNf3u2p3u3t+mitb2nMrr114JYn6f/ts7NWbP9UCzbbT2fvNkhPZCy3z9cP0i7X3K1Dt11bmvGkdv/mSO37h8e0+X9v0xX3TNKX11hJ/5vVWyNH7qtfHHSKNrvkKu04/w6NuqmLxp62i8aFP7tIvX41Ug/MHKQVlpmrv77WVReet7MevvsRvfiXP2vhJjtog4Hra6tuz+nZwYfryE2Xa8huSIDVkM1GoRFAAAEEEEAAAQQQQAABBBDIpUBTBVi/+u22GrbP4/r1vUdpOU3T1d/fR9tcc4NuOvR4nfnQY1q39/s6atuT9ZPxh+jwn2Usd8A4LXPogbr2mJ3175tG6Kw/tmi3C87Xn08eowOuOVnrSnrixrM1aasL1PX6U7MDrPMu1vqrdVPf2dM1e/ZMXX3c+drmymu040rSb88ZpY6Dx2qv1aXnbz9ff1lxmA7YsL9auvTWCgOWVZdcdqHsQhFgNVBjUVQEEEAAAQQQQAABBBBAAAEEci7QVAHWL67fSAed+7rGHrWNekQNM2RQH4388Q0a++i1WqPXVI3bcietc8pIjZmQtdx12nW/oVrrR7vqgnHP6gcrvqTWvU/WH88/Sz8avrv6RdscsM7G+uOo0WVmYJ2v6ReP1uM9B+r731xXd132G/3wppszAqxzdcfModp57WX17kO/Ud99T9ePhq6e8+7kikeA1TBNRUERQAABBBBAAAEEEEAAAQQQyL1AUwVYv77/hzp6zws15je3aKP+7XrimTe14VdadPgOR2jE7x/RV5f5tw76ySO68uZv6tCM5Ubsco3G/nIXnXzhU/rGESdq1QcvVccBp+uNc3+mgT+9WAdtNkD/ff1V9VhzbU34aZlHCE8bodGn/V533v5zrTj9de2/zxgd9qtfZwRY4+JHCD94+Dz9euYuOumHG+e+Q9kCEmA1TFNRUAQQQAABBBBAAAEEEEAAAQRyL9BcAdZz52iZtx/VEYeeqg9n99EPxt6g4zeZpp9sO1azBs/Th5/31S3XjtdXVl1WUzKWO3jnazT20av1wHkHaLdTb9Xjl4wOH/n7Qf+3NHrfvfT4lB7aYKef6fJTf6QrDtlLv/nXVPXQXM2c06I+y/bQrM+W16WP3KOOa7fXaQ8sUL8+G2jL5aZoyFl3a9+vpB8hPE1HXPKIundrUffuG+j6e8ZrnX6tue9QBFgN00QUFAEEEEAAAQQQQAABBBBAAIGGEShogFWF/2cvavhOQTAVPEJYxXosukgBZmDRQRBAAAEEEEAAAQQQQAABBBBAoFYCBFgzXtMx+07Qz+8cp1V71oqV7RBg0QcQQAABBBBAAAEEEEAAAQQQQKBWAgRYtZJkOwkBAiw6BAIIIIAAAggggAACCCCAAAII1EqAAKtWkmyHAIs+gAACCCCAAAIIIIAAAggggAACdREgwKoLKxtlBhZ9AAEEEEAAAQQQQAABBBBAAAEEaiVAgFUrSbaTECDAokMggAACCCCAAAIIIIAAAggggECtBAiwaiXJdgiw6AMIIIAAAggggAACCCCAAAIIIFAXAQKsurCyUWZg0QcQQAABBBBAAAEEEEAAAQQQQKBWAhUFWLXaGdtBwAqMn3ivjtx3V0AQQAABBBBAAAEEEEAAAQQQQACBxQoQYC2WiAXqIUCAVQ9VtokAAggggAACCCCAAAIIIIBAMQUIsIrZrrmvFQFW7puIAiKAAAIIIIAAAggggAACCCCQGwECrNw0RXMVhACrudqb2iKAAAIIIIAAAggggAACCCDwRQQqCrDmzZun4H/+Q6BSgb59+y5yUQKsSiVZDgEEEEAAAQQQQAABBBBAAAEEKgqw5syZo+B//kOgUgG+hbBSKZZDAAEEEEAAAQQQQAABBBBAAIHFCRBgLU6I3y+RAAHWErGxEgIIIIAAAggggAACCCCAAAIIZAgQYNEt6iJAgFUXVjaKAAIIIIAAAggggAACCCCAQFMKEGA1ZbPXv9IEWPU3Zg8IIIAAAggggAACCCCAAAIINIsAAVaztPRSricB1lIGZ3cIIIAAAggggAACCCCAAAIIFFiAAKvAjduZVSPA6kx99o0AAggggAACCCCAAAIIIIBAsQQIsIrVnrmpDQFWbpqCgiCAAAIIIIAAAggggAACCCDQ8AKFCLCeefB2PfPPj8PG2HbvYzR0JdMuHW1z9fs7btX7n84L/73RDnvqW+uv3FiN9vlH+t3E57T9gdvpudtv1D+mRcVv7and9hyutQb0ymV9CLBy2SwUCgEEEEAAAQQQQAABBBBAAIGGFGjoAGthe5v+dMF39eTKZ+usQ7aS9E8du8MoDZtws7656jJ68ooj1f69C7XNoOUasnHCQn/2oobvdI3GPjpGt518og6/8BYt17ur5n72ivY7cqIun3ih1mjNX/UIsPLXJpQIAQQQQAABBBBAAAEEEEAAgUYVaOgA63+v3qezn1lTlx+6kbpFLTD3vb/r+8c+q19N2FZjDnpMq236nv7z9lR9abeRGrXb2pr17z/qwcnraNg2g6Qpj2vCwy0avveWevmuy3T1g5OkLQ7RdYdsoVn/vk9njLtPs6Ptjjj3On15prfuP+/SfW/2kV69U/f91zX/bnvsqX899E8dcN5RGtCjtFu89fitunTCE1oQ/qpVWw8/QQdss4Yev/o0TXh5hvrvdKIuHLauW7FMgCV16B+3nqaJ/X+q87+/Zu76HwFW7pqEAiGAAAIIIIAAAggggAACCCDQsAINHWA9f/s4PTv4cB25qTfDat5knfCto7T31Udr+P4n6qwJ92mfr/bTXYftp6l7X6kfL/dHXffm5hq592bS+3do1E1d9PN9e+voO2folz//kR4/dy89ueFYHb7GX+PlPv/LmTrt1W/p9K3fDH920u5r6Jdn/0zP9t5Lvxj9Y+njhzXixOd14S0j1XumnTF1rdbIeLrPL/O0F64Jt7f7Ci/ozLfX0x2Hb6y7TvqxWve/UbtvvIrpVGUDLEn/mKh9f7Ocbj17F+VtEhYBVsOOCRQcAQQQQAABBBBAAAEEEEAAgdwJFC/A0lSN2/JYfXv8wTrsZ4/rgSfO1IpdJL1zm0ZN6KGTvzdZux1yqzp6dZM65mq9743S2K++podXPET7br5m5nIdc1fRpfffpq98eHMYOP1okzla9vP/6Mp7emtsRoD1o6/trw9W6KeuLSvrrHtv1XcGLBs3fFaAtfnnD6jP94/X5sv31qfPXq0b3v6GTtlz04oCrP3vWUm/HPUddc1Z1yLAylmDUBwEEEAAAQQQQAABBBBAAAEEGligoQOsqZMe0jE3zNXVF++u/lEjTP/3o9pv3AeaeMVmOmu7W/Tzv16glYPnC1+/ViP/sJp+vuP7JTOwjtv0Zf26+/469jtDMpeb8eQFOu+JDcy6L66gdfr2025fn6Yzb+6SGWCZd1Zdq5XnTNIeO12pcU9crSE9TQEzA6wZv9OMHU/RD77cV1MevVC3zvyuTthtw8UEWO16+LyD9MwWl+i0HaO31ueoIxJg5agxKAoCCCCAAAIIIIAAAggggAACDS7Q0AFWYP/C1d/X7fMP00n7bRG+xH30PtfqqLuu14b9e+nVG3+qh1Y8QMM36qnTDjxeu191r7aaf1tJgHXGMUN0wJiHdPXIPXTP6EPUZfgt+lGv+3T58+voZ7sPDXaiy9/9jk766gv63k8m6ZaXr9a60eOHWTOw9v/25Trxzgu1/Kev6sDjn9LER0/X6lFHyQqwhq/3nvaaOFt3nbSFbjn5CG15xp3a2r543nuEcOLxR2vYqZepf6+umjv9NZ087hmNv+FUDchhJyTAymGjUCQEEEAAAQQQQAABBBBAAAEEGlSg4QOswP3t15/V2x/NDJtg8Obba/U+pjWCbyl86bmnNG32AvVZazNtvlY/tU1/R+/M6q9Bq/WTPp+sSe9KQwavoilvvaRX3p0mrbyetl9vZbVNf1tPPf929LJ1aeg3tle/+W/rzU/7aP21BnjrrirNm6JXX/9M6208SF0XTNezjz8vU5pWrbXZN7RWP/uKeWn6B2/ps2UHamC/bl5ZltXkV57UpClt6r7mJi68CjbRNl0vPv2Ohmy5rt559m+aPMfUraW1mzbdfEv165W3hwdN+QiwGnREoNgIIIAAAggggAACCCCAAAII5FCgEAFWDl2bvkgEWE3fBQBAAAEEEEAAAQQQQAABBBBAoGYCBFg1o2RDvgABFv0BAQQQQAABBBBAAAEEEEAAAQRqJUCAVStJtpMQIMCiQyCAAAIIIIAAAggggAACCCCAQK0ECLBqJcl2CLDoAwgggAACCCCAAAIIIIAAAgggUBcBAqy6sLJRZmDRBxBAAAEEEEAAAQQQQAABBBBAoFYCBFi1kmQ7CQECLDoEAggggAACCCCAAAIIIIAAAgjUSoAAq1aSbIcAiz6AAAIIIIAAAggggAACCCCAAAJ1EagowGpra1PwP/8hUKlA7969F7no+In36sh9d610cyyHAAIIIIAAAggggAACCCCAAAJNLFBRgNXEPlS9TgIEWHWCZbMIIIAAAggggAACCCCAAAIIFFCAAKuAjdoIVSLAaoRWoowIIIAAAggggAACCCCAAAII5EOAACsf7dB0pSDAaromp8IIIIAAAggggAACCCCAAAIILLEAAdYS07HiFxEgwPoieqyLAAIIIIAAAggggAACCCCAQHMJEGA1V3vnprYEWLlpCgqCAAIIIIAAAggggAACCCCAQO4FCLBy30TFLCABVjHblVohgAACCCCAAAIIIIAAAgggUA8BAqx6qLLNxQoQYC2WiAUQQAABBBBAAAEEEEAAAQQQQCASIMCiK3SKAAFWp7CzUwQQQAABBBBAAAEEEEAAAQQaUoAAqyGbrfELTYDV+G1IDRBAAAEEEEAAAQQQQAABBBBYWgIEWEtLmv0kBAiw6BAIIIAAAggggAACCCCAAAIIIFCpAAFWpVIsV1MBAqyacrIxBBBAAAEEEEAAAQQQQAABBAotQIBV6ObNb+UIsPLbNpQMAQQQQAABBBBAAAEEEEAAgbwJEGDlrUWapDwEWE3S0FQTAQQQQAABBBBAAAEEEEAAgRoIEGDVAJFNVC9AgFW9GWsggAACCCCAAAIIIIAAAggg0KwCBFjN2vKdXG8CrE5uAHaPAAIIIIAAAggg/Jrk9wAAIABJREFUgAACCCCAQAMJEGA1UGMVqagEWEVqTeqCAAIIIIAAAggggAACCCCAQH0FCLDq68vWywgQYNE1EEAAAQQQQAABBBBAAAEEEECgUgECrEqlWK6mAgRYNeVkYwgggAACCCCAAAIIIIAAAggUWoAAq9DNm9/KEWDlt20oGQIIIIAAAggggAACCCCAAAJ5EyDAyluLNEl5CLCapKGpJgIIIIAAAggggAACCCCAAAI1ECDAqgEim6hegACrejPWQAABBBBAAAEEEEAAAQQQQKBZBQiwmrXlO7neBFid3ADsHgEEEEAAAQQQQAABBBBAAIEGEiDAaqDGKlJRCbCK1JrUBQEEEEAAAQQQQAABBBBAAIH6ChBg1deXrZcRIMCiayCAAAIIIIAAAggggAACCCCAQKUCBFiVSrFcTQUIsGrKycYQQAABBBBAAAEEEEAAAQQQKLQAAVahmze/lSPAym/bUDIEEEAAAQQQQAABBBBAAAEE8iZAgJW3FmmS8hBgNUlDU00EEEAAAQQQQAABBBBAAAEEaiBAgFUDRDZRvQABVvVmrIEAAggggAACCCCAAAIIIIBAswoQYDVry3dyvQmwOrkB2D0CCCCAAAIIIIAAAggggAACDSRAgNVAjVWkohJgFak1qQsCCCCAAAIIIIAAAggggAAC9RUgwKqvL1svI0CARddAAAEEEEAAAQQQQAABBBBAAIFKBQiwKpViuZoKEGDVlJONIYAAAggggAACCCCAAAIIIFBoAQKsQjdvfitHgJXftqFkCCCAAAIIIIAAAggggAACCORNgAArby3SJOUhwGqShqaaCCCAAAIIIIAAAggggAACCNRAgACrBohsonoBAqzqzVgDAQQQQAABBBBAAAEEEEAAgWYVIMBq1pbv5HoTYHVyA7B7BBBAAAEEEEAAAQQQQAABBBpIgACrgRqrSEUlwCpSa1IXBBBAAAEEEEAAAQQQQAABBOorQIBVX1+2XkaAAIuugQACCCCAAAIIIIAAAggggAAClQoQYFUqxXI1FSDAqiknG0MAAQQQQAABBBBAAAEEEECg0AIEWIVu3vxWjgArv21DyRBAAAEEEEAAAQQQQAABBBDImwABVt5apEnKQ4DVJA1NNRFAAAEEEEAAAQQQQAABBBCogQABVg0Q2UT1AgRY1ZuxBgIIIIAAAggggAACCCCAAALNKkCA1awt38n1JsDq5AZg9wgggAACCCCAAAIIIIAAAgg0kAABVgM1VpGKSoBVpNakLggggAACCCCAAAIIIIAAAgjUV4AAq76+bL2MAAEWXQMBBBBAAAEEEEAAAQQQQAABBCoVIMCqVIrlaipAgFVTTjaGAAIIIIAAAggggAACCCCAQKEFCLAK3bz5rRwBVn7bhpIhgAACCCCAAAIIIIAAAgggkDcBAqy8tUiTlIcAq0kammoigAACCCCAAAIIIIAAAgggUAMBAqwaILKJ6gUIsKo3Yw0EEEAAAQQQQAABBBBAAAEEmlWAAKtZW76T602A1ckNwO4RQAABBBBAAAEEEEAAAQQQaCABAqwGaqwiFZUAq0itSV0QQAABBBBAAAEEEEAAAQQQqK8AAVZ9fdl6GQECLLoGAggggAACCCCAAAIIIIAAAghUKkCAVakUy9VUgACrppxsDAEEEEAAAQQQQAABBBBAAIFCCxBgFbp581s5Aqz8tg0lQwABBBBAAAEEEEAAAQQQQCBvAgRYeWuRJikPAVaTNDTVRAABBBBAAAEEEEAAAQQQQKAGAgRYNUBkE9ULEGBVb8YaCCCAAAIIIIAAAggggAACCDSrAAFWs7Z8J9ebAKuTG4DdI4AAAggggAACCCCAAAIIINBAAgRYDdRYRSoqAVaRWpO6IIAAAggggAACCCCAAAIIIFBfAQKs+vqy9TICBFh0DQQQQAABBBBAAAEEEEAAAQQQqFSAAKtSKZarqQABVk052RgCCCCAAAIIIIAAAggggAAChRYgwCp08+a3cgRY+W0bSoYAAggggAACCCCAAAIIIIBA3gQIsPLWIk1SHgKsJmloqokAAggggAACCCCAAAIIIIBADQQIsGqAyCaqFyDAqt6MNRBAAAEEEEAAAQQQQAABBBBoVgECrGZt+U6uNwFWJzcAu0cAAQQQQAABBBBAAAEEEECggQQIsBqosYpUVAKsIrUmdUEAAQQQQAABBBBAAAEEEECgvgIEWPX1ZetlBAiw6BoIIIAAAggggAACCCCAAAIIIFCpAAFWpVIsV1MBAqyacrIxBBBAAAEEEEAAAQQQQAABBAotQIBV6ObNb+UIsPLbNpQMAQQQQAABBBBAAAEEEEAAgbwJEGDlrUWapDwEWE3S0FQTAQQQQAABBBBAAAEEEEAAgRoIEGDVAJFNVC9AgFW9GWsggAACCCCAAAIIIIAAAggg0KwCBFjN2vKdXG8CrE5uAHaPAAIIIIAAAggggAACCCCAQAMJEGA1UGMVqagEWEVqTeqCAAIIIIAAAggggAACCCCAQH0FCLDq68vWywgQYNE1EEAAAQQQQAABBBBAAAEEEECgUgECrEqlWK6mAgRYNeVkYwgggAACCCCAAAIIIIAAAggUWoAAq9DNm9/KEWDlt20oGQIIIIAAAggggAACCCCAAAJ5EyDAyluLNEl5CLCapKGpJgIIIIAAAggggAACCCCAAAI1ECDAqgEim6hegACrejPWQAABBBBAAAEEEEAAAQQQQKBZBQiwmrXlO7neBFid3ADsHgEEEEAAAQQQQAABBBBAAIEGEiDAaqDGKlJRCbCK1JrUBQEEEEAAAQQQQAABBBBAAIH6ChBg1deXrZcRIMCiayCAAAIIIIAAAggggAACCCCAQKUCBFiVSrFcTQUIsGrKycYQQAABBBBAAAEEEEAAAQQQKLQAAVahmze/lSPAym/bUDIEEEAAAQQQQAABBBBAAAEE8iZAgJW3FmmS8hBgNUlDU00EEEAAAQQQQAABBBBAAAEEaiBAgFUDRDZRvQABVvVmrIEAAggggAACCCCAAAIIIIBAswoQYDVry3dyvQmwOrkB2D0CCCCAAAIIIIAAAggggAACDSRAgNVAjVWkohJgFak1qQsCCCCAAAIIIIAAAggggAAC9RUgwKqvL1svI0CARddAAAEEEEAAAQQQQAABBBBAAIFKBQiwKpViuZoKEGDVlJONIYAAAggggAACCCCAAAIIIFBoAQKsQjdvfitHgJXftqFkCCCAAAIIIIAAAggggAACCORNgAArby3SJOUhwGqShqaaCCCAAAIIIIAAAggggAACCNRAgACrBohsonoBAqzqzVgDAQQQQAABBBBAAAEEEEAAgWYVIMBq1pbv5HoTYHVyA7B7BBBAAAEEEEAAAQQQQAABBBpIgACrgRqrSEUlwCpSa1IXBBBAAAEEEEAAAQQQQAABBOorQIBVX1+2XkaAAIuugQACCCCAAAIIIIAAAggggAAClQoQYFUqxXI1FSDAqiknG0MAAQQQQAABBBBAAAEEEECg0AIEWIVu3vxWjgArv21DyRBAAAEEEEAAAQQQQAABBBDImwABVt5apEnKQ4DVJA1NNRFAAAEEEEAAAQQQQAABBBCogQABVg0Q2UT1AgRY1ZuxBgIIIIAAAggggAACCCCAAALNKkCA1awt38n1JsDq5AZg9wgggAACCCCAAAIIIIAAAgg0kAABVgM1VpGKSoBVpNakLggggAACCCCAAAIIIIAAAgjUV4AAq76+bL2MAAEWXQMBBBBAAAEEEEAAAQQQQAABBCoVIMCqVIrlaipAgFVTTjaGAAIIIIAAAggggAACCCCAQKEFCLAK3bz5rRwBVn7bhpIhgAACCCCAAAIIIIAAAgggkDcBAqy8tUiTlIcAq0kammoigAACCCCAAAIIIIAAAgggUAMBAqwaILKJ6gUIsKo3Yw0EEEAAAQQQQAABBBBAAAEEmlWAAKtZW76T602A1ckNwO4RQAABBBBAAAEEEEAAAQQQaCABAqwGaqwiFZUAq0itSV0QQAABBBBAAAEEEEAAAQQQqK8AAVZ9fdl6GQECLLoGAggggAACCCCAAAIIIIAAAghUKkCAVakUy9VUgACrppxsDAEEEEAAAQQQQAABBBBAAIFCCxBgFbp581s5Aqz8tg0lQwABBBBAAAEEEEAAAQQQQCBvAgRYeWuRJikPAVaTNDTVRAABBBBAAAEEEEAAAQQQQKAGAgRYNUBkE9ULEGBVb8YaCCCAAAIIIIAAAggggAACCDSrAAFWs7Z8J9ebAKuTG4DdI4AAAggggAACCCCAAAIIINBAAgRYDdRYRSoqAVaRWpO6IIAAAggggAACCCCAAAIIIFBfAQKs+vqy9TICBFh0DQQQQAABBBBAAAEEEEAAAQQQqFSAAKtSKZarqQABVk052RgCCCCAAAIIIIAAAggggAAChRYgwCp08+a3cgRY+W0bSoYAAggggAACCCCAAAIIIIBA3gQIsPLWIk1SHgKsJmloqokAAggggAACCCCAAAIIIIBADQQIsGqAyCaqFyDAqt6MNRBAAAEEEEAAAQQQQAABBBBoVgECrGZt+U6uNwFWJzcAu0cAAQQQQAABBBBAAAEEEECggQQIsBqosYpUVAKsIrUmdUEAAQQQQAABBBBAAAEEEECgvgIEWPX1ZetlBAiw6BoIIIAAAggggAACCCCAAAIIIFCpAAFWpVIsV1MBAqyacrIxBBBAAAEEEEAAAQQQQAABBAotQIBV6ObNb+UIsPLbNpQMAQQQQAABBBBAAAEEEEAAgbwJEGDlrUWapDwEWE3S0FQTAQQQQAABBBBAAAEEEEAAgRoIEGDVAJFNVC9AgFW9GWsggAACCCCAAAIIIIAAAggg0KwCBFjN2vKdXG8CrE5uAHaPAAIIIIAAAggggAACCCCAQAMJEGA1UGMVqagEWEVqTeqCAAIIIIAAAggggAACCCCAQH0FCLDq68vWywgQYNE1EEAAAQQQQAABBBBAAAEEEECgUgECrEqlWK6mAgRYNeVkYwgggAACCCCAAAIIIIAAAggUWoAAq9DNm9/KEWDlt20oGQIIIIAAAggggAACCCCAAAJ5EyDAyluLNEl5CLCapKGpJgIIIIAAAggggAACCCCAAAI1ECDAqgEim6hegACrejPWQAABBBBAAAEEEEAAAQQQQKBZBQiwmrXlO7neBFid3ADsHgEEEEAAAQQQQAABBBBAAIEGEiDAaqDGKlJRCbCK1JrUBQEEEEAAAQQQQAABBBBAAIH6ChBg1deXrZcRIMCiayCAAAIIIIAAAggggAACCCCAQKUCBFiVSrFcTQUIsGrKycYQQAABBBBAAAEEEEAAAQQQKLQAAVahmze/lSPAym/bUDIEEEAAAQQQQAABBBBAAAEE8iZAgJW3FmmS8hBgNUlDU00EEEAAAQQQQAABBBBAAAEEaiBAgFUDRDZRvQABVvVmrIEAAggggAACCCCAAAIIIIBAswoQYDVry3dyvQmwOrkB2D0CCCCAAAIIIIAAAggggAACDSRAgNVAjVWkohJgFak1qQsCCCCAAAIIIIAAAggggAAC9RUgwKqvL1svI0CARddAAAEEEEAAAQQQQAABBBBAAIFKBQiwKpViuZoKEGDVlJONIYAAAggggAACCCCAAAIIIFBoAQKsQjdvfitHgJXftqFkCCCAAAIIIIAAAggggAACCORNgAArby3SJOUhwGqShqaaCCCAAAIIIIAAAggggAACCNRAgACrBohsonoBAqzqzVgDAQQQQAABBBBAAAEEEEAAgWYVIMBq1pbv5HoTYHVyA7B7BBBAAAEEEEAAAQQQQAABBBpIgACrgRqrSEUlwCpSa1IXBBBAAAEEEEAAAQQQQAABBOorQIBVX1+2XkaAAIuugQACCCCAAAIIIIAAAggggAAClQoQYFUqxXI1FSDAqiknG0MAAQQQQAABBBBAAAEEEECg0AIEWIVu3vxWjgArv21DyRBAAAEEEEAAAQQQQAABBBDImwABVt5apEnKQ4DVJA1NNRFAAAEEEEAAAQQQQAABBBCogQABVg0Q2UT1AgRY1ZuxBgIIIIAAAggggAACCCCAAALNKkCA1awt38n1JsDq5AZg9wgggAACCCCAAAIIIIAAAgg0kAABVgM1VpGKSoBVpNakLggggAACCCCAAAIIIIAAAgjUV4AAq76+bL2MAAEWXQMBBBBAAAEEEEAAAQQQQAABBCoVIMCqVIrlaipAgFVTTjaGAAIIIIAAAggggAACCCCAQKEFCLAK3bz5rRwBVn7bhpIhgAACCCCAAAIIIIAAAgggkDcBAqy8tUiTlIcAq0kammoigAACCCCAAAIIIIAAAgggUAMBAqwaILKJ6gUIsKo3Yw0EEEAAAQQQQAABBBBAAAEEmlWAAKtZW76T602A1ckNwO4RQAABBBBAAAEEEEAAAQQQaCABAqwGaqwiFZUAq0itSV0QQAABBBBAAAEEEEAAAQQQqK8AAVZ9fdl6GQECLLoGAggggAACCCCAAAIIIIAAAghUKkCAVakUy9VUgACrppxsDAEEEEAAAQQQQAABBBBAAIFCCxBgFbp581s5Aqz8tg0lQwABBBBAAAEEEEAAAQQQQCBvAgRYeWuRJikPAVaTNDTVRAABBBBAAAEEEEAAAQQQQKAGAgRYNUBkE9ULEGBVb8YaCCCAAAIIIIAAAggggAACCDSrAAFWs7Z8J9ebAKuTG4DdI4AAAggggAACCCCAAAIIINBAAgRYDdRYRSoqAVaRWpO6IIAAAggggAACCCCAAAIIIFBfAQKs+vqy9TICBFh0DQQQQAABBBBAAAEEEEAAAQQQqFSAAKtSKZarqQABVk052RgCCCCAAAIIIIAAAggggAAChRYgwCp08+a3cgRY+W0bSoYAAggggAACCCCAAAIIIIBA3gQIsPLWIk1SHgKsJmloqokAAggggAACCCCAAAIIIIBADQQIsGqAyCaqFyDAqt6MNRBAAAEEEEAAAQQQQAABBBBoVgECrGZt+U6uNwFWJzcAu0cAAQQQQAABBBBAAAEEEECggQQIsBqosYpUVAKsIrUmdUEAAQQQQAABBBBAAAEEEECgvgIEWPX1ZetlBAiw6BoIIIAAAggggAACCCCAAAIIIFCpAAFWpVIsV1MBAqyacrIxBBBAAAEEEEAAAQQQQAABBAotQIBV6ObNb+UIsPLbNpQMAQQQQAABBBBAAAEEEEAAgbwJEGDlrUWapDwEWE3S0FQTAQQQQAABBBBAAAEEEEAAgRoIEGDVAJFNVC9AgFW9GWsggAACCCCAAAIIIIAAAggg0KwCBFjN2vKdXG8CrE5uAHaPAAIIIIAAAggggAACCCCAQAMJEGA1UGMVqagEWEVqTeqCAAIIIIAAAggggAACCCCAQH0FCLDq68vWywgQYNE1EEAAAQQQQAABBBBAAAEEEECgUgECrEqlWK6mAgRYNeVkYwgggAACCCCAAAIIIIAAAggUWoAAq9DNm9/KEWDlt20oGQIIIIAAAggggAACCCCAAAJ5EyDAyluLNEl5CLCapKGpJgIIIIAAAggggAACCCCAAAI1ECDAqgEim6hegACrejPWQAABBBBAAAEEEEAAAQQQQKBZBQiwmrXlO7neBFid3ADsHgEEEEAAAQQQQAABBBBAAIEGEiDAaqDGKlJRCbCK1JrUBQEEEEAAAQQQQAABBBBAAIH6ChBg1deXrZcRIMCiayCAAAIIIIAAAggggAACCCCAQKUCBFiVSrFcTQUIsGrKycYQQAABBBBAAAEEEEAAAQQQKLQAAVahmze/lSPAym/bUDIEEEAAAQQQQAABBBBAAAEE8iZAgJW3FmmS8hBgNUlDU00EEEAAAQQQQAABBBBAAAEEaiBAgFUDRDZRvQABVvVmrIEAAggggAACCCCAAAIIIIBAswoQYDVry3dyvQmwOrkB2D0CCCCAAAIIIIAAAggggAACDSRAgNVAjVWkohJgFak1qQsCCCCAAAIIIIAAAggggAAC9RUgwKqvL1svI0CARddAAAEEEEAAAQQQQAABBBBAAIFKBQiwKpViuZoKEGDVlJONIYAAAggggAACCCCAAAIIIFBoAQKsQjdvfitHgJXftqFkCCCAAAIIIIAAAggggAACCORNgAArby3SJOUhwGqShqaaCCCAAAIIIIAAAggggAACCNRAgACrBohsonoBAqzqzVgDAQQQQAABBBBAAAEEEEAAgWYVIMBq1pbv5HoTYHVyA7B7BBBAAAEEEEAAAQQQQAABBBpIgACrgRqrSEUlwCpSa1IXBBBAAAEEEEAAAQQQQAABBOorQIBVX1+2XkaAAIuugQACCCCAAAIIIIAAAggggAAClQoQYFUqxXI1FSDAqiknG0MAAQQQQAABBBBAAAEEEECg0AIEWIVu3vxWjgArv21DyRBAAAEEEEAAAQQQQAABBBDImwABVt5apEnKQ4DVJA1NNRFAAAEEEEAAAQQQQAABBBCogQABVg0Q2UT1AgRY1ZuxBgIIIIAAAggggAACCCCAAALNKkCA1awt38n1JsDq5AZg9wgggAACCCCAAAIIIIAAAgg0kAABVgM1VpGKSoBVpNakLggggAACCCCAAAIIIIAAAgjUV4AAq76+bL2MAAEWXQMBBBBAAAEEEEAAAQQQQAABBCoVIMCqVIrlaipAgFVTTjaGAAIIIIAAAggggAACCCCAQKEFCLAK3bz5rRwBVn7bhpIhgAACCCCAAAIIIIAAAgggkDcBAqy8tUiTlIcAq0kammoigAACCCCAAAIIIIAAAgggUAMBAqwaILKJ6gUIsKo3Yw0EEEAAAQQQQAABBBBAAAEEmlWAAKtZW76T602A1ckNwO4RQAABBBBAAAEEEEAAAQQQaCABAqwGaqwiFZUAq0itSV0QQAABBBBAAAEEEEAAAQQQqK8AAVZ9fdl6GQECLLoGAggggAACCCCAAAIIIIAAAghUKkCAVakUy9VUgACrppxsDAEEEEAAAQQQQAABBBBAAIFCCxBgFbp581s5Aqz8tg0lQwABBBBAAAEEEEAAAQQQQCBvAgRYeWuRJikPAVaTNDTVRAABBBBAAAEEEEAAAQQQQKAGAgRYNUBkE9ULEGBVb8YaCCCAAAIIIIAAAggggAACCDSrAAFWs7Z8J9ebAKuTG4DdI4AAAggggAACCCCAAAIIINBAAgRYDdRYRSoqAVaRWpO6IIAAAggggAACCCCAAAIIIFBfAQKs+vqy9TICBFh0DQQQQAABBBBAAAEEEEAAAQQQqFSAAKtSKZarqUAQYO21y7f06fSZNd0uG0MAAQQQQAABBBBAAAEEEEAAgeIJPPzkixox/Adq+eyzzxYWr3rUKK8Cs2bP0QorrKD5bQvyWkTKhQACCCCAAAIIIIAAAggggAACORHo0tIiLWxXyzXXXNN0AVZLS4sWLsxvtfNevkX14ayyN3J96nG85t0j7+Wj/32xXlm+fVskZY2Lwc+D/8qNmfb3tlzltmF/nl4+WZ/F97/FlbMyn+AUEJwHzX9+HRddvlRpw3NJUGa3HVNPs/30tsy5p/Tnbqt2Pf8cZUxsOYO/tIRl909jbhm/hFn18v1Ky1eqtygPU65kNe32zXru9247padfWx9Tt0QNoo2XP2VX3l6lZcnen7MvYxW2RUnFK+t48WFi14/aM7QKfhYdahnVKv3RwoR/i4L26DANElXWbG5hoocHPwmWzTyuLVIMHpUzxjP9O9xu/CvTp03f9scBz8/jsr5Z9SnpveFCCzOGHzfOhPtMDDu2Xb1l/EN9YSCSPPLNXpxTemTwjtCy7ZwshiuzO1ZTx77X/Yyn/b0pn1/1xDEWbtqW1ezV+ftjTLJ/mAPStrrfB7wGjTtgdd057BOJa+to+7Yrepvzjzr392jctEXxulHoZ0a9RL2tQelRXH3Z67dGsnTpcdvfb9a5ofQoTZ5f7XHsenxp348HlfBXZo2ktl0i6n+Jw8073qNRwx09rvSubWwbReN/NNYky1c6xtn1v0g7+P0v2F8X0ynNcRX2HXcAODf7u6RrXI70MRqPG6aebpxI/jseIxMVqr6WJUNbBlD6LJVVk3isjTpg5vjnXZuUO6bS2866wvCdjUNk4/U/2xL+OSA8nqODPXuMcGOX226wfbO03/OzymXXDvedcd2SNf5X0x/T/S8ow+KvZxe9B/+ckL42sqNi6Z9Z20yL+j20/DVUdv8rHYNsm5fr4fb4M92vtIeaa5fo+scrvn+cpmvV8qUvfSnckr2gtn+2t7fH8F26hMNAyU79i/Dg7x0dHYnGCv5t1003or9uuTDJLuMP6vGFj3eiDPZhy2vr4u/blsvfXgmEd3Vg9+dfEKS3b8vhl8caBeWxP+/atWtYNvszu21//WA//jp+eYPlgv+D39s62d9n7S8eTIOTVGSU5eubpS98/LLYfdj2tb8L/m1/5ltmtZnfFrYsvgf9L3mjS/9zxw/9z7+pcWOwP55WP/6VntzS47E9vm1f/OLjX9dwHKts/DMXMf74lRz/3E2gHRuTgYM5npLjXzI8MWbmfGWDH7u8GZuckSmzHX9NPdz4l7wMNI72BtKcN4P9dOnSNTqHmu0G/zYe5t92vWA/Zp3g/GuOA7tuR4e94DB/2nXM+qZ8dp3g9x0d5rxhlzXrl65rgzFzYWGdgu3b877drw3RzP5s2Z2lWd63Cv4dlMOUwZQl3Vbud6Z0NsCzdQn+tB62/Hbfzs9do1jbYNmuXVu98687lkwZ3I2+O+dF1zHBb4M26ih3/vX3lxyvbHuWnn9dp+rSpUUdif5ngp/S/uyOmaB9u4Z9M2hn02eCn0Vq4U2pO/+avh1c2Jrzb3TTGoRbYf+L2iH6t738CT/Z1MLI25bHX9fezLqgJVg+WK+jw14zdoRlCf5t+l/we4WWJjizgaf5exi4hT8L7pqtkdnBCi3IAAAgAElEQVRmGNNEoVh4CxT+3vwu/nto2R7fWtuy2Dqb40KJ7dly2Nv4oHzWMShDUOO4PVrs8WjKY/YduUflicfPheaaNyzbwoVqbe2q9gWBgylv2L7e+rZupl1N3a2jraPpE6atw3EwGE88m/iazL+Zjse1jmTKHdXSHLMLwu1kXv8FZlYkGu/s/k3/a4naPB5UojaMQgsviLPr2YDO9D9TX9uG1s/+We39R9B+S3L/EYrHg4j398SxlDzf2OPbv5b9YvcfUfgYZ4jm32E/jvqLv33/kwtbBv+6O7aV1FrF/UewL3PcmgDc9T9z/jLHs/nT7c8bS+whFNkt6v6jJezHZjuZ/c87Advzret/Jnkwx/ni+p+pT/oeNh/3H1H85U5iiWM1617Kb+9q+58ZM8qEBzW5/3XnyvDYrln/q+T+t7QfLEn/C8f+aGwqP/6Zc3Xy/BtdmXjGtv1q0//sWOkOMv+a3ZbF1tmcR1y/d+fLZDkT/SGVrJfvf+7DEjuWf7Hxb8nvf1vWWmutaAyPLkziT9EW3dmzBk6/wpY562f+CcxfLkAIAp/0oJTeVxo2+LcfErmbC3sRlzxo/UZOn4zsv23D+stm/T0d9vjreeN5/Fd38e4OAH8b6cHcL8+itu1vN12n9DZ9L7+Mvqt/k5Ye9OxFdro8dh178Nhy+KGXf5HhH4Dpgblcv8mqW1Y56H/ZiTr9z4Xszdn/3AWjf4yk+0Vtxz8/PPI+sYwuQJPjn7mxSY+1tqzmdyY88P9LhyJu/dIL5CC4MKGSvx0bCJlzhQtR/EDKXF8G/7sLYhc+ufHPXFgHYVB4Ex2FPeYiw9bNrWesTW380MaNu/ZcbMpi6maXt+VLlsN8UudCLlMnF04lQzqzXGASBD7m/GvWd2Uw4VN6m0F5bcBkgyPzM1dXG6b562eV3/VHF3Ql6xqEdDYMMwbJ868tr39B5I+DyZnXLmhzYVziXOntK9n/nI3/8/S5NOwPplHjECa+GYs+1EquY/5lb+zNdYz7WRTnhJ3F9T8XVIUX315oFe06MjKhRyJkCmdiRJ+bJoIht01TBxcq2W0qDHC8EMubeRUGHKYm5gY1CJ5SQZsJdJLLdbQvUNeuJoj1AyZbBlu38OYhCr6CnwXhRXj9F4wLUbgSLBNewMd+UUgWf8JvQ7OoBWwgFQVUYemjD2RNXe2kNhfABeWygWLcd+PAzU2PtBZR49odxjdAgYU9oE3/i/yjg8TW2/aNMFyLfBP9MhVgmb5mrZIztMz1spuDZ+rnjveg7jbcivcbFTMoX9D/bCCVdaMTt6H34awNHPxjLOrdcXiX/l36utaWM31PYNvdjVf++Jjx4Xsw9nshiRn/gv63lO8/7GyouP9FH74EN6Bx2Jm8N/MNlu79hz+bzx9Xs2+uwzaK65fufyZUT4+ZpeOfdw6yM4cS418yXLR90d5DhuODDSRSkyw68/ovCEnsuGLbc2nc/4ZnLn+WZDg+pM+Lzjzrnrd8/3PnEt/Wb+P63X+UBliL7n/2wxVXOnOuMsddeI8bhavxmJLof0kjN0aan9e+/yWvm6vJX+w47bdDetywmUBl4180ansf5C5x/uKND/E5NBUCprMBv/+FM7DKnTQSHT26sEpe9DsSu5N0sp0+MfqFTIcZ6f0lRjfvwCs9AZbOUjAX0N6nYamN+SfdrEHUPxGmT9Dpcvr/9kOcrJNvuk5+x08HQ4mGSswfdxe5WR0xfQNYScfw2yL9aUXiot67qPI7lvVOD26LC6yy6pjVYa0T/W/RAQT9z52gw0+rvVmhWRcszdf/zAl26Y9/yYvV9EWNHWPsjKFygbZZz5vNEM9cMLf3LgBKPybugh8bgvn7cMGSm/Hkfu9CNTMO2T4WlSa80LE33sHvgtlV0WyJKAQx67jAzN07JWeA2e2bNrKzMkxg4s+osg4uZDI32GbfdmaXbWuz3/QMrGSYZkInU2cb0LjAK1l++9igW86a+j62vDb0M2W2s7TMur6D65cuiLIOrr/467m+7GZkuYDT1SU+A3rdzj2C6feH+NwXtpsfKCb7r6mTCZJsUOD6hb1Zs0Gg7Sfmz46FHeoat637IMufgWXPd+lHwwyYna0VLhXNYohmoESzq9xs7Wi2RBww2ZuMZHhk62Ae1bN1j66r4pDL3XT6oZabGWVnY9hZP2Y74X2qP9smCoPCGR1xYGNmSMUzm+LH45IzshYqKrcXmMVhln0wKvqdmbHmZmq5UCw6VmwIFpbS1Tls6bi8UfnNXLBwD8lymt/bsSI87u0FuDeLyX++0YZP8fEWlddd/0WzzhLXvN4REPU9s7x77KLFC/7dseweiYxv7r1ZYPaGNn39Z0LHrA+13YxAP3RLXP8FZYpmf7rA1M6oM/VI3siWXr/bscBfzr8+9g7kaIPBrKGgLfyZXfa480KQaEVbXndtGx2HNnQu2UE05nuzpGw4Y+uTvk9I33/YkdWNc76DszZnMve7uD/ZkTn1CpQlvv/wbsiT51+3b9/Hf3wp6OfuAwQTuLZ266aurcH5JwpNUw/pRtm6Cebi49KOf9Gjx/ZDibj+0XhuNxqMn+0dal+wIAytrWWy/3UJw+elfv2XmLWWDBxK+7z/YYI3o3ux/S963NELByvtf6GV1//TZfL7pf+7uF9Hj4KWv//1xoYyM70Sh1VV/S99/k3O9rLPs/v3qnZGod1n6fjnjjl//As+lEjXP76njs4N9ly99Pqfq2/G0BQ/eldu/EuHWKXjX/REVcX9z00OqrT/LXr8S47V2f0vujL1xr9wBpatjG2kch0066Yn7hTBxUJX95hI+AlNNDPK367FX9SNtn+jGSxvpju7wSor4LDLBOum17cnPttJ/Q5tLvbdYOOfJO3y/kGRPlmkD3q/Mf0gyV/P356/b7stvy5pJ/+i2dbDD7Hs8n7Z/ROptbFl8Lef7oh2GX993yftZtsqq05+uWzK65fFzFhIPjqUbif6XzK88o8Df1DL6nf0P9O3wpua6FPW5u1//o3/0hr/3CMyix//zGPX/nJ2bDLjjznPZI9/fiDgHnN267hQx479ph/4n6i5kCVYxgUxJhjyZ1+5E61ZPz2zKTot28vGcFum/9lPjm0Z7cWfDZLcEe2CrPQjfW5/drsuWOkaz4yywYoNj2xwZOttLF1Y5XsEPw/sFiwIzr9uNpk9V5lmMJ9y28f8XFDngigT8Lk6m/XNzCd//7Z9g9/b5f1ZaeYYNuW16yXL6weM6UDTXST5YZPfRsG2wrosWBCHgf55x51/XftUfv51F33+42Fm+6WfXpv+35H4IC74d/IC2z6GYoIdUxb/02g3Syr4fRAomP5nwiMbgJnzr511Y9vEBVDmnBL2dm/mVLC/6MO0cFy14YEpY7B8eN0WzbSy9YwDJ28mlelFNpxzHsHPTN9aED96GJYlDvHM302bBXWy4Xx0cxKVN3SJHiU0Lece5bPbM8dyNLtoof8onw1Yom1HIaIdg/yJJDbMC9sumsVk7dzybpaV2bcpT/L6zzze567PzPhggyEbZPrXXP6+7fWffbTOn4Xijt3g4CtzI+LN/kle/3kzV6MxuNxYbJ1duy/q/Nte0fVfqOTPnIpmsgTWX/z+w7WBfz1V//sPd7wmrq+jD9864/5jQTij0e9/9kPz0kkBwfmh73L9w1NIMG4Gfwb91N6LxWG6d3Nsx9QwZLCPLqXelRbW286EDAMvMyuya2urunXrpumfTtOCtray1wK2De12zPj3xa7/svufeUy7+v4XHSFef7bHZr36nw1D/TEgfR9nr2+qv/9NnsOy7kP8/fr3JH5bBfsv3//ch0Z2HXf+TT5un+5//r3uou5/w34ff1BhH8F3wbjxcdfNix7/ksH3kve/Mk+TRTNJF9X/7Mxse8yZIbT0sWi/DRbf/8o/Rujvx+7LD5MTx+UXzF9K3oFlB5t0JbM6vF9Qv7OXK+ByvZfR1oMGa2Df/lprxZX09tQpenvaVN3/2suJQcjHS3e0dKdP35jbctttuAvOJHj6QPL36Teu/3P796xAyO/E6Y6Sro9fRlt+28C+nV+39Pb98CLLPj34LGrgSBumgxH7b//kardnp0r62/dnSfnrLq4Mwe/r2f/Sbbmodsrqw3ZAXFRb0P+MHP3PzQTz+0vWWJDuM/Uf/5IBVtYJJ/0zv0xLNv65fS56/HPLlR//kmFYcvwz6yf7nyl9sD1/1lHyGHfLJIMRd7/khytme27Wlf23H3CZerr/3eN/LlixwZENffxZVuY85GZt2RDIhkaujVy9/PDIBj9udpILqdyjgGHJS2ZCpR/3c/tMvh/MfxeWKU9yW9bMru/PuDLtm3yU0prZbUWtEjWVKX97uz/zyQ/1bBtmzXQz9bRmthzu/Jt8dCgc6+X6WemY7/cp9y4126eyxz/vwtG/Cffe51R6PZO8UDbhlf/JsflgL36cL5rdYMuR9a4m+w4tPwQxLuZRP/toj32UzQ+WzMwLGyCFt4ThIyhmpo0Lj8zMnigIS78vKi5vHBvH23QzlZKP6pmgxY2pibDLzkrzZmDZ2VYmkDJ3xsbWf5QwmkXnBYh2Bpr/muv0I5TWyF4n+jPQTLAWHWf24I/qa8cgG+DZf5tHQpPv8wk24b+3xPS/KFCMw1v3oUywTz9I8wMs/3rOv6m0/cbfT2gUBX3xg4peUGVv3oJ10+8g8q9lTY8M0wdT+yi8sMskr+OdWbXXf+GNpvfeMP+85d872OPB/7P0+s99KJI8N7gb41ref9h3Wdljzx2zziM57ySameU9WeLGs9IZP9Y9q87pPlHZ/Yc/I8+OOV3U2r1VPXv1StzD1f/6L5jx1RqGWEF/9QOHpXn/YT/6qeT+N90H/XZf1DViGFwv5sP9eCxJzXxK3/+mH5vNutdd8vvf0gA4Xa90f/XHjPS9ZPnrPze73lzTRbOMo8fRAotF9b/EO+S8oCoofdfovXPm/OU+1LTHkutbbuxNjxX16X8uv0jfn6frmzl2ZQyApeNf6UL+GBpeE3nXKrbPlcsLfLPS8453Ls94uswvW7pUifsP/x1YfoOlB+rwhBU9khOfiDOeKc66uQ+6wfLLLKtf7X+o1l1+QInSv2d8psNu/6XenvrJIh9tsQUPE9oFC0pezOeD+gduegC3dbOd3F8vq1Ftw9nlFzX4+yfo9Akp3Yj+oGTL4D8Hnb6YNQerm6lk1/c/Afb3mf7kyKa06U5p17H1s852f7bd7ScM9udZfcIPrNJu6Vly/kCZ9ff04Lek/W9RA3LWAVruxE//6/z+F7SX7YdBf8gap+ILZu+LBoLlsvpf1rGfNdh+kfGv0v5n97Go/ufXw80ESl682gseOy74+3fHpPlkyf673Lhlx1HftPS4tLNi3Ejrb8/sv/TdVtnjn5nJYYMmU0YTFrnxL3nyS49/NhtIjn/mpe3BttOP3Zm6mQuh4HfBbCNbNnPMm3AjeD+U/3M788hceCXfTWXrbB79My9XN+Wx5tbDBTDm3GM/9fZfDG5+btZ3F4n+rCY3oyi+fInN/ZDIBkkuOIs+2Y6CJBuAueXCIyTxCKOdkWX6XzKwMu1uH6+zM+XsMsbI9oXkLDT/MU03K80cn8l3atlcwO7LnBf8i2f/ts/NIkjOunI/t+7Bn4nzrxdg+eeydH+u/PxrZj+F+/NuStz511yIJ8+/5l0d9txtghj3jg0XfHgzGbz3MNllgz+D8CucyWTfrZV4b5XZrpsdlQx7zNhkjxHz2Jzdtn2Ezj1WkRE+xUODP+MoOQvKbtMcj+4RR9MHzOyLoAzB/8FMj/gdOnFA5h7nszOp7Lu64l4ch2AdWui9jNqvg+099r1ddlaXHYvcY5ymHf3wyRqG1Y1CG9Nf0uGluyn1Z8K5/udmwNj6x9dd8Xv0opepxy8dLn2SwM1cc7Of3DWPe9wx2Efi+s97SXbp9Z9pi8qu/9x2Tf8rfXG3nc1gr72X7Pxr6pJ1/1Hp+dcFsMlHHO01Qi2v/8L37Hj9L33+TVxjp65jFnv/4c2nTZ+3/eulJbv/cOdGu36/5ZcPX8jufyOfvW7wn5yp9f1HUJd5cz9X2/z5ZnSxM7m8GSbWsdz1X7rPLfo6x39NgJvdnb7Wic/A3pdo2f24K6RwT/H1a7ot0tdY/nlhSe9/bShjy9sezRDNugYO39voBYO+Y/n+F9Wnrv1vUfe/WeOfe3Krkv4Xv6evS5c4oM++/zXbTd+T1u/+173I3rZXuk38Y9tv0/BYTIVE5fqofzz4fTXZ/4Jr5DrnL/GXvphr/XL9L36Juy2s3zn9g9mvjL1BspVd1A6C9TZcZTVN2Pdg9e3WPXn8ev+aOneODr/7Nr343jvRud8d3P5+/AM7faLzBwk/pUvfhKXrknUBmm7g0puk0il4/n58T+tj3dIn1PTglj4J23awB0y5bwRLnwT9Ovgefv3jT+q8cDJ9w5v28g8Ofx/25zZJ9w+o9N8X1bfsdmrV/7LqnmXl19vvW/Q/730MGd/4mT6hpfuzP/ilT8yV9r/gxm+11VZT3759Sx4nLnfhW6v+5/dH/1j0+37WySQ9BmQd134fTztWMgalB1Rrke7zyRNTfIsWru4eUSsdno2hC3HKXfDZevifPvl1M9vxH01yZbC/Kz15pj/xMSGODYzS45C7fnUvv3Zjkj9eu3qaUMPOprIhSBfNnz9fH374kWbPnuOhJD/5S88m8veVdE3OTDL1tI9JJV8k72YGufcwuFDJBVx+KGXOL6XfQpie1ZV8B1YyQPODM9NuNiR0j/r5s638xxDTZbahnf9Ni6Ys/ju2QiHvPSqO2fYHf8aa2ZZZxgVY/rsqzLZtqOaOPXcBZPufCxfNUm688j5xjR6NTPdJF4InHzP1+2L2+Oe+iTg+rr3QwPRrc1GcPP8mj0kb7LixzfZZs5x9ZMyVJ/mS93IvXo9nPsUvLI9mZHkvAnePOQbvuHLbNS+7dY/cuTJG7RV+e5l5L5KdGWUDHTNrKJpdlHoRvHs/limLe/eU/fbC6LFGbwaWnS1lvjHNBYXpb2E05fDeK+K9xD2ceWS3GY5b7eoa9j87eysK2OKZVm6WUfDOLW90CV54FgeG9vrPhpBxP4iCQ9dn3X5c//MCI+8bF/1znAvhkmWwN2Wl17lmxl2wDf9GzD76mDw27LHnPeaZmkUYHUxxuGXPHfHxEC0f1yl6p47/1fVLev+R9S2E5c6F6WPVzqKxMw7tY2Lpa0Tf2j9O02UOflf5/Yc5tyYe+41OZGErRiGI/y2V6THCv2le9Pk3egzVe3wotvBCh9LrFDcLNCiruf+wY2cX9V2+f/goX9Y1td1+Pe4/gm3bACvuY1Hw4rex/yJ5v0/H7Z5R96zrHHd8Jt/1ZM6/9oOq5DVCui+4Y95+gGJGP/PBgQuA3IxRbzZeKqCt9v7X7sM/o9hzZuK63F6a2Fnr8ZdVJAOi9Lkx/tDAHwFTM8fS2UFl/a+S+4/SvMC3Xlz/C8P16ALJD3zS53LjlP00V/b4l/wigyXrf36L2Ud5k/1icf0vPX74x2q6/6XHNmuQvuaotv/Z7S6+/yW/1CQI+8uNf2GAtbgb93IVSq9XenC2qE+Pnvr1AYdpvRVWCn+9oKNdf/3XPzV73rzw37sN3SSuz0sfTdZet16n+e0LEhdx6RNOsjld5848GKOD0H6ylT7Z+CelrIMrMRBGg0x6ZkM6kPLLlz7p+R04q0H9juh7+oOn3WZWEJb+WTowsNtJJ8fpgTa9j3Q9sgZ4u2+7rD/Dwy9/lk96e1n1SJ8gK+l/WeGKf8K3Jx/bFv5B6Q9e5U7OfhvS/5LvTMjq39X2v8B9ueWW0yqrrBKGCm1tbYnDP+vY8/tu1vG2uH6UPmlVM/5l9eOs8av0IrH0U99FHSfpk0B6rEiPc8kTuJnFkJyREtbSXURF1yrmQtX/ZNs+1mZfFG7WszN60mOzGzfcTZXvmx6fKlnehCH2ojq5XRfsmJKY/mFmWCU9/XcF+RegJpgIZlv16NFd06ZN19Spn4b9zrtfi0IPv7+b7ZnxxIRD/jfm+bO+TDlMefyZaclQyDr709j90MnN1DL1jHtA4psMja+tnwul/MDKtIfZXjK4skGbC+BsEOUs3QysYF1zbnRlsXUMZrXZGWymPH4A5PqYG0NLjUwwZh8ftG2bDuLcen4A5pfX1tf2j2R7uBsRRX0m3V9NH00GTVnHeHL79jgxewsuyPwPeoKfmdAlOVPR9amovU2v9maqR0FS0ETxjEpTNjd70f+2QfcInSmzO0aiA6b0Z9GL3c2yUR+378IK+4578bsJmvzjLnrc0DsWbTjkv3PLbiMOEbz92HLa4Cc6IuJH6uLthX3DhU9Rr4rfxdUavqM1CoKi4Cw+F0TjiSmT/YY605HdS9rNmGO/edDe6NgxxrSse2l6aOE97md7pulPZtvhutF6tg/ZR2LsiJVe3m4zuV9XzmR/tTPZ3BEQ1ikKTMMjO0oj/HNEOMKWfXQpCuX8sDX13iPT/9xsK1v37PE++X6XrGutrOuy5PWfq6e/fnXXf6WzO6xafa//XAAa1il6r43f/v41a+fcf5jziDk+3fuAApd+KyxXNsCq7/1HMANrbrhvO2PIXs+78S/5TuRy1xudc/+RfPTcP97S17W16H/B+GdfbG7r6663vOM9HPC8M6YXnPn3OKXHpLdStLq/ff9Ysn/Pag9731huef/6PnmPVnpOXpL+54eHto7pesSfXdgwOH702n3oWtv739JvT0+Of6VPYfhlDp28L/mIzz2pb1rMGmfteSnZJ5Nhpt1e1mSgYN9V5S8Z3xBbdvwLvoXQdkp7Akue6tynCXYKXvorE9MYfgc8ZKttddo2O8Sb/HT2LJ113936+c67hT9btf9y8e+Cg+sHt16r1z78wJ3cW1p07bXXaujQoeHP7rnnHv3pT3/S5ZdfHk/HD8r/9a9/XVdddZUGDx6s/fbbT0OGDNFFF10Ub3vLLbeML+rsCdxvGP+A8k/o/oCYHuTS6/gHi9/Y6Ud90h0r8PKXz9qPfyL22yfd4dIDX1a90uVMl29Rg2fWRY01sv0g+NO/GErfANj+Fvzc1t0GaulPkPxtLUn/s/uw5u4TdHsDaf60285qQ+uRdXzY7QfbCGYJBceGrV/6uLAnVfpf6VRfv+9Y78BzjTXWSHy65S/nn9TTJ5hyA3H6OPL/vbhjxx8n0xcU/onOH/+y+p+9cbXjT9bgn76wKHcB42/fHkPpE5s/hrn6ls4g8fur+bt7NM6GVGamhfeeF/+TQz/h8UIt96iZe8wr6W7GPxM4hEdHYvxPt7kflpWOf/6MGhes2ZlWiSJ6M43sjCg3m8iND8E3+wWzsT7//HMvuHCPrxrf5GwgM1YkX9Zu6mEusoLfmbZzs0BMONM1GrLj25f4EUT7ovbgMUQ7u8l/5M+Ww/Q/M+PJ7sP0n8DGfoJu299+Q6F5ubxff/N3u555/DFdPvsYoxv/3LdTJWd1me3YR/1sn3Cz/1xQ588cs3Uy7ezK6r/ry/UBe7bzg0Uzu8Tau3O+Wdadg1y/ic+/YT8v/UaiaM1EHy033rjzb+omPfpF8lwRHG8uRDSL2ADWPTZrZz+ZNnXvhjIhkFnHnX9t4GR+bt9hFc5ICi+67fkqesQsPYMoWCuazWTOkeYxMPPtfsnZXfYRrPQL4s2jUubFzsF6bgaHfbTBlLc1fAm8faG1m60VGkWPTdrHBhPv5Qo/OY++HGGB+fDTLGeCNdOHzMFnZ7nZGVlxgOd/02J0sR/PDvYf//PCPNu2tj3CPlASTJmwMv5wIOpz8Wwu+6iO9zL1+GmPxIt2o+AxqEt8+vQ/cPCDw+QMLH92hz+W2jKlv3XL9GXF+/HPPeb6z77sP/kYrp25FOwj3f/MSOJukoNj0h17HWFoY785LnaN/mK3Ve76z+zXlWlx59/0Ewy2vPZLCMzAEM1C9c5v9bv+S77EPX3/Ec6g8x4DSl+n+GOPG2/cOfqL33+4GVhu3I1Gp4UL1X/ACmqbP6/sDCzb5/z7Gr+cX+T+Iwiw2trMFx74fbva+48l6X+2TfwZe/71mH9+yb7/cG1Ucv9hX6Bfg/4X2nhjWlAua17uutkeE/61o99+9u9+2/qzCP0++sX7n/tw199vct92VlTySymyjof0PZ5fvvCKMWuGohf+pD9UCmy/aP9b/P2vewTc5i9ZY0K5/mcfr07f/+7ykwO0xqBB+sWoM+JXs5jxz4ztux/yE633ta/qgiOO0pqD19Gp141X7z599Mvzx+mRO++Ox/BgleD6cdPtttWR552tU4ftrU8++CDcxh5H/VRbfGdHnfKDPeIP7VZcbVVd/sAfwu2+9vQz7lTq2fsBYNY9TVjMgQMHLvRDg/RK9gLLbsA/OZS74bMHSPD7y3+0t3YbvH5cwKmzZ+muF/6uw7fZPn2eCv990z9e1Jh770q8C+v+++/XjTfeqP/85z/68MMPNWvWLA0aNChcPgiqNt98c11//fUaN26cxo8frx/+8Ie68847dcQRR+i8884Lt/XSSy/FA1z64LMHgp8epg/sdGH9g9k3sstlHey2c/nLmAsCd2Pn79cvZ3pdOzj66/sHYvYAU/7GM6vj+wd6uv5+26frmrw5Ld2nX//0RUGt+1/WyT6z43mfRGYdLFknRN8nqz+kT9zl/p3H/tdrwEoauPNu6tKte3hJ3j5vvjoWtAdPRIQ3ou1t8zX5wd9p+a2+I3VtDX9ub3bDm/TgIratTbOee0Ttc2ZmXtykb/r8saVnz55aaaWV4hkJ5drMHgfpk5l/fGQd74v7ffo4zBr/FlWm9Kek6RNp+tjKOl7TdfJvJOzv0uNNVh8rLae7wXHlMDfrpceuP7vHbSl5MerWdY/a230EPcF/qXbykyI3k8r0H1NHs5/y41+LunQLOqV995YdP9PvkzLbcf0s1uENDx0AACAASURBVMpoOndD3hJ+Apl83C04OU+Z8qmmT58RbTMdeLibOf+ROuNpZzIZyy9/eaA222yjku2YgMd+0mY8bHD46aef6fHHnwtngvmP4/lBTqQWrmdnQpm6Wxe/Ti4gs+sZbzczzw+gTGhpZlf5y5Wua7+pMdhW+j1f/rbdeGHayM7ecjPGbIDm9brILPkydnf+de3r+qcrrw1f/TK782fQp7qp5yZfUY+NB6t1wzXVMqC31Bp8q1Yw63OeWmd+qgWvvq22Nz7SjCc+0MJZJni1x8ziz7+pi2vvoticf6OX0cYzo0IZDVy2TWv3bVe3Vqlbr96aOmeh3vikQ9M/N783dXVhjSlP8oLeBSsuIAqPtWjWV3SkxO/lMcdhh7oss4x6rz3Y3ABFoXZ4P+TNqIrmZnjH1EK1T35PbVM+MmFSFB6ZDfgBVdjD4tlI9nFC02ftPqLjIZ6d5s8AsyHXQi1YfkVN+ebu6rr+UC23YJ5ann1Mra8+p5aPP3CPO8XlN16mWFF5om8fDG9OoseK47HQn44QrReUr7cWau2Wdn2ztU1Du0rPtXfRYwu66N2FXTTfJiDxBblpj/D4NhDxOdF/XNG6B0skvzHMvfds3a2/pvW2+4YJw+1M1CgYD19nHf3d9k17g/3Bq29o0oOPxu1k2ybr3GYmqJXOqIinZng3GvGx1qVVH290oD7Y5AjN6tU/fL3/ov7rMet/GvTYaK303z/HfWBJrv+WXbhA67XP0koL5ymI/93HFtHe7TAa/dM8smh63sct3fVq12U1p6U17ie1uP57f+g39OGQTbTpvTfrs1W/pDe33FlDH7wjLN0rO+2twU8+oOU+fEfP73aQVpn0glZ/5anEtU58ro9lknOcq77/CI7nXstowfKrqqP/AKlLq7rMm62esz/V2oNX1YAvrRF+u5/9zxoG7THzkyl65+8v67PJH3mlcbOHgxlYwXuo0uNfnxVX0u7HHqv1ttgs/t0iO0TGL2dM/VT3XHu9Xnv44cRvwzbq0kXz535uvokw6q9Z1232EUKzSPL6o/PvP9LXQ8lZRP6x6c/OzaqL/Zm1SQfX6X/723DnUHcvaq1KjqfUvZJZ15+l766N0veJ6Q9v/fNn2KejoC0oW3X3v/b1AdmzsNLXzrbu/s/DvmAvYL0AMavPug9vSutaeg2ddb3tPjyrLH8x571q8xczxpfuf9l+/XTc/12kL31liCY994IuPvo49VtheX3vgP31x4m3afqUqVp90Noac/sEffCftzVqj320ztANNXfO7PCDqCv+dL+O+fZ3Nfnt/4Y8tq0OH3OW1t1kY/32qvF6+oGHwuNt+MiT9N3h+2v0PvvrrVdfC5fd8+ij9MMjD9cFR/xMLz3+RDzpI21Xbryw+4u/hdAvhN/p/A34ePbn5W4Ol+m3kpYbsKau3WkHrdevT7yZKbNm6usXnBX+++SddtFhW2+XAH5zzkztdPm4xA3vU089pVGjRunVV1/VZ599Fl3Et6i1tTUMqs466yy9+OKLuuSSS7Thhhtq+PDh4Z/BTKwRI0aEOEHoZV+gmr7o9F8smdWx/UExfbL3DwB3o5QMbayt7YDpMMRuw928uBe2Wd9yn1L4ndrWyz8gsg6mcu1rG8mmtLbcdrvBvtL1tdvyT6jlTNJ9Jt2f0ttId95K+19QJv8rbW097ODphwuLcs26kPH7R7pfpOvn18dOobTr2HbxE/Fyhp3R/zb86bFa/6jjg6dSzP9BaBX9Pfxz/gI99sOttPFNf1JL774Kvj05WC74Xfx/u/TxbZdo2t1XlfQbf9xIt3PwFcmrrrqqu5hKXXT4x1naPOuE6fv545x/HFYy/vkXP4sb/7ICLP9Y9PtR+mLEP+6ynPxjLr7ISBml62PraixM6Z2jP9PK/7mdveAuTrLWSY97WeOLexF3cNNvZwj5YYX5ZN+Wz4QlHerRo0V9+7Vo5uwWzf/czOLou0qr+mzQVZMfmS91+Cd1O3sl+HTfzXZynn5PS99cmX+3dpdW26673vtrmzrmmvDNGC9Ut27d9b//faKZM20g66z8mTrusUD3Mnr/sbqbb75c22+/TXwxHbSNf04KyuH/LPhdEFxtt90+mjJlWiIQS89EsqGTeVzPXrCbcdu+AD6c/dV/gLqtM0Qt3XqG9Q6O7+DGPfhz/v8+V9vHc9Xa9rG6LvgkhDTlT76Xy/WlZNjnHg90geKCBeZrxoN1dtnsbR2x42vq2sXNPAi2/s/JK+icO7+habOCd2W6sMufpWXaIvmti67/+e/tSgZ0fv8zx4J5wbw9p6l7d/U/YJh6bbOxOlrb1d4SvOKgTR1dPpdaguXnqbV1nnp2m6PuXaerZfLH+s8pr6ltygIvdHSz6Ur7X/K4yn6pqjkww3NSR7tW7NWu0zaepq+tOE89unaoe88e6rfGmlrQsVDT50oX/LVNv399vuYu8N75Fodi9ljy/jRHfRx42W+bc2NZMjQKlu21wVD9v4OODG/4q/lv5iN/0Gf332n6eHiDE1QpmikVPiZpxgE3O8nEHe7TbROguNlIbraX/+hheNz0+P/svQecVMW2Pbw69+TMMDDkKKDkKEEkiIAYACULiIAkA4o5K+acMCtJRFQQFDGA5CRRJCNxYGBy7On8vV116pw6Z04P6L3vf9/7va/vxek+scKuXXuvWnuXC2cGjEZxcgZik5NRoxEtboYRLiqCY+6bsO/bhpDPq8ifMiZEPiuKFmQbKwgjXAEC1XApvrufqrvDIcRbgKZWPwbbA2hjDyGAMAjiJKkNhq1YHbDhx6ANx4NgQBaTWOX5bFwryeiF/IncXnr7T+wGyNtd2xkyjE43X4dqjerC53AjpICXYqyz5ODKChL9pd/Ujs6KclSUlmHzB/Mktr8c7qj1LrdJAgqQJ0KL5bkgBIvdj6Clgj3fbbcgxeVCbrgGsgctQrErAYXOaJTbaPGrarnJ2L8ETVbPYi//p/ZfL98FXB4qlZZJ/o6kAnstMVjtSGFtaZxbzcpU1fxLfV13wlTsqt0cB/86gTtGDsEfh45i/fZduKFvTwY4LvvpN3RsfTkua1gPny9ZjjqZNdDq+B/IXfixYV7mbW7cjVK2+S/F/wjbHAg2aonS6yYhUK0mQo4ohvI5Qz50z12HaoF8tZdIR5NfxUPmw3A6nUy/lRUW4fdFy1CWX6grI72f58Ai5iOfxxi7DhZ0GDEaU+6bjJjoqCo7JFRRjFBJDuxpDSpdR8/buG0fXh01StXVsn1RUc5DCP93+h80r+gZvv8O+RNzi2o7hsMIBIOgEEKj/0EgICXgV+dBnV0Y2f4zY8do9tt/yv/V5E8YgLLNbbRTIwml2GxCtsMr94vGJq2q7aryVf6e/6ttuqSzYk3AKXqn0f+Vd4yVfZMxD9yH9FqZeHnaXUiqlob73nkDr945kwFYD3/8Pk4fOYJ6zZvjkVtGqmMsuXo1vLv6Z9x3/U04feSoqg/oC7Gqnrr1Ntz1+st4fOSt7NzI++5BZsOGOHPkKBa8/CrTES8uXcLy13397hzsXLvun8sfhRCKjpKFW3yXWUnCyK4KCXZHx6Pr4AdRv0V3REW5MaBwBxp5LlSSlZIKD/q8/jw+vXUSLsvQnNUlxw5i1lcLdEh5t27dkJiYyICp1atXY86cOazCvXv3ZgDV4MGDmZKV0V069/rrryMrKwvFxcW4+eab1TJwY75yvgkzZWKcWCNNtFUJKjMbdXTwygNcDDR50ERyvOXnmYFhwvmR+8k4kI39qhmxepTXWAazwWPmsJrV2azt5HL9O+TPrM7G9mJGgUkOEvk6Y3+IekdSiPLz5D7kxqe8oxg31P6ny1+zSTNw2eS7dMCVAKjIJg54A9gw5Epc8dEvgDtOD14Faat7MuaB/OUfoWD+7ErMnqrkj5K1kxFVVZvLchhJ/qq6xjheZaBIfp5R/s0mQVlWjH0t10E2NoURKo+Ji42ZSM8SRqPZ6lZl+Yu8e46YiLX6GMOZWAkVACWSThP3sJpJfWge2mfsY94efLzQpNugoRX1WjlQ6LTi0O8B2EtDqNHHhUOb/PAf4UZz5TxSgoEi5xPST0HiHpcL6NrdjnOFwIGdQdTtYENuqg2BDQG40y0oPBJGKCAcaV6f06ez1N0EeZ/pVwtFvcVxxYdUGWaff/4WuncnBgU3SkR7i79GQIuOk0PRq9dIXLiQL+VJqpwYXQ4tlEEz/mwl71K1WrBdfxusTa6AxepQwTNWzoogir49DmuJD1GWQtiyFsPiOc/qLfKI8Xpp7Coufzxckn/0TDr9OSu+vvd7VE+Uk+NrfZOVH4t75/bAqdx4iYknM+tEOfRsLq2tNfnkY1oLLTGCjOKt1oQ4pEwfB9dl9RC0BBCy+BBCBUIWL0Ig54hkjBhQFXDayxHjLoTbWQRbXjaOvZiFgi3c2RPjJ/L8q7Fu5KSk2pzCS2RFCBMvK8bQ+mVIc2sgn83pZACW+BAetDc7iJc2+LHhpJKGgPeU0l96AIiPLX63AIG0UDZFhhUnlOuqEGKuaIn0W+/QD55L+FW05nsUf/+VIg1asnARXih2NGQ9xOk+lXZAlJlK6nlQAnktoXsgtTpO9bwBFQlp7F0cwGqklpDAKcdnr8C+hVg+nPHFdG+Q76KkrqQrDCzBZOMsJi1fFpWlGoLo6giih9WP+pYAbDYLQuTgV3jVhrU6XbBWVMBrseLPEIFZduwMWlAsh13LwJwaWqf1swhrrLyrHq9Wx5sHIqVeLey+bgz8MTT3hgnv5DZwkL6HEQyEmN4KBMJssanbz+8h5PVjy4fzpdVuARpqrAt6PrMpxUiW8t9o5Igw3h/pQaMUJdw5bMFfOWEszuuE71OfRbEjCoWOGBQ5olBud1XJxKq+fwmarp7FnSPlBfIcezH/wx0OYIT3LBIRuASpNL+kBDbMd6SjggA3Q54YPmakeYwPHo09JyVZF/PvlZv+RJnHg5z8AtRIT4PP50dW9gXUqF6NPf/0ufNISUqEy+nEuQs5iI6KQmxMNA4P6KIyG/lrFEBbDo+jRWSlGmY+hWyLUHuGUmuipN9Y+C6/EnDH6Bog0V+Eay78DHtYa7vmzZuzucZFoPCZM0hLS2Mb5xw8eBC/L12J07v2SbqFs0aT0tLUEEJh11A5+tw1ExMmDtfZcsYeoOt8+1ch7PfA1fIGXVuLNthx4ASev/EmlY8snkH63Fvhgd/rq3SfuFcGtuS+NLX//oH8yf1E31V5lZhEclkEaMH9BW2HPFGni8sfZ1iqdqmJ/LGZXhq38hji+vZf8D+qlL/KDDdjvYz9Ip/X+lVms1dmqBnbU9PjfOHyn/q/QlZkJpbO/tf1qebD/7v836r1n7YBQ1X4S1X+r7rDouT/jp41E9Vr18LL0+/WjevBd0yCt6ICp48exZCpk/HosNGIionBtJeeQ50mjfHb19/iq3feU0MNyZ7p0r8frriyCz555jm8umIpHh89FjlnsjDm/vvgKSvDVTfdgGm9rkHXgQPQvFMHxvBa8vZ72LNhozonyeNJ9rXV40b5oyTuRuBAFhAzh02AJsbr3NFxGDzlTTS8rA1cDgvsNgua5OzHFeePqHorq7AAKTGxrMBXvvQUvpgwFU3SM9Tzo5fMw4Yjh9TfAhigMlIy588//xyDBg1i9z///PNYs2YNfvrpJ13j04+rr74aw4cPx+23315pUjJzno0ARKSBZgboyErS+N3YfroJRtLmVQFF8sCWO9gM4DIa0vI1sgNtfE4kRWP2buOkYJyU5PdQedSJ2ATIEZOKuO5i7UfXR5I/8d6qQAS5rGbtYZQDWf6Mqw6X0jbGttBNcrKRIgFqZn1hVO7Gehjl1UzuqpIx47lmk+5Ek0kcwGLAFTOQFRYWsbG8AWy+5Uo0/8AAYAnwKkQbNgBFy99HwcLnWXEvRf5iY2ORnp7Otmk1k1F5siBQu2bNTCQlJaKoqIiB1Xl5eZXYXsa2M8rJ39V/kQzHS5E/43iU+5EDAZW3apYBDrOxF0n/GNucP0eElwnDQIR8ae/VyqQnj3M7WmNjifn80vSfZHQZFYZBNgTw4nRaUKOOFbZYK7wZdhyLsqFRaQBeqwXRpwNIrWNDXkkYp/f64S8UTgV/jwgX4+2t5YTS9C+PK6lf34oGbe0ojLNi/6kwamVaUFxhQXoM8NfmIIr2cyNThAHScykXVnZ2jgGU1SplBHdEMncBLn322ZsqgCX3rdCBMhBJx+g3jYfevUcxBpacK0sGyXhdyYjm7CINQOQuD0sVZHfC22sMgq17IsySZYpQIc7WCB0vg31XDmLi3bDGOBA+vRLhE+uY0ybCCI15q4x5uDQZ0YAsKhvf5MeCb+/7HkkxHl1gFpdVK2wONyzuDIRCSiJtC/UrZ+5wcIFoLiFW1r3H4zBtTjvFedHnvdL0n56Vpe9/wGK3Ifm2kYi5qiMDq4JhAq18CBG7xFoB4tdwnR2G3eaD21GCaFcBot15iHXlIXS+EFtHFcBXpNdvvL4a+4mDehJjT9L9Yvwwlp81hKH1SzHz8iLY5Q0qWdfpASwhcccLghj/jRdHcjkgIb9HsCLoOA/z0EL4+Eq95oxzUIs/lbcf4G5+OTLGGgAsyaE3GcrskBHA4iw+eqaWp4u/XoBsgqklHDsOaHGgizOkeC4tET4ahrd6LZzsNQQBp1sFkAjAymjUWFcs+/L5cCznwA0BWKrDIxhf0ntYezDVqOWXontqWUOY5axAIwonJdT7siZwdusKS/V0eN58B6Fz2bC3aomo28fDv3U7Ahs2wnrmDALBEPaG7ZjtscOj6E4BzKnzktRnSuurGkfWxUJOOgwZgKS6NbHn+vHwuWMUAEsBrRh4xb+zv376G8JVq99B2B/E1g/nS2wVIS/6EBP2HqWthC7W63jg1+leFmaNgBWf7irDxtNe7PC1Rh6S4Lfa4LPa1X9BJYRZrUuPJ4AEDsQSgNXstwdV9s7ftf/cQR9u9Z9FDAGbho/FbketUeOQ1L4jDj7+ILy5OabiWgELPrWnw2Nz6eZfPu7F7q7aeJbncAEWiDFDgtp5w17GFGb6VJF79p0d4zkC5b/8eBjHBnTRlU+15aWjZjZcpPk3WK0WCkc+AH+ty6gileqe5stD37w1sKk6gV9C7I22bdti+/btiIuLQ/369Vn6lt0rf8WxTduVhQVtvjVL4k5l6jFlBiZOHsGeZ/oJBREsOA3P1i8Q1WkErNHJsDijATUPJL9r+/7jeHnIUEkvafLKdiGkJO5VsPT/R/kfMgii6j9tkeXv+h9m8scfq4HSzK5U8qhxnaotqMttI9sd2hygZ1BWLX+RN2OQ/REzWVCfawD+5GuNtq9WFpnJryXGF/OvnLjeaLvT87X5VwKnxYuldtS3iebXymGP4nniPRSWS+G1QpfI/r9476X5H1rb/lP/l6+0yjHJFoy+7x4VwBL+R5O2rfHSsq+xbul3iE1MRK2GDfDsbZNwZO8frK0atbwcj8/9BM9NvAP7tm5nsmW12dg9xObLOvYXWnbril8XL8H8l15hDKzcs+fQvEN7nDt5El2u7YfPZr+AGyZNYAAWhRD+U/xFDSGUG1E8TDCSRMfJnS8MCRl4GDxxNjr2GAi30wqHPQybBbCFgui0cyWiFId03ZGDmLFoLvzBIJ676RZcd3lrVYBOFBZg0KfvotRLyXI15FUkx05NTcV7772HoUO5Mvvuu+8YmCXKLpepV69eGDZsGCZMmKA+X+54WdBkwTRzFoUsi+fLVG+zQRVJwLQxIYwozXg0TkLGd8jnI4ETcjvIA19uSyGk6oSrKDu5z2Vqo25wK9fKciDeI+43Ks5KCsLARpPbVsjSP5U/UTe57eTny3U2KhpjnczkTyghoehVA8OEem6mqP43yV/jCdPRZJIWQqgLHyQgyxfAlls6o9n7v8ISFc/DBoNAQAG6CLwih7X4u/dQ+OWLqjheTP4oabsweIyyJ/df586dMX36dCQmJsFTUcHyN+RcuIAFCxZg3drfVFaJqeFkctCo/8xk3NinxoknkvzJ9TB7rpmxYJQ/46qSsSyyLMr6Wh5/2ruF46o3ZMyME6MBQddcTP9pgJFwhPUMRO40a+yoyqwuKxzOMPoMjoIr3Yr8kAXnK4C9xRaK5kKn2BAc0Rbk+IDzBcB5H+D41QNnqTljjE8leiORjqXWtKDTICfyA8AFWLCj0AICzQbXsiAmxoWTORbsmlcCf4EGYlEbEjswK+ssKoh5oXw4y0hLRs91mMZIksGkTz99Hd26dWZ3Cp0n/zUe1wCs0cjL4yEcfC7iOal4vyqsNaUc4hwvnnD6LQgkVUfZkHsQjk2E1UYrluTE0r8gLKEA/L96EEsgZ6Ib/ng3AuVZiNr0IcKlBSo4JuolwDMuN/wdHMzSdmDkZeXOE4UwUrt893w2amTSopWiJBirJgSH04m4hEQ47V5KoKfkSwryv8zJEn/5MWLR1Lq+ltKOSk2VxPjCdpEBPtFXHOTj7RV/zVVIGjkEAUsQhVnnUFHqQSgUgNUZgjPeAld1ByyK/+WwVcDlKFPAq1zERV1AlKMA2d+XYPfjFCMng2jayOFjVWNF0btlJ4POj6h1Gok2L5LdQVyZXg7GP9Woe+z2lOrpqK7k/jSqsPPFQQxa4EVWEcmqkAcO/HH9o+12x+VFSIZwdLgcWTPqw5peR80pY0tMhLthU/U3FckdH4WEWmkanctEnxatWYGiFRoDS2V+6XJAaQAWe7fCxOJVD8FbuyGKm7VG8v7f4Tj9lxKKyPVPRb0mON2pHwJufXhSbEoKMho20ZXIvmI+HCvmq6F7/KTG4hJ9wX0nngNLbiMrwrjaEcCDTg+8djuiH5yF4OFj8P20CnFvvwHPp3PhW7sOsU8/jnBePiq+/Aru28YiePgwKuYtRJzNjsnlDhwJquigmjOG9Y3UH+K9ggWg6XWl1OEw2g8ZgOQ6NbHrmuHwxaWwcUXhmQywor9+BcDyE/AdRqjcg17bPgb8IQZgaWNDY2Dp7D8RUml07iR9teYOWqGysX8TfszGvEOlSEhIYLJG6Tpox2D6TdEPRscYE3cB1VuxCskMrH9i/7mCPozxZSHWBMCyx8ej6eOzUXb0MIr27EL+pvUmkgpUwIpP7NXgtfNwaqF/xXfhf9Bv2dGKZP+1+22XDrii6wSAJb5rx1jWMtZGJwZpYeXqs6US/13/o/CGaSjteoNpnelgNX8e+hWs0wFY9I4OHTqwxUD6Rz5Xs2bNsHPnTuxZtQZHN2xVGMcaGE+5c0QYn2zfdJs8FRMnj4wIYPkP/AzPug8QddUdCOUeh61mM9hrt2f5ueTPtj//wuvDhqv9or7DYoGPkrj7/Gq/CLtIJGWnm8x8GOOxf4f/G8n+k8ugt9u0NjTahUb7jyI2LlX+2GzDV4vYR9SVZExs2CCOi/eI9xt/y/1wcfnT8vxpOkZiK0pjy8gU+tf938oL5GZjWfSRGONDpk5iuZ3o/Yd378HX733ICRLKhBXZ/9UPq0r+r7IpRd2mTVgOKbZTplT/vyd/GvtK3CdjHXLfyYC7LEPGJPOi/0fNmon0WrXw8rQ7UbN+PTzz5QI8O34iCnI42N+8YwcMHDcGjw4fw3b8FM9/7Ydl+P7zefjly69Y29Vq1BCvrliGO67qzcKkKQ/WLTOm4d5BN+GWu6YjN+scjv7xB55d/AWKcnIwuUcvPLVwHpa88y52r+cMLNn/MI4HUd5K/occQmh8iHwxFVzevUMeHHRfdGwCHnp1GapVS2XJRq20cqqsmqbkZqHpoV2wSqCUUauSGr9j2WL8fIBTVMWHdhW85557cOzYMZas/Z133sFvv/3GVgY++OADxrKShUE0ggxgGd8VyaE0AgxCyOXBLg80cd4ojMZBL/9WFaxMSza0i6iDcVDLA0DuYKPjKf+WvwulIuopDAbjYJCVnlx2M8fVWFd50Jg9x1h/+fe/In9mbS7XU1biZsrDKCORlI0YE2YyIR+TZed/o/w1um06Gt1+t5r3SmVfiXxYvgB+H94FTeasBtyxPGSQ/inMK8HaKvnhQxQvms2a4GLyR21bp04dUz0jj7VmzZrj0Ucfwdp167Bl82aUlZWBkr63atMGvXv3xQfvz8GG9Tyu2vgxG3+ZmZlo0qQJKPcWGd/79u1DQUGBTqEax5hR/5nJnyzPdH+PHj2Y7qpKHszKa9RvMsBsVPTGScD8XSYr7oKNYFgtNxuf/JkiL5KepVX1+4QTbzQqxbPYCGLOdePOTqQ0suNCcRj5F8JIbWZHnAtwFpWgRUUBdrvSsOOwA4X5IVgqgIDDgqTjtNIlmC68JLIu5d/5TniOGCsy29vhcQF5Z8JAbRtSM63ICHnRLNGKPaFEnMizItdrhXtpLuDTGBn03OLiUuTnUz4qXmb92Bfta0F8fCwaNuQ7adKHmFRTpkxEw4b1JPBK5MDSVk5TUlKYTIv2p1XmPn0IwCoyeadWBl5/bbc+bigq7UAg1xVtYbl2ECxWcuApjCoMS8jPfIZQoRdlC/+AI1iM2qmZuKrJVYiKSkKwIBuWogsoLCvGhpO/IavotC5MkNdN3tWSl0ebC0TeNcYPwu9f10JGskcDpsJknJNiIdAqQEmJFLYVGeEEVhGiIINY2vmMgZnSONfaXfSLNnY4iCPCIOm4NSoK6Y/cjTJ3NM4fz6J97GC1E2BFbRiCNeSH3eVHdC07XMk22Gw+uOzFiHHlIsaVgzj3eUS78mEpL8a6ES6Unqq8s6d+/uXlE46EPP9+02adBmoRECqcEFZ1ypsURnTNTLRo3RJ23U6B2oh7Zo0P72+jMSCHXYjzIkSPg2nUZRy4EbvbcdmzdeoPSzrJJs83JwBSjsEJFh4QXz0GVmJLRPj4966Ff8tKle2kbgqoJqpXymEIIVSBPqcTp0bfDU9qdVj9PlRftwIJuzfCEgqiuEFznGt/YFqD4AAAIABJREFUNYIOyjqlfRzlpagZ9MDeS++0O76fBwKxBPOJy4Q+ZJFsVW4vKCFaEgvLhjCGO/0Ya/cg1LE9XDdej9KHHgO8Xjj79UH0rHtR9sDDiL7/PpQ98xwCu/fAmpmJ2GeeQPHkaYj7rx0Wn/HY8VvQpjJFdFOTBHByPaKAicpFXMdr9Wx7U3+k1q+FosJC+Hx8Z1T6MHlSQSbeX/TbbncgNj4e/rJy7PjsS90OgSIcTsgpG7MiHNbQtzKjcM1YBxC0weK34rbVZ7Gq2MU2WsrIyMCMGTPYHEqbL1133XXIzc3VP6kKAMtou4p3yrl65IdFhf0Y4ztrCmDZoqJxxVvvs81kTs/7BPmbNphKqxmApY4akx3JBCBntNPFHNB69Q4GWJ04cxYrfqHFNPNBQl16dbfOyEhPY9efHNRN2x1OuYXlMJNCwsz8DzlJuXhTRf0rkHvrEwhHa/mHjaWo5s9H/6L1SIiJZvMS+XfEtqK8V4cPH1bTXJBNRvbQlqU/4Pjm36VFEz6OElJSEPBzloloA5KjLhPvwB1TRpskcA/Df3wrfNsWwtVqEPxHN8PeqDscjboBRrYegK37juGtkaMqL5xZLMypDvg4OGBmoxltwH/qf0SSPyP7RpSD/l7c/9BYUhHUqOrYy217MfmTQSj5uersaPA9RRvRInDjVleg4RUtkJSaggqPB+dOnMTeTVtRlJevK4vuHSysy1zIL9b+Qm/pyikRAsR5+TnyvKnvdz3rzCgTwv8gsGXo1Elo3Loldq/biJyzZ5nspNbIQKuuV+LQzt34Zs6HOHnosK5b9P6vdio6LhaTnnoM7Xv3wojL27ITA8eOxsmDh/HX/gOollkTZ44eVfLE6fucYSdxsYwJVacpX3hh+p4XXv1eXlbGdv3b9MOPujJVJfOy/AkAS9SBdg6d/tLzqN+iOVuQXbdsORa88hp6Dr4Ra79dhrLiEvaell27sF0EHx0+GtNefA4Bn4+RBeo2a8oSsBOzisrQ6+Yh6HxtPzw7nke80WfOutW4/6ahuG7cWNbGP85fiOeWLMLSDz7Gtp9/wdOL5qshhPJ4kSsYyf9QjxOAZaaIhWMkT2xGEIsDH1Yk12yO9gPvReMmDeF2ANUSHUiOd8BuVwx7ADFZJ9DsxAE4g5Vj1YtDwF1LF2H1QU5REx+B0srAklwe/n59kkkhADIiyoxViUJrXBEyq788cMzQQHGezslosiw0clnkjpAdUFkxGZUYlUtcGwlcM/aPUWlWBZjJfUzPEXmZ5DKJY8aBYgSq5LILOREKRLSPUDzyKpbch0YlZexfM/kzthn9putoQpb7XLSlrNTMjIH/X/54izYcPwMNJtzFASwFmCJfh/JaiSTuO0d1QeM5vyHsJAOIM64E80oAWmU/f4qShU/pxrU8+Yk+pr+UayE5OVldsZXlX8hfdHQ0Pvr4Y2zZsgUrli+vBF537NQZV3brjulTJqthiLL8GSc1MrhnzpzJnpednQ3KAbF06VKcP39eDVcxk1vxnEjyZwT7qfwPP/wwnn76aR2oInSE/BxRV7ncQi7/rv4z6lLeptwhksNDzHScEYAz1pX3o55NJd/Dr6fzIqRNGJk8abyxztpvC+r0dSP3RADlJwNIjLOg16goZBeUI+PwUaT6S7E2nIZzjRsjf4kH8AmmiT4vk1ZHLeyIJwCnbduVHEqK4dv3FidKqlnR4cR+nDjqwamWl2PXUiuCNL84rLAXB3WOCDEMzrJdmVRtqX4jNhZfMbWgadO6aN68gQpWeb1eDBp0HVJTUhFkq6SUH0hzPMXcRCvftJGBkD0CsAYMGI/sbB4iy+WP58DiH+0v13+U41GEbih5z+wOxA3vC2fjGrCE/SxSwxqi/CF0bRgVh3OR+8kGRFudmNBgAFqltYMnHA1PyIkAXAiFLThbehxv//mCaswaWWBcngVTQYB+VmWO5GX8/YtopCcz3oGeWaUDrpRzOuZV5WMZ19VVns1li89/WgilNj8rraTKvwVO2nlr3K04f64IFocLVrudsdKoXUg+bATuecthCZYivoUL7ngf3PZCRLsuINqZiyhHHmJceXDbi7D1ThdyNroMTot+jGksLGK+6BNGf9N6LbvYndkAcc3bsu/e3GwUbl/PEpAzVltaBtp3aAOX3TwkZ+PJIEZ95WH9JFbsSVTYPKjktmJhgkr+FQYnKsnF1eTp7a9F9SZN0Lp+PH7alYNmtWLhtlvx+5FC9Gubhj1/leB4dini092wRyeYqT92zL9nLUK/89QOVBc5ibtIWq4H0QRwwm8Judw4Pe4+VCQkc+kOh5Bw7E9EnzyEc03bIawLMwojIesEam76HtYWrVExlicFFx/H9/PhXLlQBbDY+FcdLoWhpmwgoTLV1JBHC6zhEKa7vBho88IyagRsNTJQ9sLLLCzL4nIiac1PLKwwePQYiihxrZ/buPELPkfpjHvgzs/H5z47FviUJMpKSKSsOfRrLRpoodl/PGcrfdrc2A9pDeuie7euiInheY22bt2Odu3aMLYL3bPqp1/Q75o+bEyQLbT0uxXwlpVj56eLVAdDS4YvNnnQ3sH6TLIJ9fZfGL8OjYKFGFh+G27bcAqfHcsBLRrTv0ceeYTlrP3ll19wzTXXIEdZzVc7RAKwMvZ/jaZrZlVy1C/V/3CHCMAyZ2BZrDZc9tzLqHnzCGy+pgdKDx80lVcKISQGlsfq+rf4H60IwKJ8ZEoeNR5GqOQok0MKFUCY6krXnL3pKl35mO4yOPPyBbJdItqLyYs7BtmjH4O3Ie10y0Emeb4l2Y9y2NAjNYTah1ehZYtmbHMsWrzr0qUL0x0EOlLYYOvWrdkC4datW7Hz2x+QfYCSNvPnCaY1JXEXuxDK/keH8RMxZeroSgyssK8MZR/fAmf7UQjlH4c1vgacHcdEZHRu3nsEc8aO00XlMNuDMbAq1BAt0Tb/xP+g9jfu1vbf738I9aixcy/mfxBLuX7zy3DqyFF4Sssu2f9lOReVBpLZWXSIAAnKb9Sqa2c0bnm5toGMIjWUMmH5x5/DU6bPW1lZ/vSgHVf9mn9Mv59bPA/N2rdjJdn+6xo8M2EKPt26Ftt+Xo33H3uaXX/tqGFIzcjA/Jdfh8PlwuSnH0XPm25gCzmnjx7Dc5OmI/vUaR1rR5vX+Pwm5EMYbaJdazduhJe+XYSfF3+DDx5/GnFJiWzhms5XeCpQUVqK2594BL2G3ohZNw5jIJYsB6qM2ayIS0xgMjji7hmo3bghomJicfeAG0A7/BFI9tTCzzCx69Wsff0VXhTk5qrtIYOQz321EMcPHMRXb1FOKWXtTmFOk53g9/sY+/qNlctxR88+lXb+Myo1M/9XTuJuxDuM/pg8jphuYjaVfnFO22zlP4u/WEQOrEir+jJQYRzQNEF0HPQAWnfqjWrJLiTGueB0EPuKN4HDbkGUmxtbZeV+xPg9SC7OQ2x+NqLKS1DkjMVJewp2lLrx5WePIu/0Xl3sLt0nBC8S6hwJ5TajMMqTsAxeRDoeCUCTyyLKSMeMg1U1UCKwrYyTtFxf+V5RR/EOWckZy17ZgTTPzSE/3wyMkoVcfqbcJnIbqkrDxETQHAs5bEijz8pAhVB6RnBJtI3swMuvMiuvOC8UrdxudM4MIDACfv9X5a/BuBmoO/4ubRdCBbwSuxIGvH7svfVKNHjnN4Qc0abgFYFdZT9+DM9Xz0oOL3cyzeSPkrfTZBIJOKHjdevVw8uvvIrXX3sVZ7Noi3SuQEVfuqOicPvkKZjzzls4eOAAe00k2aD7WrRogf79++PFF19UdY0M5kTSf7JsVfUO+brHHnsMTz31lFomIxglZF/WA/I4MGuXqo7JY0m7TtiJAvAQxmjllSFtfIgcUhpIwMvI/qsCBwLM0thZvPa8Dgr/Qbcczd9t1GEWmxX2OAv8hTzuv0VHG2KbOtHw9CEUHivEKUcdnGiYjOOxbti3+xB3nEAYXhYtZExmoVTOj6TpDguqZ1pwxXVO/FFiwaBADA6ETuNIbBJObg/B+YfIvyTyS3EdRjJMydy5bpHzSsjAnAWNGtVG8+b1VSCKgC9iJRBQK9qJP4PnRhG6ipLnErgqfpMTeu2145CfX6SLLNPYX0bwTgO3BOvMmRKDOrO6whZlgxXkrFLYYBAWaxA2hHBq4Qnkb85BZlQSXm4+BLCkoDwcDW/YjWCYQCwWB4i7dj+odL4MGMlztdjSWrS7CCHlbLCdi9xIT6HKKuwqwbISgJYMWrHvEgtLuiYcDiLzxsaK/Gk7AGoiJoA+o/zx4/amTVDQqz+CIRvLhWW10UKXhYFXxL5yHPgD9l1kk4Rg6XYFUgdXR5QrH1GOHEQ7KXwwDy5HMdyOIuyYGYOcjZwxp3f2NdBW2E+q/SDppm9brWXvqXbtMNSecD/O//AlkjpdjayF7+H8yi+Z8R5Kr4GOHdtGBLByykPo/n45ShkZQnVXeHlCYtMabTc/EbrG518lv1S7a9G0TTN8PKMFbpq9G29MbIqUWAdGvrwH3z3WBne89Sc2H8xDQvUo2KMTTWZ7fiiwdx2C21fxHyTbSj4wOZSR7aynyH4lRpjVgtJmbZF91Y0IRClML2rbgA/h4gJAYXxYgz5UO/A7kvdvh5XYSG26oWKcHsByrlwA+4p5ChigMc4EA43pJ4mJptDf1DnFHg7iEVcFOtoDcD1wH0LZ51Hx8aeULAjWmjWQuPwbWGJiEDqThaKbRyKUl4ewx4OEuZ+g/LU3YDlwGKv9NrzmdzCgQjDBNPtPQX1VXanoYuW3Zv8RiB5G28HEwKqNXldfDbfbxZp467bt6NihvdofP/z4E/r366v+/urrb+ErK8euzxdL868GkBg7kpVRkmX9PBvC0j5xiLc6WAjhsM3n8dXpv3QAFuWr/fnnn00BLMvEXQhLIYTNfntAXaiV5yx5PhTziNH+IwCLcmCZhRBabDY0m/0Katw8HJt6XYmyv/iOWcYPy4HFkrhrjFcx7/4T+6/Fz9s4YKWAxpHDB7nOEnmyzg3uqbNBCHRg5wwOpGo/KQmNhf0s7CB/UjqybnsBoaRUXVWJudkg0YV+9RLQvXYs4u3A+cN7sGXTJp5HKsKH3n/hyHHsX7WGAUZG/4NCCAnAMtpZbW+9DVOnjakcQhgKoOK7R2Gr2x6hglMIZR+E+8YXYHGbA+Ibdx/Ch7dN0Nl5YkxQDiyf16vL61RJltWFjf+3/oeADSP7H+bOv5B1+S/Vl8Cru16ejb7DhuDoH3/iybGTcO7UaR2Bgu6RAQed76bbkIFrIQJXhky5HU1at2RgUTAQgN/rxYWss2yXOAEAHdu3Hxt/WCXZetwA5Isg3A4QIJLRn5Tl5dlFc/HmrIfYAo6nvByFObl499cfkJJeDbMGj8Cpw0fQb+QwpNXMwKI33sVjn8zB2RMn8cPchWyjgITkZBz78wBj3on24e/Tp+Mx2u30Oy4xEW/+uAxvP/gYdvy2Dnc8/Rg69+uLkkLOao+OjcW2X1ZjzqNPol3P7oxVdc/AwSgpLKzkZ/QZNgQ3TrodpYWFrMxzHnkCLy9bgsdGjcUL33yJqVf3w7OL5zNg7ruPP2N5piiU0OhbUNt8sW8nVn3xJW6aNMF0BGafPIXbu/bEm6uWY+kHn2DNN0t1YK7cDroxKKxuRccw+0N6w7/m//IH/SfxFyZ/BGCZTRSinjK4YBSKjHotMWLG66hRLRrxsXY4HTY1iSh3KLhQkZ1CP9nqpjKIfP4wyj1B5BX7kJ3vw5I59+PMoc06AMs4EISClstrBDoEu8doLBpZGMZOl+trZCLJQieuMx6L5HQLYNCo3OX3GZ8l2lyWZqNRLN9v7D/6bQTwIoEGZiNGLqtcX5k5ZTZoxDFRfrkvzBSKrNiM5y9F/kS9ZRkVdRfPk/8aJ14xAGVjRVxv1t7/l+SvzpjpqDtOA7AIjBLgFct35fPjz3FXos7rlMQ9vhLziq6nfFieH96Fb9krEUErWf7q1atnml9J9DPJU9OmTfHk08/gyccfYyuDQubEc2iSHzPuNqxYtgxbt2yq9DzjOK1duzbbyfTbb7/FgQMH1NBBAtJuuukmUAgzycLGjRvZDqgUxkwbRNB5ej+FMRNbhsImTp06BY/Hg88++4yFC1IuCRp3tJr56aef4tFHH8WFCxcY04ye+fbbb7OVT2MdjDrGbGzIciqP/0vRf1y2I+UMoHPkzMpJX/UruLx8+mOaDhOOsx6wknNe8Wu5bWSma+haWV+1GeBGUZwVuRvzMK1dMn7cZ8WWAi/ONnfBnRtE9f0+aULnIYTyvMCfpzn0PNxNA7jqtrAjpq0DB34P4P42jfHB3qPIamBFTi6Qud6vJnUWdeB6wIYTJ04pBomW44uu4fqIgzgNGmSiWTMeLkh1IkeBAKyU5GQl3IeHh7H/SSv1AsASfUsAVv/+45GbK+RF3plPsOo4UGNkIIlwvuQWCWg2pS5sthBs4SBsliBs1hBsBC4Eg/j14Rx4CgLomVobDzXqAU8oFp6wG94wsa8oXMuOUn85pu15TWlvwWwTdq7Y3VXsyCf6kZeJ2oTquPMLRwQGlpTnqgrmFYExBH6RnNYa3IJLo24nSI2Nps2/lXekDNVviMI+17OwFZYPzMqThhO4hx0bELNhmxbyZbch9a3eiKpWjihHLqLs+XA78uB2lsBlL8WuWfG4sFHLoVN5/hV51BTZNMQVfX3FavJ4UW3gCNQafSd2je+D2uPvha8gDyc/foUBUOHqNdCpU7uIABa1wxVvlqDIy9tdZVqJPEtMykSImsjzoa3+szHR9lrE1G6A32a3x4OfH8YL4xozm+3RuUfwwvgmaD99PQpKvUisEQN7TGQASzCwhHNBkwcfkxzAEfYhB7a4RuF4lnBG+HdvZn1kDbwV/th4baqgiai0CK4LZ5Cx6zfEnD7MJyeSgXbd4TEysH6YD9ePC1WwjOlb1eFRkv4q+oDKQoloZTaGOxzCi1FlaGAHYp57Gr616+Fb/j17nvPavoh78zXGxiLQquS2SfBv38G+x738AnzrNiDw0884ADse8jgQIiGTQgZZmxh3JRSAojQ5irBCOtT6xn4KgNUTUVE8B9jmrdvQqUN7VZ9yAOsaNRxxMQFYpQRgfSkBrAJMk2dhCXBlbqai7XUbjITxUYcUNIhyorwiAcN3nsKW4Dm88soraNiwIWMZ33LLLYwdNmbMGLbphfyJmrANFTXaMUnIoF0I1zwgbS6gDy+vyv+gZ1IS9zERACx7TCw6/bAaYb8f+Vs24vCzTyDoqbz7KWdgpbMcWP8O+++yVVuYrjt99hxWrdkQIbiK+0RXdm6P9LRUBlTl3tyb9Y2Z/yHLo5gTjPYzm0sBeDMa4MytTyMczdl5TpsFHTJiMbJ5CtpnxCDKbsU3h/JRLdqBPvXisXbXn/jit52wk95TSuvIz4Yz5wxCgQAKzpzF2b0HpTw+2hxP76Qk7iJRNe9nvhDQYvhozJgx1jQHVthTjMAf38HWsBsqvr4Hzh5TYW/ck8mE7GTT09bvPIBPJk6S8o9pC18EslB+IZ09xAB7of/ERhqcsWUEZWVbS3w3+gliDolkh/1r/gdfOGCtZgCY5PcRuDL+4Vnofv0AzH3xNdww4VYU5xfgmQlTUZDDmT1Mh0qbDsh+pNj1VgPQ+fu6XNsH/UYN1/H06Fl2sm+LixmbqGb9ukwmz544hbfvf5SFFUb0f4UeVRrT6P8SA+vN+x5mZ0uLi1FaWIQ3Vi7F8k/noU2Pbnhx6l2cgVUjA8s/mYcXlizAxB59WVnTa9di/Zd7LluVRc3O02/iYOb/xibEM8Bq60+/4PklX7CE4lQfke+JdtOc9sIzyKhTG/cPHobO1/TF5h9XsXA64fsxoA5h3Hr/TORkncXK+V+o/fbGj9/hngE34sn5n+L3NWtx/M/9GHTbOMyeOIUlQj9BIYmGRQFqBwKw1i79DjdNvl2viJVfednZGN6iDV77fikua9cWuzdsxAODh7Gzoh9kApJMJpH9X1mHiHaT76tK/sS7eLtqCexlO7sq+fvvwl/UJO5iAIlKiIYhwTXuIiGMoyYtr8S0h15DfIyT0+4VoEo4EMwgVAAsZhiyUD7lL22B6gsir4gALC8+fvluHN+/We0U8X4xII3gidzTRrDB2KiycjBrcO44VE5AZ8a0Mps8xDEZ4BDHIilF4dDIwibX0ShMxjoaJ1pZochOoVHpGh14WYHL7zCWxQyIM94rC/DFnhupj/6O/Ml1MRv5xgle9I/cJkY5kvuS7v+/Kn+OmDhY3LTyzUPEmGHPfQv2odXFQGEu7Amp3CVRHTK+HbaqOCvKEK4o1U3QsnzKckLGr1gJjDQWamZm4vkXXsT7c97DmdOntUlfCSemLanHTZyMt994DSePayseZhO80AsUqjVx4kSWc4h2NP31118xZMgQ0I6IX3zxBYsRnzVrFmNpCRYkPa93796gkLAjR47g7rvvZmAW5Y5o2bIlW3l+4403WH1If5aXl7P7ybgnFg4Z+ARe0UYURh0hy+fflT+jzMvP1nSE1j/6VRgxIQpwRB/qJ49Z+T38HXKOKI3dpYUpaoCYNsY5s0vfN2REcxBIHK/RyYlCmxWevX5k9n0BgX1f4NyhnQg6uKzZlBBCLQ+TDGhoeY+MbSHYS+4EK1y9HCj4yYbkbo8ib/OHKKidhdK4/wpl3OSDJazfyZDqSn36118nlflKc7pEMnf+LgvLf9W0aR21LpyBNRDJySkG1pVgYPG/IoSQjTVlF8KBA29nSdy1VS96r2g/DbQR79ZASN6WTXtHodPNMXDYQrBbeFyw0x6EndhXB0NY8hIZ/sCMOo0xIrM5PKFo+EJueMJ2hMIOUA7qfYVn8fhBklmN1aQvg5YwXj/3EKjC22nHAovCwDKGEMqJ2k1CCBXQivJksbxQ4SBqD22t9oE2/wrwVNPuMiAryluRWQ8l/W5ijCum61nuK8B6aj9sRw4hej9nbNA5+pfydDNEN3bATeCVPQ9uRyHcjmJYgxXYMT0VxYc4G8Z8/jVs2GLIrbOk+S+sTukDR6LejKfgvZCFoKcMB5+cjtJjBxjIWeSKQb20RDhtlXcUEzUdsqkBiv1abihB9Regibyrn2AgaeMCCLfph2BqbcyZ0pwNourJLgSCYfgDIXj9IYycvYO1u80WhNUVOb+O7cQ2uI5uVEYBZ5Hw/hFzhQJUKbqDxpTYFZHbYwrA5nbjdK+hKGt4OdEFdNN80qGdqP7LIth8Hj6+6P9tu8F76/266xwr58P54wL+fmWYsHZRd2bkOda4w0egLgeZhP2XYAPecZcj2WVD/NuvwfPxZ/Bv2oJwRQXiZj8La7PG8P+6Bs6+veFduhyeufMZoBZz791sjJW//S5yrU5MK3eAgkFFCKU2jkVZxA6MepCTy58A94CW1/dFSv3aLFeRaD6vzwuH3aHmwCLQyOVyqQxODzFVSsuwex5PusvnAi2wTG9LKbvhUjJ3iWEhxgG13f0Nk9AvKQG5pRmYdHg3VhQcZDqLrqFQNAKvaGdgWtAxflLHroOnRnuU211IpxDC1Zwxpz1fm0uq8j+ozFXlwEps1xEdlizH4WceR+1xxOAB/IUFoHxG53/4DsfnvI1wIMCSuH9sS4PPwcFA2R/4u/Mv3d/0xy0MkKJFB4+XFldokYICpsVfHjZOrjDZFlwfhZA3rK+ObcVsbqFPFLkR5TPOv2qZrVZ4azTC6TGPI+SOgY3A5ytr4uZmyYhx2HAk34PnN51F64xY3NGmGhxWC5YfKcCUVSd03ZS4aRmq/fSZ6nBzmdHsAS13ngXxyRzAEmUS8tX05hG4685xbK4Ux8o8XhSVeRDlciEpmAOUFyJ0dCOsLa9HOD4D5/KKUFzqQb2aaXA7ORt/7e/7MW/qVJ18iHd5K7yMMcSeT4wiw27eRh9BBnhEW8p2wf9b/0NbRKNvcqJtUW5R3pmvv4CrB9+A+24agf3bd7C8Sa8t/wpOlwszbxiG/PMX1P4z+lbi2Vz/6RcWR917J5q2acX1p8LQScmozgAXp8vJdCABZN5yD1MWxAZ6YOhota/FS4XOprElg95y29L32V/OVUMIf1z4JeY88iRe/+FbzBw0BM9+8TnWLf+BLSCk1ayB7z9fgHEP3YdX7ryPve/bY3+yvn7wltE4sucP3VyrznMR519tXr521HC07NoZr8yYicGTJ+La0cOZTli/bAU+fe4l3PvmK9i7cTMDp4ReMvq/Y+6/Bzlnz+HH+V+o2MHrPyzDPQNvxN2vvYi88xfw2ewXGRvrgSHDWXtSOKKZ/C36c9dFAKzzGN6iNV77fhmad2yPvGz++5/4vwLINOrki8mfHn/R5Fa2d4x9HQl7kMedkQUmswcvBX9hAFYkdEx+kez8i4Zr2b47Zj75Jqfdk+GnrHyLCVcDqyTgiuWWoH88nKCgxIcz50vx5pOTcfLILj2SrrSI5nhpk7js4MgNJxqtsoOl3VtVQ8sda/YO+bxcLqPiM5tgzA3bSvO7ThGZ1b0qoaFzshAYlbS4V1Y8ZmU1tmlV7W1UmGb11JwLDTUWZfun8kf3i3tlJNlYN7nsRiMpUn/LbfJ/Uf6Sr7oe1QZP5InZFfYVMaroN8t1VV6G/NcmIO3pFQiGLWqeLDUPlpI3K7RpEcK/vKMT8khtS2woY18ZxxsZ7ffd/wDKyz34ZslihVFAq3bcyex7bX8kJSfjpeeeVR0Qo04w9ifJEBmSl112Ga6//noGYPXs2RN5eXk4eZKDFJ06dcKrr74KYolRng96Bt2zd+9eHDx4EFOmTMHzzz/P7pk0aRKOHj3KniOPVQohFDmwKNcWsbSIhWXUR5UmF4Oza2wTeUxfXP+J1T52F3uUdg9/sjE3Fn++hFGqvzUWltZv2uqovpyRHHsz/aetSDLHNtkGbx0Hkg4G0PXGMfhpZzEqsg92DZ8AAAAgAElEQVTB4i+GvfwsEAooBpWoj7blsAgr1L9FXuMNI2yPhr9OTfiCV6B7UyfcOVuwccdJBKIscKj+l35dmNro1KkzKgNLa0cREsnrSwwsAWBRO+sBLO7EC2aScELoLzGwCFgVkzgBoddfPwk5OZRMlQNXXP/xfE88r5kGKsnhlAKw6T04gD6Dgiynj42SlIOArBD7vWheHNb/GgMK+P+gdQu0j02HL0jsKycCYRf8YXq2He8c34Ul5w6qOyDyduXv1WRAA7Hk85wFZ8HOBSGkJ0dgW1UKH+ShCYxxpTKvKOFeEGEEUfvmDrp3CyaWvi2MbD8O+nlr1UdRXwKwOPOK2TD+clj3b4EtaEXstp2qkehuH4fkaTXhcHngtBGAVch2JHTaypG9zInjHyUjHOAyEnn+VULDxIq7tIK6uOkq9q7q141E7XEzsev2gQiUl8BXSLs/8v4tdkejTlI8Y1SYfbxBYOTvTVEe4sCF5nSKPFScAcXPaUnctfk3hFArDmBd1yENb93RDJ+sOoPyigBm3FAPt7+6Gys2Z7PxZrWHqgSw7Ce3wXl0IwcGld39GEOK2YncGRYgklgVUa9T9EsgNgEX2vZAcfU6gMMBxKfxv9InKucMavyyCO7zJzkA1aorKsboASznKg5g6ZhP0u6M8nG2YKPY5wI0SrWE8EG0B1GxUYj7eA78W7fD8977COXlI/quaQj8sR+B/Qfg6NoFlmAIFctXsDxZsS8+h9C5bJQ++AgqLHbcXmZHCYUbq2CANjpkRqjWHnLos7bq3XJQXyTXr4W+vXuBckLSZ9PmLejUsYNqD32+aCkW7eG6wWYJY1RrPwsh3DtvieR8agnbK88pClNOytUmOyR31kzFDYnJKC5Nw6RTW7E4zzy/lJmc1hv5E3w12qHIEY24Q9/hsrUPKfKgOUaVnHApTYA8f0eHAxhtyIFlcTiQOWw06k+7C+Un/sK5775F2ZFDiGnYGKk9e8GdUROO+ARsuvYqBMvKlF0I0+C1R+n8DzkELJKNK9dP6L9GP2zSdiFUgCoGWBnyXwkQS5wrHK6FfIo5ndXVdLTr7WjZ//ClZeLE6CcQiuP54zJiHWicHIUElw2H8yowvUMG+jdMgkvRI29sO4cXNmXp0lKmrl6Aahu/lZg2Qv5kthBnvVAIIYWeiQQ+Qv81uHEo7r5rvApgFZaUY8kv22C32VCnRhrsNivT6QFPCWzR8ahZLRlpibHYsPsI3C4HerVvxt6/Zvs+LL77HrVvRHPQvMaSuCvhj7LtY3Tu/6f4H6QARRSSAAG1+miLdqw/lRYdM+tu9Bt5C16adg92rlMWBSwWxox69ON3kf1fqQweHz2hStuZL1ZUBh6G3zUVzdq3RVRsDMs7lVwtFVGxsZUkjvJtFRcUMKBybIce7Ly5/6swWgWtVnmSuJZCCB8eNkZXFmJg3XntDawck556BL99uxzxSUlY8fl8PPzRu5h53RD1fZ9sXoMXp96NQ7v2KM+Q51Q+v13M/42KiYbP68P0F55hYYWrvljMnn/N8JtZuODb9z8Cu9MJb3l5hMUoYMQ9M1hy9j0bNuH8mTM4sH0HCMAisOr1lcvw8rS70aV/P7hjovHRk8+yHf5OH+ELYkb/gwAsSqJ+Y4QQQmJg3dKsFcuBlXvuHNYuW471361gz/o7/q8Aw2VdYaa/hO4R5yr7v5XTJMj6yni//Bzj+0R7mKm4S8JfKITQONjNnEi5EuJlGbXq4/6X5sMdRVRVLXRDbij2ndHyldwSYktvxSGi3FiHDh3Aaw/egmDAr0Px5YrTig6tKFHZiM1AK0y0EyGt9gjKrRigVQEiYiIiISeGBT2HVkpEoxupeGbAiNzYRqUgC6ixA0Qbim15mcGlUF1F0meRhFM8R9RFFlRBj7wYaCPX1UxAxDvonXI9jE6wKLcor2gr8VsGhcQz5XtkIZXBC+MAMU5A8kAwkz+5zDJlVC6DQI4Fi1AwaJhhrST7E88xKmSz8hkRdHrOP5U/YzvL7SmU039K/tKuH4eM2x5jYYBsZ0Gxy2CQfw+UliD3/h5Ie/N3kCtMQ4iFFtI/6Z7wus9gWfpkJPHjBrYif+np6Swkwoi8G+Uvo0YN3HnPvTh39izW/rYatEMHxfJ379ETrVq3wcL5c7F+Ld/tz8zwNBZG1n8jRoxg769VqxbOnTvHEpkKeaKtpB944AE1j1W/fv1Y+QnAojDEF154gYULjh07liWuXbFihToBktxQcluRA4tyb1111VVsV1Uzw8KoY4QuMZM/ISOXrv+EA6kP99NW+bmRanxX5U4U4Uf6M1p/yaAXNy54eAEPcRIONg/x41R6EWrGn6gliKd7ul7mwtDOTjy4sgZKcrNh8RXBk3E1nDnbYQ/7Ka6VsUMEmCLmJC18UCqnxQaLzY1QbCN4YtLhKD0Fq7cA/Vt4MaBdLGZ+eJaFxfJd6zRQTiTAp/KfOXNOqYfMGJPzWvAQQiOANXDgQNAug/q8VyElzJE7CqmpHMCi7/SP5qgbbpishhBymWQSrvQVzzUpjvH7tGTqNMYGXFuCMcNz4bCQU8sBLAKvfD4L7n68Po6ecKNmjBPf9W6B2EA0gj4rEHAhGLIjELLCF7Jg4r7fsacoX00gz/WfPnG6pldFewtwi//9fZ4f6UnKzoOMncBz+/BcV6zRlQTvIlSQM64IxKKE8wy8Yvmzgqg97Eq1Dfjb9MnR5XxY+vk3BF/1TBT0GwrKlaOGDxZdgP3kflhsLjhOnYb79BnGlogfXA2x/aPgiiqB007AVRHsPg+KfweOv5FMmI6qJ8R8WHn+lRx0pWmE/lvUcCWTh5Qe/ZF+3QjsvWuElhNN2Q2wOCoadZMjA1h/lblwzx+N4A1p4ZLCjxBgkeZXKIa/BGgxObviGoRSaqFWqhtvTWmOJ+cdgscbwHPjL8OkV3cjK6ectbvNiUsCsJgsEIvfTqwmAvd4H/OxruXA4vQpabc9uw1Z3a5DaXot0VJweL2wRceiIqWGiEHksh8MIPPXLxB7aAfQsktlAOvH+XCuWiCFLlIRhMxpzC8+/waZrcr1H7fPatpCeN9VDqvdAvekCYgaOwaBvXtQ/upbCBw8CNfQIbClpSF46iR8q36Go3s3xNx7F+B0ofSBh+HfvBW0zefYMgcKw5Q6y8pYBpr9RwtA/De3/5RwUwm0obJQ/4SCIVyhMLCuvaYPYw3TZ+PmLbiycydVwX2y8Gt8uccGC0+sh1FtAvCXe/DH/CUGZR1S519xgo9FJQyYpTATIcFa/spxKam4Nb46AuVRGJf9OxYUHKk8PUQ4cvkt3yGY0QZFNicSNz6HtMNLKznfpjaowoyTy+kO+XCr/5yaA8tVrTqaPfsyEjt1hj0qClsG9kLJQZ4Lk2kHifFE7Cv6mCVxl+1UVhZlBedS7L8GKzYyhnrWuQtYs2FzxBBCenfHdq2RmpbCdH/JqGvVXHGcHWhlG30YwwfV+msKX9fSfncMTg1/HBU161XqgViHFbN71kW/BkmIU/IT3/vzcSzYl6NdGw4h85vXEb9/k2ojc51Oc5RI6KxtMJWYSjmweA4trmO53VV30E245+7bdAwsXyCA41m5rD0pJ1fYYkFiTBTsdhviot3w+QP4du1ONKpVDR2a8dyRv27bi2/unaWOF9aPCiu2opwDWLKvJeZMcY0ol7jP2Ciy/SeuuVT5E8/65/4HZ6ZqbScv3vGnN7i8OQPqTh85Vskmc0W50ajlFdi3hfKuaWGEog1UuZfyVdEx4Qdd0aUTHvnoHZaDSo3ljjBuSUft3rAZ9w8ewctrKn8ae9LM/31u8Xw8O+EOZjOQPFEI6Jsrl2LaNYNYH457aBZadGyPvZu24Kt338c7v3yPD5+Yjb0bN7G5/e2fV+CFKXcyAKuyb6R/98X83zuefYIxwMY/QiHMYXz23EuY/NRjePfhx1Xmo9wvsv9bq1EDzHhpNhxOF0uw/vCw0Zj55it4bMRYjJp1D2NffbhhDT54/ClsWrkKydWqIfvUqUrMNXr+vF1b8e2cj9Bt0ADTlqcE72/f/xDe/XUV2ylwPYWvGwDJS5E/kiw34ShRBNSHUJJfoMqB0+2Gw+mA3+tDTEI8s8NLi4rgq6Bdbrn+Jx+LUrQEgwHEJfAE9hRm6ikrYyGnFG5Kfwn4KyspYddTknwGNJeXo7y0lB2jHRD5tBRioKi8i+jfwV+YVU4MLFnIZSdeVZQScis7k3S+eburMWDsM7A7iD7PQSz9h7Mj1A9Nwor004Ls0b2/YeX8p1BWwlca5Y8QwO7du7O8IWfOnGEDmFgRX3/9NXMIn332WV1nCqUlnGCz+ohJiHYFoxAe2vJXHvz0QBmUqDSZKcIjhEZ2kuU6RHKeZYVpBugIBWN8r9m19Cwqhzy4KvWARBsV18vtYqRHGhUPPU9+tzgvK3lj38ngkGhv+TnGSUOc+zvyZ9aOZjIkXyfX31ivSPInjwOz9pOVyd+RP+O4o99Cpv7T8pc8cCzSxz9WGbxSAKpASTEKH+6JpNe2sSTIOvCKAC7lOqz/FPblT6tjtCr5I/CKEleLyVVuH6NeSK9eHdffOBhNmzVnBozL7caRw4fYrNqgQUPMn/cZdmzfJuWCEcl7NdYR9VXnzp0ZUHDs2DEGnvXt2xeLFy9m4Dblulq/fj3TBdWqVcPKlStZKOG2bdtYaCAxqOg7AVhTp05lDCwCsKpXr85+r1u3Dvn5+SzUg3Y5pBxYBGDRewnAovsJwJI/ZvrDqIfF+DPTS0adY2xDOe9UZb2vMXs4oKRPeirknL9fn9hdGwMcODGOdf5bhCYKtpDG4NKXhU9uuiVhhDG5bzQctjDe/tEHX2x9OMpOocKRAu9lk9A4PoywtwC+4tPw5h6Bv+QMgn6+e5vaJrDCEZMBV0pTOJIawupKxb6cUiTlrIQtUAZ76Sk0ybTjvpsS8dj8fJzN52CYUhv1Lz2PQmOyszltXw6D1AAlzjCuV68GmjSprQJRJDddu17JZIRP4txZFBO6YGNROA6/hjem1+vDyJEzUVBQrBrvgonF9ZuWE0suM+8rrr/TU/2YePNZ1M/wIDk6hMwEwB4KY/PORHy4uBZCFRaMbJKM61rURtjrQMhrQ9hvY4mawyELzpX6ccPWPSgJ8h0ZebuK8cRaQi2b2KdBXzZ+7c75Xg5ghUOo8AZQWOJj6QT4roQKkMVyTWhgFe1C57CHkBhLOV34veFwAPVGXa2TKxmw0o8Ffb4uOhd0RyP3+lEIR8eqTpetIAuOc3/BQgiN34eoPw/CRltKW8JwZDrhSA/D5gzAEgrAl2WB95wNCEaaf2U2oshxpiS4l1iVpO++bPQjAwpgtwM2B4LlZUoCZ2JucBChLCYWdVMiA1jfnU3EeydqszaWWVXsu7LjpQxoVWICWQBfi94IJtVivRrlsDDwKhwMIcphRVmFn32nsWmPsl4UwHId28QdS+b08jpQvwlnWA4b5LmxNJZRyOnEiWuGwx/F2QAx+dnI2PozrAEfzvUZgZI6l+n0ptXvRdypA6iefxb+oVN15xzEwFIALPZOaRdGUQYxDhkTj+w/tosnB41SrWG87i5HdUsQPpsNzmt6I2r6VFjiYuFbuhwVn85F8MIF2OrXQ9SUyXD06IrgnwdQ/vpbCOz9A1Fks4asuKfcjnIVYFUTt6lJ3RVlwtqIAQWSMS2HyLS4rg9S6maib9/eiFV2IVy/YRO6dO7EwbFQCJ8u/AZf7eG7TxKINaJtiDGw9i34Wkr6zEevuf2n5JRRsBvZhqc+7e1OwEPx9YCQBeOzt+PrYA6bL4X9QnU5ceIEdu3apesL+tF5yGJY0pohuOtDuI58DytbdNBovkY7V54TZf+DvkfRLoRSDqwaQ4chtlFTpPa4GodnP4G89b8psl+pGOoBkcTdY3PraMZm5bgU+6/2MtqQIQxPhRc5edyvYf9UPa+xsRIS4lk+TWJnlY/ur7P/RLjP3/U/CBQquLwHzvSbUCnslipNzKt2NeLwRI86aJEWg1u+PoB1p3gia/rYSwrRcO7DcBbnqcd4u3Mdr7EF+fhISkthDCz9QlEYtQbcgHtnTlD9E7o7EAxh7c5DyDqfzzc0UMCupPhYdLmiIY6fzUFyfAzqZKQoUTph/LJ1D7574CG1LLJ/YsyBJS76J/6HnCNLlpaq5M9oi/09/0OzTeh9LEOh5AL/U/ljKTyUCVj2p1RLRp0PeC0pKfwdzzzOwIaqPod37WW7BlJSdTEO+LDVbGqZVWbm/1IIIYUH0ufMseNsR0HaFZAYWPQhoIcYWT8t+gpzX3wV9S5rijtfeY6BI7ToQAnXnx4/mYU1sjZT/V+ux3T9JrjhVfi/xMD6aONqJtYTulzNABW2Y5+B+VjZ/9WAxxadOmDWu2+yV49pwxcRZrz0HLNL3nvkcdSsV5extMpLSnVtJWSnQ++rcdtjD+PCmTMRm59YY8R+e3z0eAYqyXIn93Ek+aM61WxQHw9/NAc/zF3A+nrZBx8zUImV+4H7GBBFcmOzO+D1lKNNz6vw2PDRapnGPnQ/9m7ajBsnTsCBHTtB4Gm9Zs3w1Njb0KrblRg6bQrLL9bnlqF4cOgwjHvoQQbknzp0GH2G34KHhg5j4NlLS7/GjjVr2ULNN3M+QNaxv/4x/qICWLKwicEvBERuVeOgonNRsSlIzWwGu4NTcFVk1ohmiV2W2KpOECX5p1GccxzBoL/STgqiUzIzM/HEE09g9uzZzMmUlRcBWM888wxLilynTh3G0CIHkiZOcoTJcaTEysTeatCgAfbs2cMc00aNGrEqDRgwAEuXLmV5bAgUo/AOmkzoWfQus/qLAWsGnsiGAJVTRhPFQBMrGEbWRFWOvVFJRFKactvQd1EGszJHeqbxWvHbWF46blyNEoNHLof8HiFHAqCQmV//ivzJylQYC8b3ymUSfSfXSci8XA4zw8FYN7m9qpINM2BClhdZ1szeaxyD/93ylzRwHNLGPqpnXgl2VRDwlxSh9LFeiH9pCyiLjsq8ksArOmbZ8CkcyzloI5c5kvzR2DPqGHksyc+gPqMwvuoZNXDhfLbCyozH7ZOnMlBq7mcfY++e3ZWeJ2SE7qfd4IgJRSFbBC4Q0ETJ3Omadu3aoVWrVqzpKc8VgVmUp6tbt27sXTt27GAhHASsky4hUL24uJhdT+GIHTt2ZOUjgGvTpk24+eabsWjRInae6klhhN9/z1dTzMa0mQFjHONmbWomG9ox2eDgIJFe5llpVHHTxnTl0MLKZRahe5ru0Z4tgB6T5Kpc00qAmZwokpclNc6Kh250YN46P3afBEL2aJQltkGoZhe0b1GH5fJQ7T9OOkA46EMo6FcIVMSysSNssatGYrEniH3bfkJ82QE4So6zMkQ5rXhlXBx+2V2Ob7dSmJpcF14ukpvc3DyUlparDCxt/GohhFSG+vU1AIvGu9D/tM08fYTRJYO21Oa5uWU4d47LEj2H5O3sWW60yfmnBOOIVszEtRqAKHIlaX3sdgYRFx1AnNuCGd2cuKZGGIUnAf+FEApzw6jbpR5c7ljA50DYb2cAVjhgZSDN63uyMefIeWbcyWXgAJ5SMt0GATIgqt2zc24Z0pOD8AeC+PFkDTyRMxGnAjUZU4cYJvRX/50fS7bk4dk672JovT2wWzkLq+5oSvDK68nblrcD1xlaWKV+/iWWS4h2lUFxx6tQ3vgK0M6XLLyt+AJcWYc5gEVGbNAPx8kzsBcWwlrhZRRTLvdk+LgQtttgKeGJoS8+/0oJhVnOJw3QfazGFtA+j3aLD3FWntOJ/1NATmLTxceiXnIcl3XDh9hxD/5ZG/tLaMVTDhcRTBrhGfEQCwZCMearDOyHEajTCsGkTL4pXzjIc/kowCLTBcQGC/lhd9thcUbOgeU8tw/RWXsVaVU2bVCSKPLgGKW/lPBCwcYSJmPIAuS36IjStBpwF+Uhfe8mtssgnQ86nLjQfTAKG7VC2KYPKUywAsm19cwT508LQGGEipvFQVYl1EQ40Bp4xtNIi2upzjaE0dQWwhiHFy3tJIsBWOrVRfQD98HZpTOCZ04jcOAw7C0vhzUxAd4l38Lz/gew5BciZLVhY9CGhV4rztJen+QgKMwuVX+yMa5t/851Js8bJvSnBjyG0WJgbyTVzURaWirPT0v6Iq8ASWy1m9o1jCMnz+GbPewHA7GGtQNjYB34goeFcXkVYaT6kBBeLu3dxEgz2n9dXQl4OqEha6fx57ZjpbsMtCBM9rP4bNiwAQsWLKgkqzNuuRuDM9bjmYX58DMSlLTIILHONJ2qPcI4J9IuhGOkEML4Fpej+vWDcf775SjavVMCWyoVQz0gkrhX2HiEh3jvpdh/1JIiJEzogMxvf2PjhvqBpXwWoYMsjDDEAWmx+yDNCew74L2VMzC4fEZiuFQOxRflZH0kchBZ7Th6090ortsyYsVrxrnQr2ESvjmYiwIPZ6MRQJy5bhFSdv5kkD99u8gLWJQDK+CnHFgiHyOfy6tfMwD33zdRzaHMlmpCIRw/l4ecghJEu50MpKrw+ZCcEIvMtETiZzO2pqzhVm3ahRUPPazTr6ysdK/CwJJl5X+8/6HMnnxMaSCMEYj4p/IX0f5TJEEnL4qfaGw/ITRGQESe54z2H5c//c6ERr/uUv1fISua/jPKn15nCB0i+6DCbzArsxi3dK779QNZddcuXc7lTuxsLkL9JV9eaw+xEML1ZNO2rdF3+M14Y+YD7DflKCPWHIVlkrqVwSkz/ze9VibqN2+m6mWZy0PvJDbU/m3bK5F8RL/JDCy5DVh1FJ0y9uEHGJj0y1dL2AwndDqxr575Yh5m3ThU1X8UUvr2r6twW8eurEzEynrjx+9xd/9BcEe5cSErix3/9vgRTOnZG1NfmI1Xpt2FwtxcvLTsa8x/+VWc2H8QJQWc5fXhprV4aeqd7J773nkDt3fpoVs4+afyxwAsecDLg0jueCOoJe4R15sJqvxc+X65sPI7xHd5AmnTpg369OnDwnOMzhpNmHT83nvvZQkjiTlB3ymZctu2bVmYxpw5c9hOYsScoETNlIdm9+7dOH/+PKZPn85YE7TSTdfS/f3792dAFm0BbFQEsmAYBzabdBTBF06JOGacQcwGmdH4lQ1uuV3ktolUPvE+GZQxKg4zsM34PGOfyYOFWCliEqHv5KiLehllSH63uEccM/bp/zT5M5tUzJS6aHNZqQvDRdTZOEjFs0Vb0L3yDjT/SflLvG4CUkY/xAGsgMaoom5nx8pLUPboVYh9YSuCFjsPGzSAV/TbtukzuH94WseEEhOLGB/iN9WXmE4ir0dV8iePMeYUSGGwFFZx18xZsNsdeObJR02Bs4uNHWN/RtJ/8nXy+JANflk3iOtlGZJXC40GdCSjJpIMGuWvcvn4Ef11nE0l90skPWPU1/Lz5TlBDrvTM6k051q0i9E5EoawYEo47RbMHOiAFX48/x2tjrFSoDThcjTpNxJ1ayepoJRCaFIWUbgXwBdUpL+KL3/kjAdn185DVP4fjM0j2rrXFXZc1zqA55Zacb6oMlhACyNHjhxTdxokOjzXf7w1+HM4OFG3bgYaNcrU6UYBZAn9QH+FPItjZ88W4cSJPNUp4G0hnq+xvgQTSmZgiUTycnJ1+X4OegG1E6xYdi2Q5A3AmxtAXoUD1fvWhCXkRNhH4JUdYZ8N4aAVZ4uCuGHZSRR4eSFkppM544s7M1xORbg2D8ncObeYMbDKK/y44+A4fF/SDaEA5bgKIRwI8rZgYBYBWSHlL//eNmYfVnZ+Em4HDymsx5w+jfnFMBbWUNqxyvInjQGnGxeuG4VQbByTf2vAA9ex7bBalYTsxA5RdmmExwNLwAcrsQ0I8HI5YK3wwXmQ518yjknO4BFgGjF6tNBZpvMVm4HutYUDDGhwWsowvuYuxDulXQuJNWG1IjPWhepRjkohRZSj8LWjaVidm8E2QJDBB5J6GTThc5ESKsdpUUrZFeFijAgtSXyF04KyOAmoIj3hjIctKhWw6sEjoQvorzvvOGLz+MoqgUOsLVQASzAstR0JxXW6kEdiClAbMRYRZ+fx82GErVZc6DIIeZd3l1/LFiurpaXrjjl+mg/3Lws5KKACdlyImQPJgE8uLxQeYWP1lzalUNooDiEMdPgxyunlQJ7DAffIWxB97z0sN1e4uBhljz8F748/wxkOoyBsw5s+G/YGbajQeyRaiJ4IW9TtQMZ1iJyQWl4Lbtb/agZgDezfT92FcN36jejejcJp+eeDuYuxdJfCaAwHcXN7G2NgHVzEw/WE8yxkUDhV2rygsfhETjB5frvM6sZrSU3htFgYgPVZ0V869pW41mye2j7ZiTpxQQz+qBZraxlw/bv2ny3kx0h/NtKgxPDqev7SfhTAhnmOaghYnaYMiUpzsl4B6l9isaDG16t1+a64ftfnwKJjQQXQ4rhwCKHbbjC1/7icGvIjyfIkQC+D/1FauzkOD5gOxFTOaaTO2zqIL4ykfRtQf83ngM+rhjAKB1jcY7SdEgjACvD5U6YQVevbH488OJU9hxYrTp3Px9mcQqQnx2Pv0TO4kFfE2iU6yoXLG9dCm0a12DgsKClHfIybyT/d+/3637HykUfVuZWOiZQrvv9K6k0srP+d/ocAkvV9q9kQcg48YVco8L+h/1UhVEJd9baYFtlBssRmZOm6f6//wRfp6PPv8H8phPZi8qfJo2KbCNBGCTkW+s44/4p8ZLL/IdvFZgnP6V1c/hTAV5HFSPJH4G5RHqVc0MKvRTlk/1zoyar1n7C9NH0grpd1lFxP8Vyqy1NfzEXu2Wy079UTa5cuY7m5yMaiEMhrRg7Hwlde///a+xJwy6vizrr3vXff1v16ARqwGzEsEoKIo8YYMYBR+ZhBBY1iJo4SP8AZ4sgYDCJIRKIJGvwyYZigRCRiMEFlCTgEaFQaFNkVR1q7W3p7zqMAACAASURBVFQW2Rro/e3v3jtTp87vVJ36n/uW3iCx3/f11+/d+/+fpU6dWn6nqk6Sf8d/4GQ67PWvo0++9/3hM76pctmBB9Cl534qRgq26YCXH0qfufrrdNLvHE5/dfWV9LF3vJu2bNhA7z3zDPrZAw/QnTctDzJhYP58uvz+u+jMt7+LGn29dMF119CmdetCFNbFZ308gNA85q3xf7MUQjCdlcgWaLAKzCumkgFXclAsoUvqxTtgHAXB6TZ8Nb39jsfFEVhcBPnss88OtWl4TAx28fX1q1evDqDUJZdcEgCsM844g84//3w6+eST6dxzzw3RFpzSwxFYDH7x+x/+8IfpggsuCP8eizecleaMOYBeaqgbw9ikCFhaWcFiw63RRqlt249do07tWsGBZyztrIDE+trPrPFha3IlpWeiafBZJ0DKj73T+G3bLyT+KxkO1tEHrT0P2DnYNbXK3wsrayB4OlkAZWfw38LjT6WFf/jRAF4huirUvkJ9q+HNNH7eG6jvL++kVq2nCF7xe90BwDqvY4SR5z8GBzg6iUFk/oEw7kTPTkYVg1g9PQ3atGljxbmcTgZZ2npDwvO/H1NJJvp9VRpvqZ3pxuF50vONl6s5/9lIkTyFL9o0WYoAPuvUp37uUwe1bSuDEDGEiCsAXWr8Sloa0hX48wP3Ijr1TW266YEW3bKSI2xMKuLS11HfwW+j3fZcQIODNRror9HAQI36+jhnn28lijXbJoiGR1o0MtymLZvbtOGpx+nZH91EXWt/YBz2cC5Hi+cRffQtI/T91UT/54F5wbmQdeT6NV20du0zIfpK6aq1DAFYALixABZkhDg00qb9337/xBOb6NFH1yWQDO2FwKF4AUrUNgmsyW1apmG8PTTe/odbAAFgMY0ve02Ljhho0jPPtoheMkAvOmIhtSc5fbA7pA62JrpocrJG5y7fQN/46XCQBSL/cDtpHnFWTbkE2BYkWqDhD768nvZcPEUjo1N08sqT6KZNv0vtp35FtPbJ5AQJ2BHBzlabmv3zaGJodzqsfxXd8nt/Tv0M8LSbdMBJf2BSMaUP4ck8tQHjAqgHQ5TfGF+ylNYf9TZq9/eFd3ueWkU9G5+jWp1rCAEEaFEtRrPIZy2qjY1T4xePU314NMmYkkEpslwdEDAT9IiensqJ/IKujfQnL3mEDls4RvWAHkjh3956rRJ9Ndas0ZWPLaRvPLEXtWq9CsokZogn1cm5NOm7mcOZR+UIb7VprH+QRveWiPXEb/XuEM3ogUErd3qf+wXNf+6XwitNBu9QSwlRP9HJkXvzksyRslgRqALAFMeJlMewvlwnqqdB6w47ip59xe9TsyGA4+DAPNpjSQ5gNW64jPpu51NnAbDCvg0pqFrMXh1vhG+akjAmOorrx72yq0l/3DNJB9anAjDV/ZpXU+N3XkMTt95GzQdXUnetTt+d6qIrJ7vo0TaDlnZ+qJGHWkJC5+BYJptR1iKP7FHg/+Bj30iLXryU3vaW/0T9/VID67bv3kFHGgDrki9fSdf9sBn5t0V/8NvdIQJrzdfl1lvMXcA7n9otdOJnwsEQb3rLAbUaLap10VcWH0Lz6t306OQIrWuKvm5xenV3L23u7qMt8d9wo0Hzd/8l7bvkXlrYt5YO2q1Nm8e66J2XvZi6spS0vFRFaC+Ozzp42WESR8dNrKc3tzZRr0XashF3/mOcanQzzaNVjQXUzXURXaT4bOw/pJ5hjEfcuIJ+ukUAHURi4ff0Ga93iL6StTh4Xhf9+ASJwLL6UnhWnOZcj8bdGMdb8gVYAW5adjA9evg7aWSJpBZ3+qlNTdEeK2+jpfd8k7qHN+rthxpam04tcvupTQt24xTCyXRgAZt4tzceQ+d94n+Esa96+Cm65Z6VtNfiBbRk8XxqNHqE52NaJe+RySm5jGVosJ8O3X8p9XB0a61G16+4h2485xyVQGaN+BbCqYmJjE/smvFLpb8tnT1v279n4j886/tAv0jnK/lf8q7JGawcLJaBS+9/eP7za1zyP5j2zJul+mqez2bPfzkgV7KzQQerf7EW3h8q7b1EV7NPdI0h0/OsAssDdkxV/av0CFHmUf7BRvNrbQ8Vdp7/q5G6nm9L/kea4/9PIfziHSvoukv/gW69+lr6yEX/k/75by6kNQ/8iD79tSvo8r/6a/rZj/5v2Cvv+tCfhNRNTinkGl5jwyN09qVfoPNPOTXpKAa3/uj0D9O/XPoluuvGm0O0FgNUXAT/PX/2p/TzB1fSXTctp30OPIBO+sQ5oYbZtZd8Mb3PN12efuHf0FV/93n6wYrbM5adE//5CCzvMKIxL0Bxag7ms0AHBJgnqB0YmLXT/5gRp9lwUWQGmBD1g0XhCCyuIXP66acHUIrHxHVlGMTi3HsuCg0Ai5+5+OKLQ6oPpyNyvwxgXXvttbRy5cpwOxinAnHxZm4XPxYlxZW+fu7YFBiXZXTQxwoRu1rW4LWn8HjenjZ4unqh6ZWYFdIwUuxJmx8n/i4JEr+JIRQQ/cJ/VyMpNEwRYwU9LQ3tPF5o/Of5087bC2HMyc4VawD62X1UKuZv6cLvPl/8t/D4D9LQCWcEwIp9BQBXoaA7R2QNb6bmp3+fev7iDmrWG5pq6Iq4N+76Mg3ceF4ykmfDf5zmyyl99iTH7zmrlKwB7veblzmgZ9Hg6wCYTacArXz0J0+zkX/e2PB7bzr+s8rc7vUS/3E7aohIr1owWGtaofYUgKvMWQiOnKTBqDwDUCWABk72PYBgozp0zgJ6Qa75d/k7vqnotKMnadmiCbrk1gb97OlGZsiHefXuRhP7nUSt3r2IE36sHAu/p8goonprnLo2PUiNx64k4qiX8KMRJ/xXX0+bPnz0JqLWBF347T1ojNPoAojFlxVM0uOPM9ACIIej/9iZl9QdlWViRO2zz5IUgTUdaOW/4wisxx7bkCKdNIIKKY02PQ5ricgjFJVPEj6OT/5Gyh+P79B5bfrQkikaml+nl7xtiGo9NeqqSe2r9lQXDY/U6G+/PUo3PDhOk5zXlVIqtUh8bDUDtYTXNK2Ro9REnnXTPV96hl60eIqGRyfopAdPops2vi6PwAqIudRU4ULLGoXVosMGf0rfOvIcGmi0Qj2Vl57CYe+yfqJ/4RBUa14p3yGqDvxXp8nFS+i5Nx1P7f6BEDHU+/D91D3BxYEjcsnARwKwmgG86lvzGNXGuc6a/Eyvf6VPyD/rOMheUkeG2+mujdIpL/4VHb3XZuqtc9F9s2vaXO6+RuvGavSZNUto1cgeXJ06pfzYtMB0OUJKVYnFwLlYeexXeFbWR6J+EP3VpvHBBTS27GXa+Sx/QwRWWJcIUCECS4EoEwXFsiVLXcOm1QixbLyxCHu9qx4ArLWvPDqkEw5wBBYArGaTmpueowWf/zOiDVykWqKaZJ3aQbaEiGdEQcW5m4vgRW9F0EvsP6knNlhr06k9E3RMY4rGY2owt91sd9OXp+r0zcluruAWQTNEjmGnBG5JPBNSV80JPUA2XnK1/1ROHnTMUbTwxUvpjW84kubNGwwy4o677qbXvubVItObLfrqN66nbz04GcbKN42++bAGTQ6P0ppvXJ8BZT66AXxsnTOkENqlb1GLrlv8H2gR12xzP81anTb1DNDGnn56pruXRvf4Cb38kO9QV50LfdcCCH7Nj4boinsWxX2re2eu9h9TcaI5SQtaY/SG1mYa4KS9PBDIEh3nJeGzyVqNbq8N0tPdg9RX70qAYcnht3oZdn4n++/vbruOGv3zTARqLh+gi0Fr/ntiZDN95Jh3Z7oV6x/4NQLB8LO8I46UKGun45mxeYvokd87gTYtOySk3wZQJUQ2tqnWalJjywba+4GbacnK71GtqZHIIq812qnsf7QCgMUphIJ1iT3Azy444g10/l+eGaKjGBAYHZugR55cR2seX0vPPLsxHQzxW/MH+2m/pUvoN1+yFy0YFFAW/X/txtvolk9+ssJn3AdHbzBADtnqQY+STc70fGH4HyaqykTZbSv/dfI/eGUg//h3TiHPL5PQCGFL/9nwX5DzUY7iXc+jfgGFXaoXRNi9NjP/5XoTctX2DT4Cj5T8Wzu2sK/NLZDer4+7OUVV2QvCdg7/qa8NGTIT/sKy5ILrr6GPHv/OoBMOP/Y/0ov2+w36/g030se/dAmdetSbK0EG5331clpx7XV0903L6X1nfZS+8PFPhKlLza+L6LwT308///HK8NnFt94SACyuIfaJyy+jG77M0V5P0Ke/9k900Rkfo7uX3xIkg41qe9+ZZ4TSDV85/68rGTqe/5iuJfylhlsI7QseiABz4hmgjVZoeIDGO29gIjCPF7Te0URfnE7EQBNfT79ixYpQs4bDVfl3jrziaClOC/zOd75Dt956a0gVvOOOO0ItLL7O/qyzziK+Wey1r30tnXbaafS5z32OLrrooqBcON3wwgsvDEXcuWYNv8spiVwDB8Iac8f4SvPCWL1C6+Qk5w5bHiYKhpxOCHihDNp2Apn85rR/W4e+5Nz7tbfv+o3tBRa+97yBTW6d8xcq/3lBiL/t3KxAtPxtI+ywrlbA2c9sP2jD9rWz+W/o+P9Og+/4iIBXpvZVisDatJ7an3kT1T91LzXbbORUbyBkf6/3jkto3rc/m9jG759O/McAFt8yilBxr/zsvrSyw9PUA4L+vZKiK9G6ZFTYvbo18s+36WVNp+/9c35/g8f8mFROZW9EMEprDOTpf/kJZi7TbCqZtIm0qaocy0+QO+0feU/aYifqRQvbdNrRo+GGwQtuHqLntnCqnqaIyV5hzThAk3370/j8w2mqsYzatT4Kweds+/Ptda3N1BhdSb1b7qX6xNNUi+AVwBzIbv6/q96mDxzxHO05OEyfv31venqzGNTMS0888ZQ5SBGDz0b3KP8JiDQw0EvLlvF15ohQ07pGcGTk//Bm6Id/f+aZMdqyRRw+XW+AIAoOATRTgFBAJlknoB5oQ26bFaBRT0vhsAcnKBR4xasSxcWPNjlPLTgmAIukDeE1RE7YlLlYrFxGH+kn4Nk7jhyhl+4zQZOTLbrqqd+m1aP7pmLS7SbToiUpWvEUNJwWc//tFu3deJZO3u9m6qm36Ml1/fSPt740tR/WLqQSC/9oRJqm9wst83RZjH9qwWIaOeC3aOTAQ4kRo+6NT1Jj3eOhLgwzWQjwmJig7qfWUvdzm6hrQqIOhO/BC3Zv2YgSBSyUIrbYekyzS2mXTLVJWta3mQ4YHKGlfePUXZd0ig0c2TPaTw+NDNGmyUYEYPX0GHsCDoXIAUnXQ60QLpgvt8sBPJDxiYEp0Auvw1R3N40PLTLhSLwR2uHWRtDYgh3SU5saw+upb0wKxAYAK0WRCFAlIFmeQsh/IwJLxqkc7G9RROofAMZN+7+CHj/8BBrYbQ/abffdqfaTu6nx4+9SY/V9VB/nGmV6y2GgT9pr8UbEuFXAe2KjyRztmORdoSPDs6+uT9HpvZO0dzfR6imi/zXZS6uatXBRUWiL94aJwJP2pG21s6sF28Ejqp8QOUZ04DFH0qJ9l6bIwyA/TIHwcNtjRHFkC8n3DGA9dNU3DYMqoGfln8p4jQSrXqXXpnOH9qOjegWE8j+TtTqtmBqlr255hB6d2EhDfa0EwjIQPjzBcgbyQyO8wj6KNPb2M/rw/gcTOFz5kGoKCQ/6H645F6RYpD1/z9Fy/C9ycx6tE2tRCZ+rvAxr4+riWDvi7Uf30dDeB1bHkGp0m7HFIvkTa39OX7tZbvyy9h8Axlnbf7Emmh1z+L27QaNDu9HY0B40Mbgw1P/rGh+hvuEN1LvuCeodH04Cs0R3a+Pm/gcDWIsDaKrAt0iB+pK96D9/7CN05O++Sm4c3YqfJ9Y+Rxd/7n/T07ffVnmbaT7KNbBitP6c/A8eYboJWddja/jP+ooYpLdzw76P4Ln6TcpTlr/Su0H+WbtM9cn28j8sgASesfwHXp89/zHgn+s63wboZXGGkq2L9zAuPNPZ/9W0e6zDTHZ5J/8DR0olgN/KihJgbOnX0f/Yav4T8NUGpMyW/07kmo2NBl39hS+GYu6fPfVDdMx7/pAevPte+uFtEgV1wmkfpO//603hUoZPX3kFfer9p9D7zzmLbrrin+jOG28Oco9rXN1183J6/OdSRuOn995Hx77/xABU33rNtfSZq75Gf/qW44gBqnVPr6VV990fZOHqH/yQfvOVr6Se3l76xcqV9Il/uJQuOvNs+vH370wH4l7+zcR/WQ0s61x7R9tLDyssYLxZxwlE7qSErEDE76VNjzY5CosLs3PB9fvuuy/c8MVFka+66ipaunRpuKWQi7nzVffLl0vu5bve9a5QdHnNmjWhqDOnGx500EF03HHH0YYNG2j9+vXhFjEu4M4Ly1FcnJaIDWPnZT+zROZ52vo7drNh7HjeMp0VZvyO3ZQlQWIFnBdedrN6QVhyZu0GAO3tetl3VNhKLyUesePx/XnF7ze3bfOFzH+lcUJwYI4+SshGBlle8ALc7q1O+2pn81/3iw+meW8/PZyWso8uTix+r1FrdDPRVecQvedviX3L8Ex4jg1JcWT5+YH7r6Ceh1aYiB1NC7B7pcR/fBPbggULAmBQUvAlpTdb/utkS3l+xRhL8g98X5J/JZnmx+sNLttXaR72M7uPSvxXUv4qX+HQ+5v+8rQrL/+Q9mfln4xDasbgx8r2fE5IVZGaW7kOsAXlAcC0ae+FbXrfazfR/N5ROv/GPWlkktMK9KTQz4n7a9aHqN01SC0aJKp1Ub21kerNjVRrjSZwR/YgbK38VkW2tY877Bl6+Nle+tHjC4ObzYcmTz75tONFzFvHo3WnkL6nJ9IAlhRAsQYsZKuVs2EVI1lj4fAEaHHfQidZJwsmyXg4Akrogza0qHsOOmkB/ehuZ6CctqEAlUbOaQF3pBXKmmvdDY1Wk8+F9qCZjgkn9/Z9W4hdeEzmBL5T/Zu0YPoO6wsnXvWvpuTYAvBJLjd6aeSlh9Lk7nuGorT1yTHqnhyh3g3rqL7mIapzvZpmnt4xnW5UPufxSz0cBoqq8i+/6AI82mpxVATLQAAdTD/ZBwFtdDWNpD+hByKr4D+m6J5Y+wmAVnonAh8ia3hPsmM6KTcEpj0uYFkohN7mouRxLaXHcGNjnboM/7Ul2sMAaTIOTSdMkW6mDwv8cF8YE54N78d0QG5pbNlBNPGy11Hjlw9S7+p7wjpJcXZTPD/+ngFgKUos4nRhmfSyiUS7ALCJ0ECbzH/zu4gO72rS7c1uGo+ga1i7yMjCryZVL9bcSjI82H986yuiBhW8VRsDKZc1Gtx9Eb3oVYcGagcgGiBkuu0Oa69ILg9r3U9W0+jaZzMHCNFlZfsvyiSTQqg2WpsatTr9l4E96YCeeSmSguf0q6kRWjG2nh5qjdNkvGEQ9CjZfzFMrQIeGQS6oq69nRRSSuPaWL2s+iFPT8x1jwVy86462bvT6d99d5+gA/Ycw26AxE77B86xkVj086f76OFn8xpcaV/FzRwOGEzKIObZyf+wqWXQE4FnQoQJ9K+MYlv8j4W7LQ4lWUq0au6xJ7X23kcOAOKEPbTo6ZGtwPBm6nr4IapP8WFO7n+wPEcRdw9qWP7Ae1begna2TTt+YxxUeM+3lw4vtor/FLC0vJp4o1D7zNqBdsxb43/4FMJp/Y948Yi1/6r+bw7A4tmM/0xaMPrbFv4r06oa3Ra1U6x5WNK/EXwzKaqBvuZ2Q9WLkRejpbRz+S8vYD9b/uPo5FM+eQ4tXLKE7rnlW3TLP3+dPn7Z39NfnHhS2rvHnvheesURr6funp4QfbX6/h/QuV+5LIvQ4iLs8xfxwQWnQbfp8vM/S88++RSd9Ocfp3kLF9B3rr6GvvfNG+i/fvo8Wrb/frJvqRYKu3ONrD/6yOnUN9hPD955d0grtD/T819V/qUILO9M2c0E5rNCG8WmvYIAw/KgfFgbNn4JeUXbJefH9uulSSZ04pcQTvZ/u+m9oODvuKA7A1nXX681AqxwszSwYY0Yj0216aQQOinD0uYtCWCMG+2Acac7/cV6QMn5NnisPlKIxwPBhPmV1hnGVQlltkLO0sauSWnN7We2bwv4cRv/3vivxPe/7vzHiD7XsmLwmdcbpx1egXfiv9LenIn/SvzujRzfRkmBYl/5sZX6t4ZVJz6wRpMX+CV5Nr2MTba+KJdCTbuSnMjlDhJkZDRe/tkoKZkfHAhNG9S97m9DzIE0TukbbDRp41idpppSFwNgmjheAqxoxI2MScYrhoxcL29NZz1jy9MbxXHvqjWpRT3hIoANGzaGiF6hSV5jSdZTDQqARfys1JySQrT2XR+5pLQRVQ96xVlEkIpTN7XuFKfkSbv6js5X3uTURtkzGLNNP4QDYw05jdCyfcv4BDDTf6BxPgb0hTkKHyLiSdoBLdAHxi3rms9fa1YhysmmtSj4ZWnM7Wpkmkakqf7ViCwLhuY2EBuzeeRFvic06kqKolcjPtCf8J+koaINW99I9a+0ketff5od0xtS6gWcT1AzcI8B+bA3UQzXPG9qTGFPyYl8HpUlYA7AtRh90pzSz4Rj03uIlpI9JyBS3LKpaLr0AUAuAjwdUghFTojxmlJEYlpiGHdMf5RoJ9mLAIQY2BA7JdYSQo0tC5TFNpJcCfiVgI1oX+0/AexCEd8YISFF6uN+iu0K33PSMfhZQbQMmDNF3JX/5Nkw2xT5Ex2y6AzIeLT2HujsdQNqfZXtP+GJsv3H6ZLxRs9EDytX4xgjeOodYbH/YnRbok05csleOsAgaYBGjTC3tjdszqr9p/sC787F/2AgFnsS6wC9vOP9D3W2sX5eTpT8DwsKPZ/+x8Ldd6PJEAWVy8Cq/MOlHlUgyvLt7P2POk2MjREXcg99maOarfY/Yhtz5z+d0+z5T0sxoB5Vyf7b0fzXie+tbTh7/lMdhr2KfaT6N7c5t9X/5Zs3Lchk0wjBB7P1f1keciQnj4lTLP1+VJrk8s/KDC835uT/zpr/WP9qVoNfK7H/4m3L0RZGNJn1DYYWLQp1qzrxXxf7YIODAXjK51iNHgStrI9TAvZK/srW+L9B/nEKoV0kMB0WHoSxTGiJBYOr9J4/wfeKwU645NjZSdlJW8AGG8tvErtZ7Hg9o/F3fGMh30TIkVtcPDo3ZPMQTjvm0vjwrhXepY1rBbb/Hc9bBvWMYNcFc7djs5+VaOTX3Ap89G/pUDGMzAd2bfCOd6A9DUrzt4L614n/cPrp91gn/i/xsxq6wq//nviPBTFHYnFtrFBPIVwDnxtLfv6dhKTfN5YPZ+I/vwfQh+3b74XS3ijtVy+vSryA/j1g7eVVJ7kkn+f1nqQfARlmw3+IasllhC/grpTKx5Ibrjk9beqgRDYp2IFIEgWPqvJPW1N6yGdeOWpEUpKYxlGsp9pgY2PjtH79Rhobk9N0m85n//apavydABoasST0im+lNdDoKh2n1q8S3kFUhhZOl7krEGTBGgvk2dsIpec8AgtzEN1dTQnMo7Q0Wg0RXzJmdoC11hXmaeeroBaAMKUlf8fj12hVgJcATMCXdq0UnPRrbethAbzMaa/rYDjGsmICPhGlIOupBmu+LspjaYSImDCpFEihSTImPoy/AW5ZO0rmpk4fqIboqthzqulk0x0SgAMQwYBSaDdaNhhJ3Cf2lDMkwqVCv4iaCpwUASicwko0VExXC5FPuO2QgYFst6Ri6jaF0EZECU0UcBI+EyAs9B1rVUl0FUezqY2GqCcf0WWjtkA3zB+3EKIfjbKK9VmyNcjTHgGqqQ5AyqCc3Afby9QYC7SPUW7KdEhLhHyIoLtxULIIrZT+a1owaZG53abpmypjTCyMqb3j9V/is7CRzG4xQGJqM35dtf9030AAVm1wBWlLfkTJHk/2TUrFyU/nlU8UJLD9er3MU/I2q9ejAEi2r/+RpwRluqrDRVAi/020JgRx/Nx+r/Kls8OZCT/T9mz9D76FkCOwhEl8AW2tvVnlvzxKpsp/nX0vzHFsdIwmTR3CmfwPRLH5OduxWdsZ/fixV/lPD0XAWzP7v7om3N7zw3+4hXV29p/VcVU7Uw/yXhj+h97ap/aFPWws819IcTd1sPzJKPQnaFGy8Xes/5tHf3vbpMR/1jYAL9u1nA3/4XnoX7TjaetljpdXfu9tk//LAFYpSgCdIBLHPhOUclSuGCwKbNnBlRxCz/Q2sobftf34TeAdN/t37lDlyhYE8nPAWGw7mG/V6dHTMLsgVsBhQYNRFU5cVeurgWOMrRgybk+TQA+PStvN4p3dTmOFMMfzYDQ5lc+jHPw8LJNbRcZ9Yf2nU0idxuvHbjeO3VC7+C8XtCWh43nq14H/enp6aOHChSHll6OzSvvPGqp+7+8I/vOC3PO+lWOzkX+YU0n+2ZpgJfnn6YH9lRtTuAlLeMxGkFgwyzsaXlFb/rNKy+oHdT6EKt4ZYcdBo4lQBwgAkDjBuU6pgmB5BJM8LeOR6CDMT+SfXmcsY9HTfk5P57Fs2rSZhoeHU6RQLv+iYx3bQj+65grAiD7L0/NkTZOki9EieQQXxoX35SQN7hPSBqXWk+pfLSZvo5jEIRSwK9QgT7rbtgNgE0a01rnCGLhNAcQweP4bUW3+5j+NpEKEEz/LdbQUKNU1AtCGtUEdK0sHrFO7bQH6nNay7oi401pYdo09UMt/l/Qv+2Jcv8wWaB0dnQj8oTIk1+U5n5qUuUh/8LJEy5T0b8bqCZjy+hfpbTJfOOiaLmYBLk2f0wgs2bcKxKhdpJ/FXRRPovVyBgBqDBqJLSCRRlwMWGhVri8VALpQ14wjmASYC7ZWsCMRccSfScQUgLO2qdVlC8xL1FPkV6QXxppeFpjjrkQHCKCkoIzeQhjoGwvXc/9dDMiaNExbLyvIsLB24F9JjwDCI3Wvov0X1xnrxP8jUklTOXFLo6YD83dhzCmle0A/+QAAE75JREFUMLSgck1yBvPPYkqn1z2JjnHfy36G/YcUTnWklQMlPYS7CmtkbgUVGeLs2Pgif9c30E98ci99NWlibDzUVAHPez2ia57rCIy1VLjc+h9S4Hwqi5hQHZADC0FeYuwROFedXCjunQAyyDtXr8vY0mFeJlUO+o6py+k7+JvpPzYykup7WocQ/gdqE3mZkjQHUssQqWciN8L6mFpYoAX/39vfT9093ZGd2jQxPhEimEDPufsfbeIojhCRmH6Qkq+ymunSP28wqxWYbIEouINcjRF4HFk1Oa43UYNnrP/BzyOFsMr3UYIZgDath/HLtof/IfynEYt+LBX7D+njfJGGqYsFfs/8tu3Af9P5vyxjtsn/dfyOg5hO/Fe1//JsmrnzX+mAUvUiAEvrs87V/7WFx6HzZgLEPA94W9nu47njL3oTodp/nfnPph2L/JMDYpbpW89/KF2hWEIJhyj7Hzjogv+h9UPnir+EGljo2Dp31nnB9xZVxAJ6hxCbsLTA1smxjGwX2wpSMBq+nw6A8c6WVWCdlAAEmhXwpfngM0+TTgLRzrOTk+kVUYnenl6lv307HljExoUQsw6wnZfdYLNVBpauVuiiD25zutBN76Dv4r9yhMou/isbI7v4r7MDPb38U1DIy+EdJ//yQtrTyz93wuxu6AFglTtCAtLk8k/T5CSlMb9lB2BSLnc0Qq0TOCX95jW0VP7h1iaMR4Emm34oukOewXwwHnuKDfBFgBatHYaoJ4B0Qk9ZV4loQlSUBacUTLNAUnRjicEhoR+iXBSskjEBALQOr42U8hFlFmDyaZ5wbmyEleURbStfJ3sqn0fkWZriHYBsAlxUo69s21bvveyQfemtb30V9fTwpQFtmpxs0r9cdw+tXvWEAUf1gAo8NL3+FbAWvGJTNxKoZNAn4T+VculvpJWJGSorH59j3zzXv+CxKoCFyCC0G8YV0/FkjBEkiftPgAZEB8n38g7AFBmLgEAwkgU8spFaqLsUczSzfpCqqKBSnF9M0wPwldISI4gnUVNB6qUi60EeRLpUQaicbphDmHYCaWPEVwKr4pxjn8l+RAqjKfge+CECdAAsUesparO4bkK/EugIEAPrkxyEEG2ldQLtOKr8pzXKBEQGQBh5puDgY3zJLxCyJrBceVWjZgHMMXj1jg+cSPMXDoVm+AbRlfc/QN+7YXkFwFL7z0c3Krhr9dj0/odGsc10om8dLeiQsI+M/rB2O3bg1vof+7/sYDrq+LeEujLcx+TEJN167TfpFz9ZlcBa7+DaYxtv/wmblyOqvE2f5hGBhneeejIt3nNJ3KctemT1z2j5lVdl6UGz8TuszhyYP4/4NlB1iAEOCzjNY3jJy3+LDj/hOOpu9Fizrfg79//kQ7+kmy/5Ssdx8Yvc7siWYQFH4wbi/638A5Di6Ys9I/o3Rlq6elNWH3C729//1eharOnO9n8VUO8coTd7/tPIIKsPgx/vUqJB206+jefjTn/7doR+Vf4La8cHbpn8y2tOJjkaG83kn4nkR11JWydt5/q/Wk+xZK97+WfXuLKWiBKPMmVu/Bc1hYkUtRvaylm7l+wz2+x/7LfffgHAsoxgEdsSo1lQpDTI7HTEjDZ3FJR5Ok3aChfLXJ3AFiuUSs9P971nBCuwpiO4/84L/5ICtuMo0aS0KX30WEkAl5Rup/b9upU2An+mRsY0wsmEHXshgPnjc/AW1hC8sov/8roPu/hPjNhd/JeHZfv95BWD3+/2eZUZ8pZVHjte/pXAozwUWsdgo2ykGHku/3T8qiOk1lR+6GH5x4LDVvfYvhDlpO0ryISxavqa9ldKbdSi66qvqsXVARip/JOoJgAv/nNNkZO2BPzKC6GjTQBtPhVQ1j6vgYXaVqIXFFTC39oPAKQ8+slHRqEP4T+ZBT9jUx+F//LC8Pl8NbU1rkhKg8Tc9PM8rdBG5eF34SFEl1njNYwuG9shh+xDb3vrq6m7W2quTUxM0XXX3UurVj3uaqGpAzS9/s15XcCVHEhOhnEkgso/GOQKdqgNJjcvacqcglmR6uKgxWcYXIKRz58BMMrqhsRncKtYpYB6TCvk73UesCFjdE6MzgIIJisdIzNSBJPWwALwpBFlcoOfjTDTGlh6oyDmKKF3lg4CCgXIyUWcCT00Qq5S94sBXFNHC+AX6Cxtoqi68E6Sp6ZgvMxZI7VSVH0WwWVpYm0A4Q8pks/yT4EnAGyasilz4cg2f+ib84W2L/tak6mr9p869UwfvTEQfKxF7m1kVV9/P73zv/0xDS3iyy/49tAmrbz3h/S9f70l0lSjB5hm4MU52X+xmLTIPxPpGBvx/keKXe1QEDvxkHVSo+CydnLSl/E7/C1/VgEAfB8ArOOOFQCrVgu35n37muvp4Z+uiXLRRnWq7kEUHmiTeMz057+byf844YMfUACr3aJHVq2h5VdeHTjY1uWDUOH2KsXk3VyZjwaHhlLtORyIqJ5p0W8cdgi9/t3HzwnAWv73/9jR/mM6MkA8vGlz2nslv9CvzXbxPyKtcv7TlajynwDOVV9MDzPwdlq/afkPsk71x3T85/37Cp0ciA0+41pQ0xV5t7yHdzTiV+1WzMnacB6Q2hb+Q/u5/i3vR8x9tv6vvzRB95fKP517KZI1lw3bh/+ibsjk33T8J8Uj5oK/AFAtyz/o3+3Df1ZmWT0wG/7LamBhs3uUzgtOywT2VMI6nKqccCpncuE95zsFYIWOZw4vsK2jb5FHPxe8ZwETTzi0hWdAB3+q5YWNHZNlUBiZfiygHzacVYReKfpn0KYVSnNJ37RzsfPkfn10Fo8bQsef3llhUXKasW7Tha+CXyz9Sgp4F//hFD1PK/RCGOvl13gX/+XgCdMNtLP77ddH/smO27nyTxXozPJPo2zK8i9Pzxb5JykruWxGPSlZbwBDSDMD0AMgRZxEBThkP2mYcxY9k9LnFAzykVMiUzXUugQMoW8dtwWX4AIrQIaxA/hR/SsAjMjiIDGz4vGSvocoKvlefhSQ0vHD0Y2wQyqGn7/H7TG4KHpDQEYZj64fIsR0THozovCfLXAPgE+iwDCXHJCzEXLVFMLSGmsUG9LeZOYACUv6l+tf9fVxEX+tuTcyMpHmaM78wvyRauhtA+hGkTmRPiYNX+WQRk5ZfQfgwupfFA0XsEIBBQAJcXcnhzLQL6XPocA7UtTSiCEUsvQ4WXEFCdLpdqwLpdFVsO/0NgUBxyTyCyffCppI1FbklAiyaSQS3vPzS2BRLAzP6WDctgBOcU4i3VKReJE30lcqRh/Hn1IBTfH3LnNDmzjwNuU6cbfqEFMgCtFnYb1jBJbIWnsToowHsi0rTm/rS6UbRjX1MYwn7RmxrZn/pOCwHkRbvgoAlOM5sSMBiIp8qURnhXUTmlbtP5eKbUCN3v6+sG+Q2scpalOTUyZ90utfiSNUsK96uJ3AozgP6C/IPy3WryCdtfUTeGhD3SLFMpAzft/J6bc6BvYr2kaUByQr6ugwHRjYY3pLFEiLxkZH055IYCh4mGWoARW8/+FpZcc0k//R02gIkBYd2rHREWpOCQhu5Y6lrz88T+OJ+4z3X09Pg/oGB7Rt0DbyM9OqMdAfUhsTvfGd0RcYx+TYRAD6QkqhWxPmU657NT42ntHJj9/6c34O3v7bVv6z/GXtG/xe5r+c7+34Z89/rDMF3O7Ef7Yt7/+i3hN0h+WfrfN/NS1yR/u/WLOy/s2jOsvyz9yEHdNAwWv4HzplJvkHGntbYsf4v9XaXrPhvzwl3UqNHGTD3rcywfKQtS+kRITyH+QxP2MLw6Ot7Y6/oIi7d2a8QAMzglDeeS4RsOQcegWQzKcOIbEgJpSFBUtK75aIb/u0zmtJYHthWfrbCxc7Ro8yow//Dk7KMB82gHkj2h+72IEhXCHZbJPFvGq87wVmyVktbTpPUz9+Sw8PXFml4Bm+RDO/LqW1tf1ZZ3YX/+UGB+ixi//KqWq7+C+qHZMKsnPln+52GFtWtuTyT1yAzvLPGB5RLlrgRGWlADqqEzSFTGWNFp2NO8o8H0boTq40Osm34VMBFeSwgJCNmJL2ZXwK2Og4cuDKFmVX+Sfv2xsKARbJ3BWo0jpaOq8cwAJ4puMC+IMUQgs4YZyYJ1IMda9pAXqZI9IINcoL71ga4Hfhj7yIO4rNY9yYo8o/ODy6rgDCwIGoy4X2Ayhg9W+wjGvpqvmSTrURXv7gTPkvL2gMsCTwdjFdJQcg4o7N+M8WDZd5aT0jOL22H1ubCWCR0CyeFqfaSjEawKTDpRTBlF6lt/tlaYChnoaALNVIMANSMRic3f5nwSCZh2AqAvAIFwLskO8wZ8xFNg+ioUKMVyXiKtExAknBlo3bwgJqwkMRSDG3EGqbeYSX8A9uC4wAlYmUSvCzWSesfYpui3zQ3SXpfRgr/29rr6TUSebLmD4ILAb8ZyPF1P6rAkMYN3jHR1nI/jO1nkydwNz+U8fHpsOqXHSAWpxdxS+I/LVt9p+AmKW0Huxfb5PacVgQqWS77jj/A7JWQT2hv9BuphQvb4+X7D9LE6z9XP2PsCOL/octQq9yRcZh9a+kkZVSH9McjLbqBODM5H+I3M6zGSw9MX/wRPhOHsjkrOqK8mFaJ/9jbvyno7C+2M7lP5FfoNG2+782RVla9vt6ZvtPxrP1/q/WspuRX6CLLUPYgJoO2UXQFX7dICd2vP+bR+/NhL8oSK8TzeVfNWLNys2y/JN3PI4wna+13fEXBrDAUBikRQ3BgGDC0oK5ta/86RmWHyiBMdx2UsbG8UgnVS6H33bEfQCJtcLZbh60EwyYmG6CApH2lMO361FpfG+VBTYc5uaRRi/wOgkK37elN/eHsZfa8+Pxm8iPCWP2CDboVxT2yJk1USwWWAK9/UYuCS3QYBf/5UX5dvGfGs8VY3cX/2V1IayhNXv5h+gTLvytkTNQLjuG/zRl0coVr/yk76rhAxkh8k+ieCxvAJTIlbLOhNkGkTxW6SKCSCNo8jQcTc+TcWG8iITi/myKo03NkzHHGYXfYSTk6Xt27PjdFjZXYMgaCxqlpDTLo6qQFii6UfsWHaURWUJLFHoX+godBXDSSCWtw2XMoATycYQaR8KJ/hDwRvSB+C0oAo815OfwPNbUgn7CJz7tUiOwMAfwi41GU11nQTOlT65/PYjJVlk15SPXv1V+nl7/an22aPWF/3CyiwLosB90X+fmFCKT1BA0t/Il582ePiswJOtiUsBMdISMXVPnZM0ZUJF0BU1Xy4EmMdMUpMp/l7FLIfVmSvELEVmxnhbqcAH4Qoqjpv8hVYPrammUkIA1ALnEN+ZIEgaCME87bn4WReCF/2KNqvh8VpRepqS0yootK+iWbFhzO2KI/IqRiMHhjwa+pkLGXRlZUeRJnk6KeeUgp9jMqDPk62aFfWbTDJNjobWhSvYfaGojCEE/yOma4lBG/mn6nkb46Z7RvW+K/LqC57n9J44v5DxsyjSGCEqU/A+JxMhvcizpMKt3qv6HyNbp/A9fQ8f3MXv96/2PPGrFtss8wKk0ADPDOkcNOZP/wREQyn9eX9qDnVyWWZti2/wPteMg61R/RoAu+nRV/lO9aelh34cN8Hz7H1iPXFIbDRmjo6r8p+AO/Kbng/+SvDLRjZYH5ub/6h4qrZVtN0hYE7ji6Wd999z+yw8wQdeq/t0+/AerwY5X62xpEXzr8+5Y/1fBVu8flXgQMgRRdrAx/HjnJv+MUogg39bLv23wfztFYFkgwgr7kjABEcHoWOjcmcgnDKbzCqkkPFOYcComqkCOHc9MKKQfOwRgJyfZKyg/Lw8QWQFlHazSc3bT+fnZjeLHYNuyfeQGuRi1nlEtMFUSFnge71oBUlp3u4aehn48GDeMKM9TmEvJQNnFf2pgzMRXlu5+DUpr3mnPduLtXfynVPTK99+G/FPDdefKP2sGCA2ts5LL1uoJaq4vdA7WCbIAEyKy1KixwJQdi4JlIv/EudD+Mgkc/pB1tyCbdQDwOeSvvI93AKLJuHBC7esx2TRCqYkl81TwBuCS6hwByDBvgFI2wgqRWZH6Jt0wT4PUqLPQegL+JOpIa2+hUDz6qEaB5dFmUicLawdQy87LOlU5GAcgUerBahuYC1bJRmzZ5/TwX9c+5788bSkLRIqN5/owf352+reZbtnyu0Het9EMNmBBbSdxSC3ArzWWZLUCtxkaxWfjO0ihC0BRBKaEPxGBJYCKzDWPKgJYpfWq8Kz0K+BTHpEUno1gEMAaHWMMPUzF4AVgE56O39UY3GG+l5pY/HmwY5COacCzIH/TibkWrbepdVkx9whkYTxxp0q9p0hHoWlOTxsFZ2nOvyOyK+w/MCWAhAxkkTZFZ4BmNlXTAzLGaYnsIHtcZamNFFP7D+ssfeXOtvZRteHjWIAoV0AsPbEv3Zin+0HTXcJOj7eu5TadRh/Nxv7DHHL9q8BhrkvSqlo2MPLdRh7kB2ehfYDC0mhaM/4ONMYyb5X/Ued4Otmzyi7OOYw87ec1J//DRD+prMzTzmZjW5btP416TVF98RIRpOVj3+KWwTRZI1v5V2tD+cixEn2sn2p5e0f6H2X+y8duaZlW1+adGzkl8q5aA1f4j2VKPYsSswcplo5bw38ie3JtNCe+cgsJeVThpR3Kf9YmiAcsgf/ySKyq/NPBlzCM8JlbM+hKu4f8WmM9sV/t/9vD/5U9VAX/pvM/RMRUQScvb/28wH9W9gj/aSH57SP/dC3mwn//D0FnIZWYK9IfAAAAAElFTkSuQmCC;" vertex="1" parent="1">
          <mxGeometry x="1430" y="600" width="1013.33" height="570" as="geometry" />
        </mxCell>
        <mxCell id="sceWcwLllYWsd-2YkSTM-59" value="&lt;font style=&quot;font-size: 14px;&quot;&gt;Русский&lt;/font&gt;" style="strokeWidth=1;shadow=0;dashed=0;align=center;html=1;shape=mxgraph.mockup.forms.comboBox;strokeColor=#999999;fillColor=none;align=left;fillColor2=#aaddff;mainText=;fontColor=#666666;fontSize=17;spacingLeft=3;" vertex="1" parent="1">
          <mxGeometry x="1220" y="860" width="145.71" height="30" as="geometry" />
        </mxCell>
        <mxCell id="sceWcwLllYWsd-2YkSTM-60" value="" style="swimlane;shape=mxgraph.bootstrap.anchor;strokeColor=none;fillColor=#ffffff;fontColor=#666666;fontStyle=0;childLayout=stackLayout;horizontal=1;startSize=0;horizontalStack=0;resizeParent=1;resizeParentMax=0;resizeLast=0;collapsible=0;marginBottom=0;whiteSpace=wrap;html=1;" vertex="1" parent="1">
          <mxGeometry x="1240" y="1020" width="140" height="150" as="geometry" />
        </mxCell>
        <mxCell id="sceWcwLllYWsd-2YkSTM-61" value="Команды" style="text;strokeColor=#008CFF;align=center;verticalAlign=middle;spacingLeft=10;spacingRight=10;overflow=hidden;points=[[0,0.5],[1,0.5]];portConstraint=eastwest;rotatable=0;whiteSpace=wrap;html=1;shape=mxgraph.mockup.topButton;rSize=10;fillColor=light-dark(#008CFF,#CCCCCC);fontColor=#ffffff;fontSize=17;fontStyle=1;" vertex="1" parent="sceWcwLllYWsd-2YkSTM-60">
          <mxGeometry width="140" height="50" as="geometry" />
        </mxCell>
        <mxCell id="sceWcwLllYWsd-2YkSTM-62" value="Добавить" style="text;strokeColor=inherit;align=center;verticalAlign=middle;spacingLeft=10;spacingRight=10;overflow=hidden;points=[[0,0.5],[1,0.5]];portConstraint=eastwest;rotatable=0;whiteSpace=wrap;html=1;rSize=5;fillColor=inherit;fontColor=inherit;fontSize=17;fontStyle=1;" vertex="1" parent="sceWcwLllYWsd-2YkSTM-60">
          <mxGeometry y="50" width="140" height="50" as="geometry" />
        </mxCell>
        <mxCell id="sceWcwLllYWsd-2YkSTM-63" value="Удалить по id" style="text;strokeColor=inherit;align=center;verticalAlign=middle;spacingLeft=10;spacingRight=10;overflow=hidden;points=[[0,0.5],[1,0.5]];portConstraint=eastwest;rotatable=0;whiteSpace=wrap;html=1;rSize=5;fillColor=inherit;fontColor=inherit;fontSize=17;fontStyle=1;" vertex="1" parent="sceWcwLllYWsd-2YkSTM-60">
          <mxGeometry y="100" width="140" height="50" as="geometry" />
        </mxCell>
        <mxCell id="sceWcwLllYWsd-2YkSTM-65" value="" style="swimlane;shape=mxgraph.bootstrap.anchor;strokeColor=none;fillColor=#ffffff;fontColor=#666666;fontStyle=0;childLayout=stackLayout;horizontal=1;startSize=0;horizontalStack=0;resizeParent=1;resizeParentMax=0;resizeLast=0;collapsible=0;marginBottom=0;whiteSpace=wrap;html=1;" vertex="1" parent="1">
          <mxGeometry x="1240" y="1170" width="140" height="100" as="geometry" />
        </mxCell>
        <mxCell id="sceWcwLllYWsd-2YkSTM-67" value="Очистить" style="text;strokeColor=inherit;align=center;verticalAlign=middle;spacingLeft=10;spacingRight=10;overflow=hidden;points=[[0,0.5],[1,0.5]];portConstraint=eastwest;rotatable=0;whiteSpace=wrap;html=1;rSize=5;fillColor=inherit;fontColor=inherit;fontSize=17;fontStyle=1;" vertex="1" parent="sceWcwLllYWsd-2YkSTM-65">
          <mxGeometry width="140" height="50" as="geometry" />
        </mxCell>
        <mxCell id="sceWcwLllYWsd-2YkSTM-68" value="Выполнить скрипт" style="text;strokeColor=inherit;align=center;verticalAlign=middle;spacingLeft=10;spacingRight=10;overflow=hidden;points=[[0,0.5],[1,0.5]];portConstraint=eastwest;rotatable=0;whiteSpace=wrap;html=1;rSize=5;fillColor=inherit;fontColor=inherit;fontSize=17;fontStyle=1;" vertex="1" parent="sceWcwLllYWsd-2YkSTM-65">
          <mxGeometry y="50" width="140" height="50" as="geometry" />
        </mxCell>
        <mxCell id="sceWcwLllYWsd-2YkSTM-71" value="" style="swimlane;shape=mxgraph.bootstrap.anchor;strokeColor=none;fillColor=#ffffff;fontColor=#666666;fontStyle=0;childLayout=stackLayout;horizontal=1;startSize=0;horizontalStack=0;resizeParent=1;resizeParentMax=0;resizeLast=0;collapsible=0;marginBottom=0;whiteSpace=wrap;html=1;" vertex="1" parent="1">
          <mxGeometry x="1240" y="1270" width="140" height="100" as="geometry" />
        </mxCell>
        <mxCell id="sceWcwLllYWsd-2YkSTM-72" value="Фильтрация по описанию" style="text;strokeColor=inherit;align=center;verticalAlign=middle;spacingLeft=10;spacingRight=10;overflow=hidden;points=[[0,0.5],[1,0.5]];portConstraint=eastwest;rotatable=0;whiteSpace=wrap;html=1;rSize=5;fillColor=inherit;fontColor=inherit;fontSize=17;fontStyle=1;" vertex="1" parent="sceWcwLllYWsd-2YkSTM-71">
          <mxGeometry width="140" height="50" as="geometry" />
        </mxCell>
        <mxCell id="sceWcwLllYWsd-2YkSTM-73" value="Фильтрация по альбомам" style="text;strokeColor=inherit;align=center;verticalAlign=middle;spacingLeft=10;spacingRight=10;overflow=hidden;points=[[0,0.5],[1,0.5]];portConstraint=eastwest;rotatable=0;whiteSpace=wrap;html=1;rSize=5;fillColor=inherit;fontColor=inherit;fontSize=17;fontStyle=1;" vertex="1" parent="sceWcwLllYWsd-2YkSTM-71">
          <mxGeometry y="50" width="140" height="50" as="geometry" />
        </mxCell>
        <mxCell id="sceWcwLllYWsd-2YkSTM-74" value="&lt;span style=&quot;font-size: 15px;&quot;&gt;Информация&lt;/span&gt;" style="strokeWidth=1;shadow=0;dashed=0;align=center;html=1;shape=mxgraph.mockup.forms.rrect;rSize=5;strokeColor=light-dark(#001DBC,#1A1A1A);fontColor=light-dark(#FFFFFF,#CCCCCC);fillColor=light-dark(#0050EF,#1A1A1A);fontSize=16;fontStyle=1;labelBorderColor=light-dark(#000000,#1A1A1A);" vertex="1" parent="1">
          <mxGeometry x="1240" y="1460" width="140" height="30" as="geometry" />
        </mxCell>
        <mxCell id="sceWcwLllYWsd-2YkSTM-75" value="&lt;span style=&quot;font-size: 15px;&quot;&gt;Помощь&lt;/span&gt;" style="strokeWidth=1;shadow=0;dashed=0;align=center;html=1;shape=mxgraph.mockup.forms.rrect;rSize=5;strokeColor=light-dark(#001DBC,#1A1A1A);fontColor=light-dark(#FFFFFF,#CCCCCC);fillColor=light-dark(#0050EF,#1A1A1A);fontSize=16;fontStyle=1;labelBorderColor=light-dark(#000000,#1A1A1A);" vertex="1" parent="1">
          <mxGeometry x="1240" y="1500" width="140" height="30" as="geometry" />
        </mxCell>
        <mxCell id="sceWcwLllYWsd-2YkSTM-76" value="&lt;span style=&quot;font-size: 15px;&quot;&gt;Пользователь: yoyo&lt;/span&gt;" style="strokeWidth=1;shadow=0;dashed=0;align=center;html=1;shape=mxgraph.mockup.forms.rrect;rSize=5;strokeColor=light-dark(#001DBC,#1A1A1A);fontColor=light-dark(#FFFFFF,#CCCCCC);fillColor=light-dark(#0050EF,#1A1A1A);fontSize=16;fontStyle=1;labelBorderColor=light-dark(#000000,#1A1A1A);" vertex="1" parent="1">
          <mxGeometry x="360" y="870" width="200" height="30" as="geometry" />
        </mxCell>
      </root>
    </mxGraphModel>
  </diagram>
</mxfile>
